<svg width="49" height="49" viewBox="0 0 49 49" fill="none" xmlns="http://www.w3.org/2000/svg">
<path d="M0.572754 40.3329C0.572754 29.6887 0.572754 19.0444 0.572754 8.40012C0.592089 8.31069 0.619692 8.22211 0.629603 8.13156C1.08366 3.98499 4.15004 0.740261 8.2178 0.103272C8.42604 0.0707214 8.63374 0.034527 8.84168 0C19.3197 0 29.7977 0 40.2758 0C40.5029 0.04058 40.731 0.0765268 40.9572 0.122357C44.6798 0.876947 47.0841 3.112 48.1809 6.79415C48.5379 7.99265 48.4855 9.23593 48.4849 10.4704C48.4824 15.8007 48.4809 21.1309 48.479 26.4612C48.4775 30.8859 48.4845 35.3105 48.4696 39.7352C48.4647 41.1783 48.123 42.5516 47.4256 43.8144C45.8403 46.6854 43.4391 48.347 40.2016 48.6189C38.7526 48.7406 37.2868 48.662 35.8287 48.6635C30.6324 48.6686 25.4362 48.6704 20.24 48.6709C16.7961 48.6712 13.3522 48.6599 9.90831 48.6686C8.82593 48.6714 7.76453 48.5654 6.739 48.2016C3.85935 47.1802 1.93846 45.1883 0.9848 42.2529C0.783793 41.6342 0.706881 40.974 0.572754 40.3329ZM33.8323 20.5319C33.8179 20.4281 33.7996 20.3587 33.8 20.2894C33.8065 19.065 33.7981 17.8401 33.8292 16.6163C33.8535 15.6562 34.3463 15.1368 35.3002 15.0741C36.1075 15.0212 36.9188 15.0288 37.7284 15.0171C38.2515 15.0095 38.7746 15.0157 39.3095 15.0157C39.3095 13.1164 39.3095 11.2583 39.3095 9.38145C39.2175 9.37281 39.1392 9.35922 39.0609 9.35916C37.2984 9.35786 35.5354 9.33476 33.7735 9.3683C32.9569 9.3838 32.1333 9.45681 31.3288 9.59751C29.7321 9.87669 28.3827 10.6129 27.4614 12.0209C26.7274 13.1425 26.4282 14.4145 26.3677 15.731C26.3005 17.1894 26.3272 18.6523 26.3132 20.1132C26.3119 20.2432 26.313 20.3733 26.313 20.5459C25.3218 20.5459 24.3762 20.5459 23.4247 20.5459C23.4247 22.4477 23.4247 24.3064 23.4247 26.2056C24.3894 26.2056 25.3355 26.2056 26.3122 26.2056C26.3122 31.8399 26.3122 37.4335 26.3122 43.043C28.8195 43.043 31.2954 43.043 33.8154 43.043C33.8154 37.4253 33.8154 31.8255 33.8154 26.1959C35.3246 26.1959 36.7898 26.1959 38.2783 26.1959C38.4813 24.3033 38.6813 22.4381 38.8855 20.5319C37.174 20.5319 35.5075 20.5319 33.8323 20.5319Z" fill="#05A099"/>
</svg>
