<svg width="135" height="102" viewBox="0 0 135 102" fill="none" xmlns="http://www.w3.org/2000/svg">
<path d="M15.6295 100.5C14.3553 100.5 13.0789 100.341 11.8358 100.028C10.8701 99.7844 10.7999 99.1429 10.844 98.7821C10.8591 98.6585 10.854 98.5128 10.8485 98.3586C10.8442 98.2356 10.8397 98.1083 10.8441 97.9733C10.8493 97.8056 10.7068 97.5934 10.5559 97.3688C10.3681 97.0891 10.1552 96.7722 10.1384 96.3895C10.1109 95.7467 10.3804 95.2562 10.5971 94.8621C10.74 94.6023 10.8633 94.3778 10.8946 94.1422C11.0113 93.263 10.8021 92.6912 10.4853 91.8256C10.4446 91.7144 10.4027 91.5998 10.3599 91.4806C9.52949 89.1644 9.70087 87.8848 10.2899 85.5174C10.9561 82.8408 11.2388 80.173 11.3323 77.7172C10.893 78.6421 10.445 79.4286 10.097 79.9978C9.50783 80.9616 8.86532 81.8613 8.2879 82.5311C7.41338 83.5454 6.94903 83.7534 6.52083 83.7535C6.52073 83.7535 6.52053 83.7535 6.52043 83.7535C6.04991 83.7535 5.6706 83.4577 5.59802 83.034C5.23905 80.9382 5.49142 78.5703 5.75867 76.0634C5.93754 74.3857 6.12249 72.6508 6.156 70.8172C6.22473 67.054 6.73564 63.28 7.22964 59.6304C7.41854 58.2353 7.61381 56.7927 7.78094 55.3748C7.83753 54.8946 7.89149 54.4133 7.94544 53.9319C8.39673 49.9046 8.8633 45.7402 10.9469 41.9738C12.1087 39.8744 13.5906 38.3025 15.4773 37.168C16.9633 36.2745 18.6969 35.7407 20.777 35.5357C20.9038 35.5232 20.9509 35.5133 20.9683 35.5071C23.417 34.5518 26.0058 34.0673 28.6623 34.0673C30.4962 34.0673 32.4134 34.2982 34.3604 34.7538C36.7886 35.3219 39.2126 36.2012 41.7708 37.442C44.8007 38.9114 47.7443 39.8605 50.7697 40.3434C52.2083 40.5731 53.4728 40.6847 54.6351 40.6847C55.4856 40.6847 56.2778 40.627 57.0565 40.5086C57.5812 40.4287 58.0341 40.2612 58.4412 39.9964C60.5676 38.6128 62.8874 37.1977 65.4413 36.221C65.8865 36.0508 66.3378 35.9038 66.7743 35.7617C67.0737 35.6642 67.3831 35.5635 67.679 35.4586C67.894 35.3825 68.1145 35.2974 68.2723 35.1907C75.0751 30.5842 80.7847 27.1238 86.2403 24.3008C87.879 23.453 89.6314 22.8655 91.2808 22.357C92.7477 21.9044 93.9567 21.3638 94.9765 20.7045C95.3717 20.4489 95.424 20.1733 95.5042 19.5742C95.5692 19.0893 95.65 18.4859 96.0667 17.8659C96.4956 17.2277 97.1316 16.6208 97.7466 16.0338C98.1484 15.6504 98.5278 15.2883 98.8437 14.9275C98.932 14.8267 99.3293 14.4886 99.5268 14.3278C100.156 13.8159 100.454 13.6599 100.804 13.6599C100.941 13.6599 101.076 13.6884 101.197 13.7426C101.793 14.0112 101.708 14.6179 101.639 15.1055C101.584 15.4945 101.485 16.0064 101.379 16.5482C101.309 16.9112 101.215 17.3973 101.133 17.8765C101.216 17.7812 101.296 17.6892 101.371 17.6037C102.871 15.8776 103.284 15.4741 103.896 15.4741C104.079 15.4741 104.255 15.5219 104.404 15.6123L104.801 15.8533L104.744 16.2712C104.628 17.1287 104.195 19.9076 103.278 21.7012L103.313 21.7457C103.495 21.9785 103.678 22.2121 103.863 22.4447C105.387 24.3677 106.485 26.4614 107.127 28.6674C107.779 30.9092 108.827 33.0783 109.841 35.1759L110.085 35.6815C110.546 36.6362 111.039 37.6499 111.563 38.6241C111.905 39.2619 111.97 39.9192 111.755 40.5775C111.502 41.3526 111.221 42.1822 110.881 42.999C110.484 43.9518 109.615 44.5325 108.297 44.7248C108.23 44.7346 108.163 44.741 108.097 44.7469C108.067 44.7496 108.038 44.752 108.008 44.7558C107.789 44.7836 107.571 44.8118 107.352 44.8399C106.884 44.9003 106.415 44.9606 105.946 45.0176C105.719 45.0452 105.504 45.0564 105.296 45.0507C104.382 45.0248 103.26 44.6813 103.1 43.1922C103.053 42.7593 103.058 42.3304 103.063 41.9478C102.599 41.6272 102.136 41.2957 101.688 40.9747C101.101 40.5541 100.494 40.1192 99.8879 39.7131C98.6521 38.8847 97.6291 38.243 96.668 37.6939C96.3629 37.5198 95.9674 37.4077 95.5486 37.2889C95.4417 37.2585 95.3351 37.2283 95.2297 37.1971C95.191 37.1856 95.1558 37.1793 95.1301 37.1793C95.0715 37.1793 95.0051 37.2572 94.9707 37.3036C94.89 37.4127 94.808 37.5213 94.7259 37.6298C94.4411 38.0069 94.172 38.3631 93.9576 38.7372C93.3305 39.8327 92.7102 40.9587 92.1102 42.0475C91.8289 42.5581 91.5476 43.0686 91.2645 43.5782C90.0908 45.6909 88.916 47.7443 87.4539 49.6395C87.4498 49.6578 87.444 49.6927 87.4424 49.7478C87.3667 52.3715 87.0883 54.3559 86.5398 56.1816C85.8345 58.5288 84.7458 60.3662 83.2114 61.7987C83.1948 61.8142 83.1798 61.8296 83.1648 61.8447C83.0857 61.9246 82.9773 62.0339 82.814 62.1272C82.476 62.3212 82.2636 62.5647 82.2539 63.1759C82.2347 64.4014 81.8033 65.5433 81.363 66.6077C80.8513 67.845 80.5574 69.2119 80.4101 71.0395C80.3306 72.0289 80.2704 73.0398 80.2123 74.0175C80.1444 75.1605 80.0742 76.3425 79.9719 77.5069C79.892 78.4152 79.7455 79.3223 79.6038 80.1995C79.5403 80.5935 79.4745 81.001 79.4161 81.3998C79.4089 81.4502 79.4006 81.5013 79.3923 81.5524C79.3734 81.6675 79.3558 81.7762 79.3536 81.867C79.2976 84.1595 79.4433 86.5129 79.7986 89.062C79.8596 89.4996 79.8773 89.9344 79.8945 90.3548C79.9052 90.6202 79.9154 90.8707 79.9357 91.1215C79.9395 91.1692 79.9503 91.2074 79.9574 91.2257C80.5508 91.9054 81.1586 92.5933 81.7467 93.2587C82.4657 94.0722 83.209 94.9135 83.9335 95.7481C84.2883 96.1567 84.5995 96.5891 84.9007 97.0073C84.9681 97.1007 85.0354 97.1942 85.1031 97.2873C85.3965 97.69 85.3644 98.0286 85.2858 98.2416C85.179 98.5307 84.9218 98.7599 84.5619 98.887C84.0629 99.063 83.6187 99.1632 83.2036 99.1933C82.7757 99.2241 82.3385 99.2397 81.9036 99.2397C80.5605 99.2397 79.1512 99.0898 77.7145 98.7941C76.3907 98.5217 76.2094 97.4498 76.1319 96.9922C76.0182 96.3208 76.0889 95.6113 76.3485 94.8231C76.5389 94.2444 76.4799 93.4997 75.9002 93.2321C75.7647 93.1696 75.6512 93.0977 75.5601 93.0398C75.5254 93.0179 75.4907 92.9956 75.4553 92.9752C74.6494 92.5107 74.2714 91.8718 74.2999 91.0224C74.3909 88.3335 74.4415 85.9573 74.4545 83.7577C74.4604 82.778 74.3449 81.7983 74.2437 81.0543C74.2103 80.8086 74.1317 80.5505 74.0485 80.2774C73.9434 79.9319 73.8347 79.5748 73.7973 79.1858C73.7294 78.4852 73.6985 77.7779 73.6686 77.0939C73.6431 76.5099 73.6166 75.906 73.5674 75.32C73.5401 74.9965 73.5049 74.6696 73.4653 74.3431C73.2988 74.7384 73.1273 75.1423 72.9495 75.5399C72.7384 76.0118 72.4894 76.4985 72.1656 77.0718C70.2196 80.5199 69.0009 83.5103 68.3301 86.4828C68.2089 87.0211 68.2057 87.6011 68.2023 88.2151C68.2012 88.4292 68.2001 88.6493 68.1934 88.8699C68.6428 89.3824 69.0946 89.8941 69.5464 90.4059C70.3463 91.312 71.1735 92.2489 71.9782 93.1797C72.414 93.6837 72.8094 94.2155 73.1916 94.7299L73.3417 94.9317C73.5806 95.2516 73.6395 95.6035 73.5072 95.9223C73.3764 96.2371 73.0781 96.4721 72.667 96.5836C72.041 96.7534 71.5211 96.843 71.0305 96.8655C69.3623 96.9418 67.6473 96.7954 65.936 96.4293C65.2615 96.285 64.7849 95.8949 64.5577 95.3012C64.2361 94.4604 64.2427 93.5686 64.5784 92.4946C64.6431 92.2879 64.9249 91.2388 64.1261 90.8688C64.0178 90.8189 63.9319 90.7642 63.8626 90.7203C63.8395 90.7056 63.8167 90.6902 63.7924 90.6773C62.8284 90.1617 62.437 89.4129 62.5957 88.3882C62.8107 86.9999 63.3565 85.7403 63.8843 84.5223L63.9309 84.4148C64.1472 83.915 64.3666 83.4163 64.5859 82.9174C64.8843 82.2389 65.1928 81.5373 65.4876 80.8459C66.0347 79.5619 66.2285 78.1378 66.08 76.4925C66.0339 75.9799 66.1516 75.5401 66.2725 75.1773C66.8174 73.5423 67.3926 71.7862 67.9064 70.0244C68.233 68.9032 68.529 67.7486 68.8153 66.6319C68.8867 66.3536 68.958 66.0753 69.0298 65.7972C68.5281 65.8342 68.0316 65.8707 67.5351 65.9064C64.2258 66.1451 61.5102 66.2563 58.989 66.2563C57.0653 66.2563 55.2855 66.192 53.5479 66.0598C49.2182 65.7304 45.7622 65.0199 42.6719 63.8239C41.6979 63.4468 40.758 62.9967 39.8007 62.5301C38.6303 61.9596 37.5408 61.6822 36.4699 61.6822C35.8917 61.6822 35.3086 61.7664 34.7366 61.9326C34.2316 62.0796 33.7367 62.3585 33.362 62.5849C32.953 62.8323 32.697 63.2094 32.5796 63.7373C32.3722 64.6703 32.1521 65.6158 31.9394 66.5301C31.6179 67.9118 31.2855 69.3403 30.9915 70.7481C30.6019 72.612 30.3975 74.5745 30.3667 76.7476C30.341 78.5596 30.7509 80.3495 31.173 82.0274C31.5091 83.3634 31.9986 85.1042 32.8073 86.7201C33.6489 88.4015 34.781 89.5486 36.2685 90.2268C36.6884 90.4179 37.0859 90.7213 37.387 91.0812C38.4151 92.3079 39.4534 93.583 40.5609 94.9789C40.8361 95.3258 41.0448 95.6945 41.2466 96.0508C41.2802 96.1102 41.3137 96.1695 41.3475 96.2285C41.5535 96.5883 41.5887 96.9201 41.4519 97.2147C41.3191 97.501 41.0495 97.7088 40.6508 97.8322C40.1837 97.9769 39.6719 98.0931 39.04 98.1977C38.3068 98.3192 37.58 98.3807 36.8795 98.3807C36.0277 98.3807 35.1844 98.2897 34.3734 98.1101C33.3028 97.873 33.1059 97.2274 33.1293 96.7275C33.1307 96.6971 33.1187 96.6281 33.1082 96.5674C33.0934 96.4825 33.0768 96.3863 33.0709 96.2776C33.0508 95.8993 32.9837 95.8609 32.8727 95.797C32.0902 95.3477 32.0409 94.4996 32.0173 94.0921C31.9973 93.7471 31.9951 93.38 32.0108 93.0004C32.0206 92.7649 31.9219 92.7106 31.8566 92.6747C31.3708 92.4072 30.9275 92.1838 30.5014 91.9915L30.3455 91.9212C28.6538 91.1593 28.3958 90.9279 28.1704 89.0777C27.8688 86.604 26.768 84.4314 25.6025 82.1312L25.5215 81.9714C24.5906 80.1333 23.5533 78.1325 22.2571 75.6747C21.9174 75.0303 21.8607 74.3747 22.0838 73.6704C22.2625 73.1063 22.444 72.5299 22.6269 71.9462C22.2595 72.2036 21.893 72.4647 21.5367 72.7287C20.7117 73.3398 20.118 74.0759 19.7215 74.9794C19.5103 75.4608 19.1924 75.8637 18.8851 76.2533C18.816 76.3407 18.7473 76.4279 18.6804 76.5155C18.3836 76.9042 18.076 77.2918 17.7787 77.6667C17.4603 78.0679 17.1312 78.4829 16.8192 78.8944C16.6766 79.0823 16.5877 79.3272 16.5214 79.7136C16.3449 80.7433 16.1256 81.7778 15.9136 82.7782C15.8692 82.9869 15.825 83.1956 15.7812 83.4045C15.5422 84.543 15.3123 86.0432 15.659 87.5493C15.9021 88.6072 15.7495 89.6296 15.6019 90.6183L15.5716 90.822C15.472 91.4974 15.5865 92.0517 15.9322 92.5667C16.2178 92.9921 16.4572 93.3836 16.6641 93.7638C16.9673 94.3208 17.0282 94.8705 16.8462 95.401C17.5317 96.4061 18.2618 97.4648 19.0743 98.6323C19.3649 99.05 19.2753 99.3989 19.1962 99.5696C19.0653 99.852 18.7804 100.063 18.4146 100.148L18.2787 100.179C17.7415 100.304 17.186 100.434 16.5933 100.47C16.2734 100.491 15.9489 100.5 15.6295 100.5ZM12.4711 98.7218C13.785 99.0341 15.1327 99.1502 16.4794 99.0673C16.7726 99.0494 17.0749 98.9955 17.3883 98.9279C16.6628 97.8832 16.002 96.9233 15.3765 96.0057C15.227 95.7856 15.1085 95.4107 15.2641 95.0754C15.333 94.9264 15.3884 94.7105 15.2006 94.3654C15.0138 94.0223 14.7957 93.6657 14.5337 93.2755C14.0062 92.4896 13.8204 91.6287 13.9658 90.6435L13.9964 90.4375C14.1332 89.5213 14.2624 88.6558 14.0715 87.8251C13.671 86.0854 13.9237 84.4139 14.1886 83.1521C14.2326 82.9424 14.2771 82.7331 14.3214 82.5237C14.531 81.535 14.7477 80.5126 14.9201 79.5067C14.9886 79.1069 15.1127 78.5881 15.4673 78.1207C15.7886 77.6971 16.1227 77.276 16.4458 76.8687C16.7392 76.4989 17.0426 76.1166 17.3316 75.738C17.4031 75.6446 17.4764 75.5516 17.5499 75.4584C17.8155 75.1218 18.0662 74.8037 18.209 74.4785C18.6977 73.3646 19.464 72.4158 20.4865 71.6585C21.161 71.1587 21.8598 70.6764 22.5356 70.21C22.8096 70.021 23.0834 69.8321 23.356 69.6416C23.5302 69.5195 23.7126 69.4908 23.7814 69.4801L23.7771 69.4813L25.0178 69.2013L24.7761 70.2948C24.7645 70.3471 24.7545 70.3978 24.7447 70.4473C24.7204 70.5701 24.6953 70.6968 24.6535 70.8314C24.3145 71.9233 23.9755 73.0041 23.6462 74.0437C23.5251 74.4264 23.551 74.7488 23.7305 75.0891C25.0301 77.5534 26.0705 79.5604 27.0049 81.405L27.0857 81.5647C28.25 83.8623 29.4538 86.2381 29.7819 88.9298C29.8508 89.496 29.9139 89.9421 30.0427 90.1062C30.1565 90.2513 30.5086 90.4099 31.0919 90.6725L31.249 90.7433C31.7165 90.9541 32.1992 91.1973 32.7245 91.4865C33.3366 91.8235 33.6584 92.3792 33.6303 93.0512C33.6163 93.3902 33.6181 93.7168 33.6357 94.0215C33.6651 94.5272 33.7435 94.6102 33.7669 94.6238C34.5289 95.0616 34.6609 95.6724 34.6896 96.2121C34.6916 96.2481 34.7008 96.3015 34.7106 96.3578C34.7291 96.4644 34.7517 96.5946 34.7498 96.7412C34.7574 96.7431 34.7656 96.7449 34.7743 96.7468C35.4547 96.8975 36.1633 96.9739 36.8804 96.9739C37.4792 96.9739 38.1039 96.9207 38.7374 96.8158C39.1263 96.7513 39.4586 96.6832 39.7569 96.6063C39.5862 96.3052 39.4218 96.0215 39.228 95.777C38.1285 94.3912 37.0982 93.1258 36.0781 91.9087C35.9248 91.7257 35.7153 91.5628 35.5172 91.4726C33.6892 90.6392 32.3173 89.2681 31.3226 87.2808C30.458 85.5531 29.9434 83.7262 29.5915 82.3276C29.1494 80.5702 28.7201 78.6905 28.7479 76.7302C28.7799 74.4777 28.9928 72.4387 29.3986 70.4967C29.6955 69.0753 30.0296 67.6397 30.3526 66.2514C30.5647 65.34 30.784 64.3976 30.9901 63.4705C31.1886 62.5777 31.6755 61.8912 32.4373 61.4302C32.901 61.1499 33.5227 60.8024 34.2231 60.5985C34.9614 60.384 35.7175 60.2752 36.4706 60.2752C37.8265 60.2752 39.1752 60.6115 40.5941 61.3031C41.517 61.7529 42.4208 62.186 43.3319 62.5387C46.253 63.6693 49.5443 64.3428 53.6898 64.6581C55.38 64.7868 57.1135 64.8494 58.9896 64.8494C61.465 64.8494 64.138 64.7397 67.4017 64.5043C68.0229 64.4597 68.6437 64.4138 69.2747 64.3671L71.014 64.239L70.8427 65.132C70.8352 65.1707 70.8289 65.2063 70.8231 65.2396C70.8095 65.317 70.7955 65.3969 70.7733 65.4816C70.6458 65.9671 70.5215 66.4524 70.3969 66.9376C70.1081 68.0641 69.8095 69.2288 69.4772 70.3696C68.9576 72.1518 68.3779 73.9216 67.8289 75.5688C67.7311 75.8618 67.671 76.1122 67.6954 76.3828C67.8626 78.2353 67.6376 79.855 67.0073 81.3343C66.7096 82.0326 66.3996 82.7375 66.0997 83.4193C65.8814 83.9158 65.6631 84.4123 65.4477 84.91L65.401 85.0178C64.8822 86.215 64.3922 87.3458 64.2019 88.5756C64.1211 89.0971 64.2867 89.289 64.6421 89.4791C64.712 89.5164 64.7717 89.5543 64.8196 89.5848C64.8442 89.6004 64.8778 89.6217 64.8903 89.628C66.1095 90.1927 66.5899 91.4325 66.1422 92.8634C65.8905 93.6687 65.8761 94.2837 66.0956 94.8575C66.158 95.0205 66.22 95.0411 66.3243 95.0634C67.8811 95.3964 69.4366 95.5299 70.9459 95.4606C71.1818 95.4498 71.4365 95.4148 71.7273 95.3527C71.3927 94.9033 71.0471 94.4449 70.6837 94.0245C69.884 93.0995 69.0593 92.1653 68.2618 91.2621C67.7982 90.7369 67.3345 90.2118 66.8728 89.6851C66.7277 89.5192 66.5579 89.2581 66.5706 88.953C66.5805 88.7103 66.5818 88.4666 66.5832 88.2085C66.5867 87.5561 66.5904 86.8814 66.7412 86.2123C67.44 83.1155 68.7017 80.0144 70.7119 76.4524C71.0149 75.9158 71.2463 75.4642 71.4402 75.0304C71.6442 74.5745 71.8422 74.1036 72.0337 73.648C72.2173 73.2116 72.4071 72.7601 72.6043 72.3167C72.7094 72.0804 72.8463 71.8708 72.9786 71.6682C73.0361 71.5802 73.096 71.4885 73.1561 71.3901L74.1104 69.8251L74.6525 71.5322C74.6682 71.582 74.6829 71.6229 74.6954 71.6582C74.7281 71.7505 74.7619 71.8459 74.7774 71.9645C74.8172 72.2706 74.8596 72.5767 74.9021 72.8828C75.0078 73.6442 75.1171 74.4314 75.1831 75.2173C75.2345 75.8279 75.2614 76.4443 75.2875 77.0403C75.3167 77.7086 75.347 78.3994 75.4117 79.0681C75.4374 79.3343 75.5235 79.6176 75.615 79.9176C75.7088 80.2261 75.8059 80.5449 75.8526 80.8891C75.9594 81.6731 76.0811 82.7086 76.0746 83.7649C76.0616 85.9759 76.0108 88.3633 75.9193 91.0635C75.9073 91.4231 76.0164 91.6098 76.3517 91.8031C76.4073 91.8352 76.4613 91.8692 76.5153 91.9034C76.5701 91.9382 76.6267 91.9741 76.6607 91.9897C77.6569 92.4495 78.4281 93.6234 77.9063 95.2096C77.7087 95.8099 77.6542 96.3112 77.735 96.7873C77.834 97.3727 77.952 97.397 78.0884 97.4251C79.4215 97.6994 80.6696 97.8327 81.9041 97.8327C82.2944 97.8327 82.6867 97.8188 83.0699 97.7911C83.2025 97.7816 83.3462 97.7578 83.5037 97.7194C83.2169 97.3213 82.9444 96.9447 82.6408 96.5949C81.9207 95.7651 81.1794 94.9263 80.4625 94.1151C79.8675 93.4418 79.2523 92.7457 78.6508 92.0566C78.3987 91.7679 78.3356 91.4082 78.3205 91.2195C78.2983 90.9448 78.2871 90.6702 78.2763 90.4045C78.2596 89.9956 78.2439 89.6091 78.1912 89.2311C77.8263 86.6153 77.6771 84.1968 77.7347 81.8373C77.7389 81.6625 77.7655 81.4992 77.7889 81.3552C77.7961 81.3113 77.8033 81.2673 77.8096 81.2234C77.8693 80.8147 77.9359 80.4026 78.0002 80.004C78.1384 79.1485 78.2812 78.2637 78.3573 77.3997C78.458 76.2527 78.5277 75.0795 78.5952 73.9449C78.6536 72.9611 78.7141 71.9436 78.7948 70.9413C78.9529 68.9793 79.275 67.496 79.839 66.1321C80.233 65.1795 80.6189 64.1651 80.6348 63.1564C80.6504 62.1719 81.0634 61.4556 81.897 60.9676C81.9109 60.9547 81.9239 60.9406 81.9373 60.927C81.9668 60.8972 81.9965 60.8675 82.027 60.8393C83.3731 59.5825 84.337 57.9424 84.9729 55.8262C85.4887 54.1094 85.7511 52.2236 85.8235 49.7121C85.8334 49.3753 85.9212 49.098 86.0845 48.8875C87.4987 47.0604 88.6519 45.0442 89.8061 42.9667C90.0884 42.4584 90.369 41.9492 90.6496 41.44C91.2521 40.3464 91.8751 39.2157 92.5078 38.1105C92.7652 37.6611 93.0737 37.2528 93.372 36.8579C93.4513 36.7529 93.5306 36.6479 93.6087 36.5425C93.9765 36.0458 94.5168 35.7723 95.1304 35.7723C95.3355 35.7723 95.5453 35.8037 95.7538 35.8656C95.8521 35.8948 95.9517 35.923 96.0516 35.9513C96.5298 36.0869 97.0717 36.2406 97.5582 36.5183C98.5543 37.0875 99.609 37.7487 100.878 38.5992C101.504 39.0193 102.122 39.4615 102.719 39.8892C103.177 40.2174 103.65 40.5567 104.12 40.8797C104.511 41.1495 104.69 41.478 104.684 41.9138C104.678 42.2745 104.672 42.6832 104.713 43.0613C104.769 43.5842 104.914 43.6322 105.349 43.6445C105.461 43.6476 105.586 43.6408 105.721 43.6243C106.186 43.5676 106.651 43.5079 107.115 43.4481C107.335 43.4198 107.554 43.3916 107.774 43.3636C107.826 43.357 107.879 43.352 107.932 43.3473C107.965 43.3443 107.998 43.3418 108.03 43.3371C108.777 43.2282 109.162 42.9915 109.358 42.5207C109.681 41.7445 109.952 40.9435 110.197 40.1933C110.306 39.8605 110.274 39.5507 110.095 39.2188C109.559 38.2211 109.058 37.1925 108.592 36.2245L108.348 35.7201C107.311 33.5746 106.239 31.356 105.557 29.0116C104.954 26.9394 103.963 25.052 102.529 23.2419C102.343 23.0073 102.158 22.7717 101.974 22.5369L101.401 21.8072L101.63 21.4321C102.072 20.706 102.44 19.5598 102.713 18.3937C102.697 18.413 102.68 18.432 102.664 18.4507C101.284 20.038 100.859 20.4955 100.237 20.4955C100.169 20.4955 100.102 20.4889 100.036 20.4757L99.5996 20.3877L99.4536 20.0196C99.2092 19.4034 99.4149 18.2084 99.7826 16.3136C99.7948 16.2508 99.8074 16.1857 99.8203 16.1193C99.5403 16.4119 99.239 16.6994 98.9451 16.9801C98.3865 17.5132 97.8088 18.0645 97.4661 18.5745C97.2203 18.9402 97.1709 19.3091 97.1137 19.7362C97.0261 20.3899 96.9171 21.2034 95.9443 21.8324C94.7929 22.5768 93.445 23.1818 91.8234 23.6821C90.2518 24.1667 88.5883 24.7232 87.0699 25.5089C81.6735 28.3011 76.017 31.73 69.2687 36.2995C68.9553 36.5117 68.6136 36.6466 68.2911 36.7607C67.9739 36.8731 67.6534 36.9774 67.3434 37.0783C66.9088 37.2198 66.4981 37.3535 66.0946 37.5078C63.8239 38.3763 61.7811 39.5806 59.4128 41.1217C58.7971 41.5222 58.118 41.7746 57.3367 41.8936C56.4645 42.0264 55.5811 42.0909 54.6357 42.0909C53.3741 42.0909 52.014 41.9717 50.4776 41.7264C47.275 41.2152 44.1689 40.2153 40.9818 38.6698C38.5412 37.4861 36.2377 36.6493 33.9398 36.1116C32.1301 35.6882 30.3547 35.4736 28.663 35.4736C26.2368 35.4736 23.8713 35.9166 21.632 36.7901C21.4002 36.8805 21.172 36.9123 20.9597 36.933C19.1523 37.1112 17.6606 37.5662 16.3999 38.3242C14.7502 39.3161 13.4443 40.7091 12.4075 42.5827C10.4483 46.1243 9.99576 50.1625 9.55814 54.0677C9.50398 54.5515 9.44972 55.0351 9.39293 55.5176C9.22448 56.946 9.0285 58.394 8.839 59.7943C8.34965 63.409 7.8436 67.147 7.77619 70.839C7.74167 72.7266 7.55388 74.4886 7.37218 76.1926C7.15838 78.1982 6.96766 79.9865 7.06383 81.6035C7.55368 81.0218 8.20034 80.1385 8.87615 78.989C9.64661 77.6783 10.9873 75.0909 11.3086 72.4876L12.9232 72.5379C13.0695 76.1678 13.0824 80.9574 11.8737 85.8142C11.3242 88.0226 11.1847 89.0473 11.907 91.0619C11.9488 91.1784 11.9897 91.2904 12.0295 91.3989C12.3683 92.3245 12.6608 93.1239 12.5042 94.3029C12.442 94.7717 12.2386 95.1416 12.0592 95.4679C11.8854 95.784 11.7476 96.0345 11.7571 96.3266C11.7749 96.3907 11.8832 96.5518 11.9553 96.6593C12.1773 96.9898 12.4814 97.4424 12.4635 98.0118C12.4605 98.1061 12.4641 98.2076 12.4678 98.315C12.4719 98.4413 12.4768 98.5784 12.4711 98.7218ZM14.9353 69.8025L13.796 69.3851L13.7961 68.8295C13.7963 68.7675 13.7965 68.7054 13.7958 68.6435C13.7611 64.9085 13.7491 60.9367 14.0095 57.0361C14.207 54.0781 14.4699 51.5988 15.1114 49.1135C15.1586 48.9303 15.2318 48.7127 15.4167 48.49L16.6974 46.9471L16.9833 49.9038C17.1791 51.9467 17.4011 54.262 17.9885 56.4525C18.3485 57.7948 18.7975 58.9089 19.3612 59.8584C20.0918 61.0894 20.1767 62.3936 19.6134 63.7344C19.41 64.2187 19.1792 64.6688 18.9275 65.0723C18.066 66.4531 16.9541 67.6401 15.8788 68.788C15.6916 68.9879 15.5043 69.1878 15.3184 69.3887L14.9353 69.8025ZM15.8683 54.205C15.771 55.1297 15.6949 56.0938 15.6265 57.1175C15.4049 60.4355 15.3828 63.8182 15.403 67.0605C16.1842 66.2073 16.9083 65.3559 17.5034 64.402C17.7174 64.0589 17.9154 63.672 18.0917 63.2523C18.4993 62.2821 18.4436 61.3828 17.9214 60.503C17.2957 59.4491 16.8016 58.2285 16.4108 56.7716C16.1829 55.9209 16.0081 55.0592 15.8683 54.205Z" fill="#05A099"/>
<path d="M112.945 99.1818C112.745 99.1818 112.568 99.1538 112.403 99.0959C111.817 98.8902 111.474 98.3343 111.568 97.7439C111.619 97.4291 111.859 97.1191 112.168 96.9719C112.442 96.8408 112.784 96.677 113.175 96.5901C113.425 96.5346 113.658 96.377 113.928 96.1945C114.073 96.0958 114.224 95.9937 114.394 95.8961C115.135 95.4705 115.885 95.1025 116.717 94.7014C116.558 93.8942 116.408 93.0759 116.263 92.2834C116.137 91.5985 116.007 90.89 115.873 90.196C115.621 88.8926 115.34 87.5166 115.013 85.9898C115.002 85.9656 114.969 85.9142 114.945 85.8758C114.886 85.7846 114.814 85.671 114.759 85.5342C114.725 85.4496 114.691 85.3653 114.656 85.281C114.495 84.886 114.328 84.4775 114.214 84.0442C114.166 83.8618 114.142 83.683 114.128 83.5075L109.502 83.8132L109.581 82.9907C109.601 82.784 109.62 82.5824 109.638 82.3844C109.677 81.9734 109.714 81.5771 109.755 81.1811L109.852 80.2447C110.034 78.4795 110.222 76.6541 110.415 74.8586C110.657 72.588 110.902 70.3608 111.14 68.239C111.214 67.5811 111.296 66.9141 111.374 66.269C111.523 65.0454 111.677 63.7801 111.786 62.5382C111.844 61.8785 111.83 61.2171 111.814 60.5167C111.813 60.4763 111.812 60.4356 111.811 60.3948C111.058 60.3817 110.475 60.0176 110.049 59.6997C109.029 58.9379 108.13 57.9996 107.3 56.8316C106.875 56.2339 106.432 55.6295 106.004 55.045C105.73 54.6717 105.457 54.2983 105.185 53.9236C105.082 53.7813 104.98 53.7077 104.707 53.7004C104.275 53.6891 103.854 53.6473 103.447 53.607C103.336 53.5959 103.225 53.5849 103.114 53.5745C102.808 53.5462 102.569 53.4636 102.382 53.3221C101.869 52.9314 101.263 52.4663 100.656 51.975C100.506 51.8541 100.394 51.728 100.295 51.6169C100.237 51.5516 100.182 51.4901 100.134 51.4464C99.9138 51.2475 99.612 50.9746 99.6596 50.5684C99.674 50.4458 99.7165 50.3415 99.7744 50.2521L99.4138 49.4486L100.699 49.1901C100.89 49.0335 101.148 48.9434 101.438 48.9434C101.636 48.9434 101.843 48.9856 102.053 49.0685C102.17 49.1147 102.285 49.163 102.398 49.212C102.625 49.0621 102.882 49.028 103.07 49.028C103.226 49.028 103.393 49.0508 103.613 49.1019L103.67 49.1151C103.917 49.1726 104.15 49.2268 104.35 49.2364C105.28 49.2812 106.044 49.6211 106.606 49.9122C106.837 50.0322 107.039 50.2086 107.175 50.4091C107.711 51.2032 108.417 51.9602 109.396 52.7919C109.708 53.057 110.106 53.2795 110.527 53.5151L110.619 53.5664C110.885 53.7152 111.163 53.8545 111.454 53.9969C111.799 53.3835 112.143 52.7693 112.487 52.1552C112.942 51.3436 113.397 50.5318 113.855 49.7214C114.042 49.3906 114.275 48.9794 114.554 48.6002C114.977 48.0247 115.649 47.7426 116.426 47.8238C116.486 47.2586 116.402 46.7339 116.174 46.2626C116.162 46.2393 116.11 46.1867 116.064 46.1631C115.767 46.0091 115.456 45.8708 115.126 45.7245C114.945 45.644 114.764 45.5635 114.584 45.4802L114.497 45.4399C114.294 45.3465 114.063 45.2405 113.844 45.0874C113.117 44.5803 112.992 43.7932 113.532 43.1288C113.543 43.1154 113.561 43.0933 113.577 43.072C113.511 42.8093 113.611 42.5848 113.697 42.4279C113.659 42.1421 113.764 41.8167 114.205 41.5126C114.131 41.2624 114.149 41.0278 114.259 40.8121C114.411 40.5155 114.709 40.3088 115.144 40.1978C115.208 40.1815 115.272 40.1661 115.337 40.1506C115.358 40.1454 115.379 40.1405 115.399 40.1356C115.369 39.9142 115.443 39.6691 115.609 39.3422C116.396 37.7915 118.215 36.7899 120.244 36.7899C121.037 36.7899 121.803 36.9412 122.522 37.2396C123.204 37.5228 123.746 37.7278 124.337 37.8742C126.125 38.3167 127.364 39.8303 127.35 41.555C127.342 42.5148 127.205 43.4685 127.072 44.3908L127.046 44.5671C126.955 45.2009 126.835 45.8356 126.719 46.4493C126.485 47.6897 126.264 48.8614 126.248 50.0617C126.231 51.3672 126.254 52.6998 126.276 53.9884C126.284 54.4189 126.291 54.8492 126.297 55.2796C126.315 56.5681 126.281 58.2671 125.852 59.9837L125.847 60.0025C125.609 60.9551 125.345 61.1678 124.185 61.3411L123.415 61.4561L123.396 61.3748C122.955 61.3887 122.57 61.3076 122.27 61.1472L122.246 61.1467C122.127 61.1448 122.016 61.1358 121.911 61.1198C121.909 61.132 121.908 61.1442 121.906 61.1565C121.83 61.6693 121.977 62.1298 122.382 62.6493C122.62 62.9542 122.845 63.2666 123.063 63.5687C123.371 63.9968 123.663 64.4011 123.987 64.7864C124.801 65.7547 125.385 66.8376 125.772 68.0971C126.092 69.1349 126.412 70.1905 126.721 71.2114C127.077 72.3886 127.446 73.6058 127.816 74.8002L127.906 75.0938C128.208 76.0769 128.493 77.0054 129.014 77.8494C129.211 78.1655 129.134 78.5309 129.008 78.7472C128.896 78.9387 128.779 79.1227 128.657 79.313L129.687 80.6069L129.497 80.9542C129.466 81.0289 129.386 81.1976 129.183 81.3257C128.001 82.0777 126.813 82.5469 125.553 82.7588C125.399 82.7849 125.226 82.7938 125.056 82.7872C124.905 82.7808 124.452 82.7619 124.138 82.4482C124.123 82.4332 124.109 82.4179 124.095 82.4026C123.841 82.477 123.587 82.5515 123.334 82.6265C123.305 82.7088 123.269 82.8189 123.274 82.8534C124.451 85.3546 124.822 88.0978 124.376 91.0065C124.164 92.3918 124.249 93.8257 124.637 95.3902C124.709 95.6791 124.748 95.9967 124.756 96.3606C124.771 97.0864 124.378 97.5361 123.554 97.7353C123.283 97.8007 123.002 97.8326 122.694 97.8326C122.334 97.8326 121.997 97.7892 121.672 97.7441C121.608 98.7774 120.756 98.9959 120.237 99.0322C119.485 99.0848 118.824 99.0584 118.245 98.9536C117.978 98.9053 117.693 98.8819 117.375 98.8819C116.914 98.8819 116.443 98.9306 115.945 98.9823L115.719 99.0055C115.272 99.0508 114.835 99.0513 114.412 99.0517C114.23 99.0519 114.057 99.052 113.885 99.0556C113.808 99.0828 113.691 99.1182 113.548 99.1291C113.495 99.1331 113.441 99.1403 113.386 99.1472C113.256 99.1632 113.108 99.1818 112.945 99.1818ZM117.376 97.4748C117.806 97.4748 118.198 97.5079 118.576 97.5761C118.99 97.6509 119.483 97.6703 120.056 97.6331C120.057 97.6239 120.057 97.6142 120.056 97.6038C120.055 97.4842 120.041 97.3559 120.025 97.2073C120.017 97.1307 120.008 97.052 120.001 96.9704L119.921 96.0837L121.148 96.2498C121.277 96.2677 121.397 96.2843 121.518 96.2992C121.631 96.3131 121.744 96.3289 121.857 96.3448C122.155 96.3863 122.436 96.4255 122.694 96.4255C122.853 96.4255 122.992 96.4105 123.119 96.3797C123.125 96.3783 123.131 96.3769 123.136 96.3755C123.13 96.1088 123.103 95.8832 123.054 95.6866C122.626 93.9605 122.534 92.369 122.771 90.8205C123.179 88.1583 122.844 85.6565 121.775 83.3847C121.548 82.9024 121.693 82.4816 121.789 82.2032C121.815 82.1287 121.839 82.0584 121.85 82.005C121.891 81.8011 122.045 81.5233 122.545 81.3734C123.046 81.2244 123.546 81.0782 124.047 80.9319L125.496 80.5076V81.3306C126.229 81.1805 126.942 80.9156 127.655 80.5276L126.753 79.3937L126.995 79.0123C127.055 78.9177 127.114 78.8266 127.171 78.7377C127.27 78.5838 127.365 78.436 127.455 78.2911C126.928 77.3674 126.63 76.3967 126.341 75.4557L126.252 75.1652C125.881 73.9671 125.512 72.7479 125.155 71.569C124.846 70.5494 124.526 69.4952 124.208 68.4602C123.873 67.3716 123.372 66.4411 122.679 65.6156C122.321 65.1899 122 64.7453 121.69 64.3152C121.48 64.0235 121.262 63.7218 121.041 63.4376C120.416 62.6361 120.174 61.8314 120.299 60.9775C120.31 60.9038 120.311 60.8093 120.311 60.7092C120.312 60.3616 120.314 59.8416 120.791 59.3877C120.799 59.3689 120.81 59.3437 120.818 59.3235C120.84 59.2698 120.868 59.2031 120.905 59.1334L121.91 57.222L122.388 59.1016L122.739 58.6858L122.963 59.3418V59.1032L124.413 59.031C124.671 57.6732 124.692 56.343 124.678 55.2966C124.672 54.8677 124.664 54.4386 124.657 54.0096C124.634 52.7116 124.611 51.3696 124.629 50.0453C124.646 48.7386 124.888 47.459 125.121 46.2215C125.235 45.6207 125.352 44.9995 125.439 44.3924L125.465 44.2157C125.592 43.3338 125.724 42.4218 125.731 41.5449C125.739 40.4501 124.984 39.4969 123.893 39.2269C123.117 39.0347 122.418 38.7555 121.824 38.5087C121.325 38.3016 120.793 38.1965 120.244 38.1965C118.859 38.1965 117.622 38.8671 117.093 39.9053L117.66 40.3773L117.121 40.8846C116.76 41.2246 116.333 41.3647 115.958 41.4599L116.023 41.5607L115.948 41.8283C115.857 42.1488 115.625 42.3505 115.43 42.4802L115.311 42.7468C115.276 42.8266 115.238 42.8957 115.205 42.9538C115.274 43.4263 114.998 43.7653 114.855 43.9407C114.845 43.9524 114.838 43.9626 114.832 43.971C114.839 43.9767 114.848 43.9834 114.859 43.9908C114.957 44.0596 115.101 44.1258 115.254 44.1959L115.349 44.2395C115.52 44.3187 115.692 44.3953 115.864 44.4718C116.202 44.6219 116.552 44.7772 116.894 44.9546C117.232 45.1294 117.521 45.4147 117.667 45.7174C118.026 46.4592 118.143 47.2755 118.015 48.1439C117.87 49.1247 117.151 49.2711 116.736 49.2711C116.605 49.2711 116.459 49.2572 116.291 49.2284C116.245 49.2204 116.202 49.2164 116.165 49.2164C116.098 49.2164 116.023 49.2164 115.919 49.3572C115.689 49.6702 115.487 50.0268 115.309 50.3415C114.852 51.1502 114.398 51.9606 113.944 52.7708C113.598 53.3884 113.252 54.0062 112.904 54.6232C112.805 54.8 112.697 54.9693 112.602 55.1187C112.563 55.1801 112.525 55.2396 112.49 55.2967L112.094 55.934L111.372 55.5726C111.206 55.4892 111.041 55.4088 110.877 55.3291C110.502 55.1463 110.115 54.9573 109.742 54.7485L109.651 54.6977C109.181 54.4346 108.694 54.1624 108.264 53.7978C107.179 52.8762 106.389 52.0257 105.778 51.1211C105.781 51.1244 105.775 51.1194 105.772 51.1176C105.171 50.8063 104.718 50.6629 104.261 50.641C103.983 50.6278 103.719 50.5789 103.476 50.5254L103.365 51.2158L102.355 50.7729C102.252 50.7274 102.148 50.6811 102.045 50.6347C101.901 50.5699 101.762 50.5073 101.624 50.4484L101.604 50.4524L101.707 50.6814L101.578 50.7581C101.645 50.8329 101.708 50.9033 101.761 50.946C102.31 51.3903 102.862 51.8156 103.341 52.1809C103.438 52.1901 103.534 52.1997 103.631 52.2092C104.022 52.248 104.392 52.2848 104.756 52.2943C105.543 52.3152 106.149 52.6114 106.557 53.1748C106.827 53.5474 107.099 53.9186 107.371 54.2899C107.802 54.8784 108.248 55.487 108.678 56.0929C109.419 57.136 110.214 57.967 111.106 58.6334C111.434 58.8791 111.665 58.9886 111.853 58.9886C111.94 58.9886 112.035 58.9661 112.144 58.9201C112.264 58.8703 112.386 58.8464 112.514 58.8464C112.592 58.8464 112.653 58.8555 112.686 58.8604L113.412 58.9259L113.42 59.5613C113.42 59.8677 113.427 60.1839 113.434 60.4897C113.449 61.1923 113.465 61.9188 113.402 62.6456C113.291 63.9081 113.135 65.1837 112.985 66.4173C112.907 67.0596 112.826 67.7238 112.753 68.3761C112.514 70.4956 112.27 72.7206 112.028 74.9891C111.836 76.7825 111.647 78.6066 111.465 80.3706L111.369 81.3071C111.335 81.6305 111.304 81.9539 111.273 82.2855L115.649 81.9966L115.706 82.702C115.717 82.8399 115.723 82.9707 115.728 83.097C115.738 83.3411 115.746 83.552 115.793 83.7315C115.886 84.0847 116.03 84.4373 116.183 84.8106C116.218 84.8975 116.254 84.9844 116.289 85.0713C116.298 85.0945 116.333 85.1499 116.362 85.1944C116.443 85.3226 116.555 85.4981 116.603 85.7195C116.933 87.2602 117.216 88.6481 117.47 89.9631C117.606 90.6632 117.736 91.3745 117.862 92.0625C118.012 92.8811 118.168 93.7274 118.331 94.5561C118.507 95.447 117.775 95.8003 117.534 95.9166C116.72 96.3091 115.99 96.6668 115.288 97.0696C115.17 97.1372 115.05 97.2185 114.923 97.3047C114.757 97.4169 114.581 97.5363 114.383 97.6447C114.392 97.6447 114.402 97.6447 114.411 97.6447C114.805 97.6442 115.177 97.6438 115.532 97.6079L115.754 97.5851C116.277 97.5309 116.818 97.4748 117.376 97.4748Z" fill="#05A099"/>
</svg>
