<svg width="50" height="50" viewBox="0 0 50 50" fill="none" xmlns="http://www.w3.org/2000/svg">
<path fill-rule="evenodd" clip-rule="evenodd" d="M25.2224 0.00270537C28.8996 0.00270537 32.5767 -0.00470934 36.2539 0.0050116C39.2838 0.01303 42.0162 0.943054 44.4263 2.77658C47.0556 4.77695 48.7465 7.40764 49.5169 10.6248C49.747 11.5856 49.8626 12.5643 49.8625 13.5554C49.8612 21.0104 49.8764 28.4654 49.8545 35.9203C49.8457 38.904 48.8837 41.5903 47.0977 43.972C45.7193 45.8102 43.9769 47.209 41.894 48.1745C40.6547 48.749 39.3594 49.1459 38.0003 49.2974C37.3426 49.3707 36.6783 49.4182 36.017 49.419C28.7107 49.4274 21.4043 49.4346 14.0981 49.4193C11.1055 49.4131 8.40538 48.4685 6.02089 46.6661C3.58611 44.8258 1.93956 42.4223 1.08624 39.4819C0.743019 38.2992 0.562724 37.0914 0.562724 35.8581C0.562724 28.4375 0.553192 21.0168 0.567272 13.5962C0.573188 10.498 1.56292 7.72091 3.45928 5.28085C5.18291 3.06293 7.39253 1.52049 10.0627 0.651536C11.3833 0.221728 12.7393 0.00226612 14.1294 0.00248581C17.827 0.00314485 21.5248 0.00270537 25.2224 0.00270537ZM11.5245 24.7218C11.5169 32.2896 17.6375 38.3491 25.0358 38.4376C32.7072 38.5295 38.8983 32.2977 38.9043 24.7238C38.9102 17.1569 32.7459 10.9296 25.0999 10.9878C17.6228 11.0446 11.5027 17.1675 11.5245 24.7218ZM41.6466 10.9751C43.1635 10.9762 44.3817 9.7527 44.3776 8.23216C44.3733 6.71328 43.1761 5.51019 41.6582 5.49948C40.1415 5.48872 38.9221 6.70406 38.9174 8.2309C38.9127 9.75242 40.1276 10.974 41.6466 10.9751Z" fill="#05A099"/>
<path fill-rule="evenodd" clip-rule="evenodd" d="M25.206 32.9476C20.72 32.9759 16.9118 29.2373 16.993 24.5507C17.0691 20.1584 20.7173 16.3673 25.4233 16.4744C29.793 16.5738 33.5325 20.2298 33.4289 24.913C33.3313 29.3315 29.6865 32.9704 25.206 32.9476Z" fill="#05A099"/>
</svg>
