<svg width="128" height="110" viewBox="0 0 128 110" fill="none" xmlns="http://www.w3.org/2000/svg">
<path d="M73.3439 107.389C71.7953 107.389 70.8348 106.671 70.4248 105.201C70.3692 105.207 70.3136 105.214 70.2579 105.221C69.5967 105.3 68.913 105.382 68.2267 105.422C68.1551 105.426 68.0844 105.428 68.0142 105.428C66.9427 105.428 66.1086 104.941 65.4109 104.485C64.1623 103.668 62.5023 102.652 60.7341 102.048C58.4239 101.259 55.9925 100.647 53.6411 100.055C53.1923 99.9424 52.7436 99.8295 52.2956 99.7153L52.2793 99.7112C50.3901 99.2299 48.4366 98.7324 46.8397 97.3097C44.9264 95.6046 44.6039 93.5932 45.8814 91.3308C46.6968 89.887 46.5767 88.28 46.3194 86.8713C46.2566 86.8383 46.1643 86.7965 46.0467 86.7558C45.3441 86.5134 44.6102 86.2909 43.9006 86.0757C42.4437 85.634 40.9373 85.1772 39.5312 84.5029C33.526 81.6223 30.076 76.9476 29.2715 70.604C28.6686 70.7868 28.2016 71.2467 27.8025 72.0329C27.0671 73.4813 26.7153 75.1447 26.6619 77.4267C26.6111 79.5884 26.4423 82.4231 25.5796 85.1782C24.5461 88.4782 22.8313 91.4017 20.4828 93.8671C20.2704 94.09 20.0499 94.2802 19.7946 94.5005C19.6741 94.6045 19.5444 94.7165 19.4031 94.8428L18.5353 95.6195L18.163 94.5176C17.999 94.032 17.8323 93.555 17.6712 93.0937C17.3185 92.0836 16.9852 91.1295 16.6956 90.1432C15.2044 85.0637 14.9888 80.8708 16.0173 76.9481C17.4879 71.3399 21.1413 67.3661 26.8761 65.1371C28.3664 64.5577 29.5336 63.8627 30.3858 62.3532C31.7747 59.8938 33.6038 57.6433 35.8222 55.6639C38.1655 53.5729 40.8236 52.5126 43.7227 52.5126C44.4667 52.5126 45.2397 52.5825 46.02 52.7205C48.0927 53.0869 49.9639 53.3903 51.8722 53.3903C52.462 53.3903 53.0376 53.3597 53.5829 53.2996C54.3639 53.2136 55.1431 53.0788 55.9682 52.9363C56.3438 52.8713 56.7319 52.8043 57.1287 52.7405C57.1751 52.7299 57.2193 52.7193 57.2614 52.7089C57.0784 52.6406 56.9094 52.5827 56.8135 52.5499C56.7128 52.5153 56.6233 52.4846 56.551 52.4582C55.0881 51.9243 53.2726 51.4149 51.5167 50.9222C49.5752 50.3775 47.5677 49.8142 45.9315 49.1928C45.5359 49.0427 45.1821 48.8451 44.8398 48.6539C44.6329 48.5384 44.4374 48.4292 44.2413 48.3351C42.6554 47.5745 41.4989 46.2948 40.9851 44.7318C40.4606 43.1368 40.6408 41.3794 41.4925 39.7833C44.381 34.3703 47.701 30.0807 51.6421 26.6691C53.418 25.1318 55.5643 24.2785 57.64 23.4533C57.9989 23.3107 58.3573 23.1683 58.7132 23.0224C59.2629 22.7972 59.8114 22.6042 60.383 22.4081C59.648 21.5728 59.462 20.5412 59.8618 19.4708C60.6765 17.2897 62.4458 15.8507 65.1204 15.1938C65.7161 15.0474 66.3006 14.9733 66.8578 14.9733C69.2904 14.9733 71.2619 16.3544 72.559 18.9675C73.0323 19.9203 73.3112 20.9448 73.581 21.9357L73.6433 22.1646C73.7553 22.5736 73.7283 22.9692 73.7022 23.3517C73.6913 23.5099 73.6812 23.6593 73.6802 23.8105L73.674 24.7573L71.4304 24.2621C71.316 24.5735 71.1968 24.8923 71.0651 25.2062C70.4033 26.7831 69.4265 27.7987 68.0814 28.3074C68.4975 29.8746 68.8125 31.1512 69.0718 32.3206C69.2127 32.9563 69.3026 33.6419 69.3472 34.417C69.5235 37.4911 70.327 37.8161 72.391 38.0069C72.4151 37.9351 72.4393 37.8636 72.4632 37.7928C72.649 37.2431 72.8411 36.6748 72.9429 36.1223C73.9918 30.4316 75.5552 26.0703 77.8629 22.3967C79.86 19.2181 82.2307 16.7486 84.9093 15.0566C87.7653 13.2527 91.0639 12.2708 94.7147 12.138C94.7598 12.1191 94.8308 12.0683 94.8604 12.0334C95.5094 10.6903 96.1345 9.31938 96.7962 7.86833C97.0124 7.39428 97.2333 6.9099 97.4614 6.41241L98.2084 4.78326L98.8727 6.44761C99.0832 6.97552 99.2841 7.4862 99.4798 7.98398C99.9474 9.17313 100.389 10.2964 100.864 11.3928C100.968 11.6344 101.146 11.8805 101.333 12.1409C101.508 12.3847 101.69 12.6368 101.844 12.9253C102.126 13.4509 102.425 13.9847 102.715 14.501C103.491 15.8833 104.293 17.3126 104.887 18.8233C106.672 23.3686 108.303 28.0659 109.742 32.2103C110.025 33.025 110.349 34.2802 110.289 35.6333C110.217 37.2559 109.129 38.4919 107.378 38.9392C106.505 39.1623 105.8 39.2662 105.16 39.2662C103.91 39.2662 102.883 38.8726 102.021 38.063C101.601 37.6684 101.33 37.1916 101.069 36.7304C100.954 36.5286 100.846 36.3379 100.731 36.1645C100.685 36.096 100.645 36.0284 100.607 35.9631C100.587 35.9288 100.561 35.8843 100.537 35.8472C98.5088 35.2409 97.0803 33.8222 95.7897 32.4172C95.7843 32.4113 95.7789 32.4052 95.7734 32.3993C95.8507 32.7833 95.922 33.1703 95.9821 33.5587C96.768 38.629 96.6939 43.6951 96.5389 48.8713C96.5334 49.0506 96.5805 49.219 96.6113 49.273C98.8981 51.5386 99.7764 54.3422 99.2884 57.8299C99.6182 57.74 99.9483 57.6513 100.278 57.5625C101.483 57.2386 102.728 56.9038 103.927 56.5232C104.592 56.3123 105.27 56.2054 105.944 56.2054C108.431 56.2054 110.842 57.7107 112.087 60.0403C113.152 62.033 112.237 63.8783 111.321 65.2633C110.233 66.9093 108.798 68.3973 106.668 70.0875C106.425 70.2803 106.195 70.576 106.038 70.8989C105.062 72.8999 103.488 74.5051 101.083 75.9511C100.496 76.3042 99.881 76.5965 99.2862 76.8792C98.8679 77.0779 98.4727 77.2657 98.0849 77.4736C97.8687 77.5894 97.6527 77.7535 97.4241 77.9273C97.2697 78.0448 97.1099 78.1662 96.9381 78.2821C96.8077 78.3702 96.6782 78.4616 96.5486 78.5531C96.1398 78.8418 95.7171 79.1401 95.232 79.3672C94.9113 79.5171 94.6007 79.5931 94.3087 79.5931C93.9257 79.5931 92.9995 79.4477 92.6717 78.1021C92.5837 77.741 92.2812 77.0492 92.1203 76.7479C91.6844 76.4986 91.3712 76.017 91.2076 75.7154C91.0092 75.3499 90.7074 74.6494 90.9153 74.0665C91.035 73.7293 91.3226 73.4138 91.6476 73.2641C91.748 73.2179 91.7899 73.1822 91.8039 73.1684C91.8095 73.1214 91.7961 72.9944 91.6742 72.6533C91.6375 72.5507 91.6121 72.4904 91.595 72.4549C91.5743 72.4536 91.545 72.4534 91.5147 72.4549C90.2588 72.5076 89.441 71.8061 88.8654 71.0994C85.0704 74.2356 80.4272 75.3399 75.9769 76.1962C70.9212 77.1688 65.3477 77.7032 58.9379 77.8301C58.922 77.8304 58.906 77.8308 58.89 77.8314C58.9032 77.8901 58.9163 77.9486 58.9295 78.0066C59.0966 78.747 59.2694 79.5124 59.3829 80.2819C59.8824 83.6739 59.5868 87.2676 58.5046 90.9635C58.0038 92.6731 58.4566 94.0733 60.0183 95.6456C61.2396 96.8745 62.8421 97.4976 64.781 97.4975C64.9571 97.4975 65.1375 97.492 65.3173 97.4814C65.5559 97.4673 65.7967 97.4599 66.0328 97.4599C68.8306 97.4599 71.4055 98.424 74.1362 100.494C74.36 100.663 74.5393 100.736 74.6323 100.747C76.7445 100.998 78.0433 102.365 79.0352 103.669C79.4467 104.212 79.3049 105.118 79.0446 105.565C78.7828 106.013 78.2397 106.53 77.6164 106.674C77.4767 106.707 77.3366 106.74 77.1963 106.773C76.0205 107.049 74.8047 107.335 73.5613 107.384C73.4873 107.388 73.4147 107.389 73.3439 107.389ZM71.6906 103.52L71.7945 104.253C71.9878 105.618 72.4481 105.859 73.3439 105.859C73.395 105.859 73.4472 105.858 73.5008 105.855C74.5964 105.812 75.7389 105.543 76.844 105.284C76.9857 105.25 77.1271 105.217 77.2684 105.184C77.3852 105.157 77.6115 104.978 77.718 104.796C77.745 104.743 77.7657 104.608 77.7614 104.528C76.9355 103.452 75.9577 102.446 74.4515 102.267C73.9494 102.208 73.4978 101.933 73.2074 101.713C70.5513 99.6996 68.0947 98.8497 65.4089 99.0098C65.1989 99.0222 64.9877 99.0285 64.7814 99.0285C62.4509 99.0286 60.427 98.2314 58.9281 96.7231C56.3604 94.1383 56.6158 91.9535 57.0313 90.5351C58.0511 87.052 58.3315 83.6775 57.8643 80.505C57.7593 79.7927 57.6004 79.0887 57.4321 78.3432C57.355 78.0016 57.2753 77.6482 57.2005 77.2919L57.0214 76.4371L57.895 76.3723C58.0122 76.3636 58.1227 76.3539 58.2287 76.3445C58.4601 76.3242 58.6786 76.305 58.9076 76.3005C65.229 76.1753 70.7172 75.6499 75.6861 74.6939C80.3614 73.7944 84.8574 72.7136 88.4708 69.4134L89.1177 68.8226L89.619 69.5402C90.2975 70.5108 90.7366 70.9583 91.4495 70.9262C91.4867 70.9246 91.5227 70.9239 91.5575 70.9239C92.6852 70.9239 92.979 71.7451 93.1204 72.1398C93.295 72.6287 93.7516 73.9069 92.3956 74.6032C92.4603 74.8542 92.7067 75.2852 92.8682 75.4096C93.2055 75.5163 93.3892 75.8045 93.7057 76.5042C93.8076 76.7294 94.0561 77.3006 94.1635 77.7412C94.218 77.965 94.2828 78.0442 94.301 78.063C94.324 78.0639 94.4073 78.0629 94.5801 77.9821C94.9415 77.8129 95.2912 77.566 95.6616 77.3045C95.7998 77.2069 95.9381 77.1094 96.0776 77.0152C96.2138 76.9233 96.3498 76.8201 96.4936 76.7106C96.7596 76.5084 97.0349 76.2992 97.358 76.1261C97.7786 75.9007 98.2093 75.696 98.6258 75.4981C99.2131 75.219 99.7678 74.9554 100.291 74.641C102.43 73.3548 103.817 71.9531 104.658 70.2302C104.915 69.7013 105.29 69.2255 105.712 68.8905C107.71 67.3054 109.044 65.927 110.04 64.4213C111.081 62.8477 111.281 61.7871 110.733 60.7605C109.751 58.9234 107.871 57.7363 105.945 57.7363C105.429 57.7363 104.907 57.819 104.393 57.9819C103.161 58.373 101.899 58.7124 100.678 59.0406C100.224 59.1628 99.7688 59.2851 99.3151 59.41C99.1031 59.4685 98.9042 59.4911 98.7288 59.5109C98.6693 59.5177 98.611 59.5242 98.5551 59.5325L97.9798 59.6176L97.742 59.0885C97.7329 59.0682 97.7252 59.0539 97.7195 59.043C97.6818 58.9709 97.5816 58.7793 97.6184 58.5218C97.6342 58.4165 97.6525 58.3163 97.6709 58.2163C97.6786 58.1737 97.6865 58.1311 97.694 58.0885C98.2559 54.881 97.5442 52.349 95.518 50.3482C95.1174 49.9528 94.99 49.3026 95.0045 48.8258C95.1573 43.724 95.231 38.735 94.465 33.7929C94.3312 32.9303 94.134 32.0495 93.9432 31.1977C93.8535 30.7978 93.761 30.3844 93.6751 29.9741L93.2026 27.7167L94.935 29.2447C95.4857 29.7304 95.9281 30.2441 96.356 30.7408C96.5494 30.9654 96.732 31.1774 96.9219 31.3842C98.1422 32.7127 99.3795 33.9443 101.097 34.416C101.549 34.54 101.779 34.9309 101.931 35.1896C101.958 35.235 101.984 35.2798 102.01 35.3195C102.155 35.5375 102.282 35.7612 102.405 35.9774C102.62 36.356 102.823 36.7137 103.074 36.9495C103.645 37.4863 104.308 37.7363 105.16 37.7363C105.668 37.7363 106.252 37.6476 106.997 37.4573C107.77 37.2599 108.702 36.7715 108.755 35.5661C108.794 34.6987 108.629 33.685 108.291 32.7115C106.857 28.5807 105.231 23.8987 103.457 19.3818C102.902 17.9689 102.126 16.5863 101.376 15.249C101.082 14.7262 100.779 14.1856 100.49 13.6464C100.383 13.4472 100.239 13.2463 100.086 13.0336C99.859 12.7188 99.6247 12.3931 99.4545 12C98.9891 10.9254 98.5596 9.83714 98.1083 8.6897C97.4715 10.0859 96.8662 11.4101 96.2348 12.7164C95.9901 13.2217 95.3483 13.6478 94.8038 13.6669C88.169 13.8983 83.0531 17.0199 79.164 23.2097C76.9626 26.714 75.4655 30.9051 74.4528 36.3994C74.3312 37.0598 74.1211 37.6813 73.918 38.2822C73.8287 38.5463 73.7445 38.7957 73.6689 39.044L73.4891 39.635L72.8716 39.5845C71.3565 39.4605 70.2157 39.318 69.3341 38.6106C68.4034 37.8637 67.9348 36.5975 67.8147 34.505C67.7751 33.8126 67.696 33.2062 67.573 32.6514C67.3155 31.4904 67.0012 30.218 66.5836 28.6473C66.2818 27.5074 67.0041 27.0662 67.4615 26.9046C68.4442 26.5576 69.1394 25.8303 69.6491 24.6159C69.7871 24.2874 69.9099 23.9524 70.0399 23.5978C70.1002 23.433 70.1609 23.2676 70.2236 23.1015L70.458 22.4804L72.1901 22.8628C72.1912 22.7478 72.1843 22.6477 72.1625 22.568L72.0995 22.3372C71.8491 21.4173 71.59 20.466 71.1833 19.6469C70.1481 17.5614 68.6927 16.5042 66.8578 16.5042C66.4242 16.5042 65.9633 16.5634 65.4877 16.6802C63.3056 17.2162 61.9359 18.3039 61.3003 20.0054C61.0749 20.6086 61.1883 21.0802 61.6675 21.5344C61.7858 21.6465 61.9256 21.7571 62.0875 21.8852C62.1766 21.9556 62.2699 22.0295 62.3684 22.1103L63.4155 22.9687L62.1385 23.4221C61.8137 23.5375 61.4951 23.6464 61.1817 23.7533C60.5224 23.9785 59.8998 24.1912 59.2967 24.4384C58.9357 24.5861 58.5723 24.7307 58.2086 24.8753C56.1616 25.6891 54.228 26.4577 52.6485 27.825C48.8521 31.1113 45.6463 35.258 42.8478 40.5024C42.1942 41.7272 42.0508 43.06 42.4439 44.2554C42.8264 45.4188 43.7011 46.3779 44.907 46.9562C45.1461 47.0709 45.3718 47.197 45.5901 47.3189C45.8974 47.4905 46.1877 47.6527 46.4779 47.7628C48.0499 48.3598 50.0238 48.9136 51.9326 49.4492C53.7162 49.9496 55.5605 50.4671 57.0787 51.0211C57.1431 51.0447 57.2228 51.0719 57.3124 51.1026C58.2911 51.4379 59.5091 51.8552 59.457 52.8263C59.4052 53.793 58.0821 54.0937 57.4463 54.2383L57.3975 54.2478C57.0012 54.3113 56.6094 54.379 56.2304 54.4445C55.3814 54.5913 54.5795 54.7299 53.7516 54.8211C53.1505 54.8874 52.5183 54.921 51.8722 54.9211C49.839 54.9211 47.8975 54.607 45.7519 54.2277C45.0597 54.1054 44.377 54.0433 43.7226 54.0433C41.1775 54.0433 38.9281 54.9465 36.8459 56.8046C34.7531 58.6719 33.0295 60.7914 31.7234 63.1041C30.5846 65.1214 28.9887 65.9589 27.4336 66.5632C22.1829 68.6041 18.8415 72.2284 17.5024 77.3354C16.5473 80.9784 16.759 84.9116 18.1688 89.7134C18.4476 90.6628 18.7747 91.5992 19.1209 92.5905C19.1612 92.7061 19.202 92.8227 19.2429 92.94C19.287 92.8978 19.3292 92.8557 19.3699 92.813C21.555 90.5191 23.1513 87.7968 24.1141 84.7221C24.9153 82.164 25.0758 79.5806 25.1271 77.3908C25.2038 74.123 25.909 72.3735 26.4328 71.3418C27.2175 69.7958 28.3766 69.0017 29.8782 68.9818L30.4725 68.9738L30.6289 69.5455C30.6412 69.5905 30.6536 69.6299 30.6649 69.6659C30.6974 69.7695 30.7342 69.8872 30.7496 70.0309C31.3948 76.021 34.5732 80.4263 40.1965 83.1237C41.4964 83.7473 42.881 84.167 44.3469 84.6115C45.0704 84.8308 45.8184 85.0576 46.5488 85.3098C47.2935 85.5669 47.6991 85.9177 47.789 86.3823C48.1229 88.1102 48.3163 90.1385 47.2187 92.0817C46.2936 93.72 46.4862 94.9423 47.8624 96.1688C49.1796 97.3423 50.8696 97.7728 52.6589 98.2285L52.6752 98.2327C53.1218 98.3464 53.569 98.459 54.0164 98.5716C56.3981 99.171 58.8608 99.7908 61.2311 100.6C63.1616 101.26 64.9288 102.339 66.2527 103.206C66.9509 103.662 67.4955 103.932 68.1352 103.894C68.7755 103.857 69.4065 103.781 70.0744 103.701C70.3665 103.666 70.6587 103.631 70.9512 103.6L71.6906 103.52ZM95.5101 72.2089L96.9147 69.8941C98.2462 67.6998 100.297 66.418 102.28 65.1784C102.505 65.0378 102.73 64.8974 102.954 64.7555L105.214 63.3227L104.058 65.7315C102.727 68.5044 100.175 69.8146 97.9228 70.9705L95.5101 72.2089ZM66.4034 49.2688L65.8926 48.9001C65.059 48.2984 64.1652 47.7466 63.301 47.213C62.8773 46.9515 62.4392 46.681 62.0172 46.41C61.0738 45.8042 60.0679 45.2388 59.0952 44.6919C58.6734 44.4548 58.2372 44.2097 57.8094 43.963C57.7731 43.9421 57.7352 43.9237 57.6975 43.9049C57.6138 43.8632 57.5097 43.8113 57.4032 43.7408C57.3377 43.6973 57.2722 43.6549 57.2066 43.6123C56.4668 43.1326 55.4534 42.4758 55.5562 41.0505C55.6488 39.7657 57.0706 38.6222 58.3346 38.2998L58.9347 38.1466L59.2115 38.699C59.3654 39.0059 59.53 39.32 59.6893 39.6237C60.0639 40.3381 60.4512 41.0769 60.7682 41.8511C61.1073 42.6793 61.7036 43.1231 62.7015 43.29C63.1365 43.3627 63.5916 43.3996 64.0541 43.3996C65.7862 43.3996 67.5243 42.8861 69.0577 42.4331C69.3448 42.3482 69.6312 42.2467 69.9936 42.1183C70.1859 42.0502 70.3954 41.976 70.6321 41.8947L72.6378 41.2057L71.5387 43.0147C70.0817 45.4123 68.684 47.1547 66.8651 48.8407L66.4034 49.2688ZM62.2845 44.7696C62.4738 44.8857 62.6619 45.0037 62.8484 45.1234C63.259 45.387 63.6719 45.642 64.1092 45.9119C64.8218 46.3518 65.5539 46.8038 66.2695 47.293C67.2944 46.2952 68.1825 45.2543 69.0443 44.033C67.5235 44.4779 65.8316 44.93 64.0543 44.93C63.5069 44.93 62.9664 44.8861 62.4477 44.7993C62.3925 44.7901 62.3382 44.7802 62.2845 44.7696ZM58.1549 40.0004C57.5383 40.3261 57.1095 40.8521 57.0873 41.1602C57.0528 41.6397 57.3221 41.8616 58.0434 42.3292C58.1136 42.3748 58.1836 42.4202 58.2529 42.4661C58.2806 42.4844 58.3311 42.5096 58.3846 42.5363C58.4425 42.5652 58.5081 42.5979 58.5777 42.638C58.9985 42.8806 59.431 43.1237 59.8492 43.3588C59.8644 43.3673 59.8797 43.376 59.8951 43.3846C59.6759 43.1046 59.4931 42.7861 59.3471 42.4293C59.0575 41.7219 58.6871 41.0157 58.329 40.3327C58.2714 40.2232 58.2133 40.1121 58.1549 40.0004ZM66.9969 40.0559L65.7109 40.0116C65.5292 40.0054 65.3472 40.0033 65.1544 40.0011C64.6548 39.9953 64.1383 39.9894 63.6125 39.9077C63.0906 39.827 62.5286 39.3856 62.3059 38.8814C61.9323 38.0366 61.6689 37.1739 61.4813 36.5168C61.3317 35.994 61.6323 35.3782 61.9964 35.1076C62.2918 34.8881 62.609 34.7239 62.9158 34.5652C63.033 34.5046 63.1532 34.4425 63.2756 34.3753L63.9772 33.9901L66.9969 40.0559ZM63.8691 38.3986C64.0695 38.4287 64.2751 38.4454 64.4863 38.4551L63.3084 36.0892C63.2 36.1485 63.0993 36.2071 63.0069 36.269C63.1768 36.8528 63.4055 37.5742 63.7106 38.2642C63.7318 38.3006 63.8185 38.3755 63.8691 38.3986Z" fill="#05A099"/>
<path d="M61.8877 68.8063C61.7429 68.8063 61.6108 68.7975 61.4943 68.7783C61.1987 68.7298 60.9417 68.559 60.7703 68.2972C60.1177 67.2997 60.6681 64.598 62.2369 58.5202C62.616 57.0515 63.0704 55.2906 63.2122 54.4484L56.5949 52.4731L57.0353 51.0069L64.6303 53.2742L64.7457 53.6769C64.8972 54.2055 64.6774 55.206 63.7235 58.9016C63.2683 60.6652 62.7524 62.6643 62.4117 64.3287C62.0394 66.1477 62.0095 66.942 62.0347 67.2759C62.6881 67.2422 64.0547 66.9543 65.8064 66.3865C67.2893 65.9058 68.3525 65.4503 68.9435 65.1349C68.4145 64.9865 67.4296 64.9237 65.7754 65.2874L64.1882 65.6364L64.9262 64.1925C64.9423 64.1612 66.537 61.0217 67.4482 57.5424C68.2398 54.5194 68.6758 50.609 66.2573 49.1469L67.0534 47.8383C68.5204 48.7251 69.3656 50.2343 69.5651 52.3234C69.714 53.8814 69.4995 55.7747 68.9276 57.9511C68.3379 60.1953 67.4988 62.2607 66.9268 63.5446C69.9263 63.221 70.6649 64.3911 70.8139 64.7301C70.9575 65.0439 70.9098 65.41 70.6837 65.7159C70.1021 66.5028 67.7313 67.3676 66.3698 67.813C65.6094 68.0619 63.2215 68.8062 61.8877 68.8063Z" fill="#05A099"/>
</svg>
