<?xml version="1.0" encoding="utf-8"?>
<!-- Generator: Adobe Illustrator 16.0.0, SVG Export Plug-In . SVG Version: 6.00 Build 0)  -->
<!DOCTYPE svg PUBLIC "-//W3C//DTD SVG 1.1//EN" "http://www.w3.org/Graphics/SVG/1.1/DTD/svg11.dtd">
<svg version="1.1" id="Layer_1" xmlns="http://www.w3.org/2000/svg" xmlns:xlink="http://www.w3.org/1999/xlink" x="0px" y="0px"
	 width="1070.75px" height="1085px" viewBox="0 0 1070.75 1085" enable-background="new 0 0 1070.75 1085" xml:space="preserve">
<g id="E7Dlfy.tif">
	<g>
		<path fill-rule="evenodd" clip-rule="evenodd" d="M826.208,457.23c19.266,7.846,39.267,13.164,59.954,17.768
			c-0.514-5.881-3.123-10.275-6.928-13.764c-3.909-3.582-8.458-6.457-12.508-9.898c-2.268-1.927-4.09-4.376-6.113-6.59
			c0.202-0.697,0.404-1.395,0.605-2.091c8.434-1.322,16.858-2.718,25.317-3.854c0.868-0.117,2.276,1.111,2.873,2.066
			c6.491,10.385,12.87,20.839,19.196,31.141c-2.059,1.273-5.291,3.271-9.585,5.927c2.054,0.283,2.888,0.675,3.271,0.411
			c8.662-5.981,9.886-6.295,17.263,1.137c2.909,2.932,6.11,4.007,9.489,4.675c4.539,0.897,9.208,3.964,14.021,0.249
			c0.682-0.526,2.508,0.492,3.818,0.71c9.979,1.657,19.727,2.832,30.144,1.539c6.419-0.796,14.362,3.058,20.151,6.989
			c5.725,3.889,11.488,5.372,18.525,6.451c0.115-1.943,0.461-3.673,0.283-5.348c-5.289-49.663-18.771-96.98-40.759-141.848
			c-3.656-7.461-3.71-7.434,3.184-13.974c12.394,23.603,22.329,48.013,30.109,73.335c7.79,25.358,13.085,51.239,16.211,77.521
			c16.063,0.104,20.62,13.553,12.343,23.449c2.502,3.574,4.92,7.339,7.664,10.848c2.117,2.709,4.824,3.51,7.756,0.93
			c10.568-9.307,14.364-25.65,8.452-38.321c-1.874-4.018-4.876-7.519-7.429-11.209c-16.721-24.182-27.791-51.1-38.345-78.318
			c-5.583-14.4-12.079-28.446-17.889-42.763c-0.624-1.537,0.034-4.191,1.046-5.686c3.07-4.537,6.826-8.612,9.855-13.173
			c1.266-1.905,1.371-4.581,2.004-6.906c-2.516-0.325-5.148-1.282-7.527-0.851c-5.842,1.062-11.568,2.764-17.342,4.208
			c4.617-6.671,17.088-11.034,24.936-8.726c4.297,1.264,6.38,4.916,4.285,9.479c-2.195,4.781-5.389,9.12-8.318,13.539
			c-1.365,2.059-3.135,3.85-4.051,4.951c8.496,21.652,16.663,42.722,25.025,63.713c9.153,22.977,20.475,44.754,34.879,64.987
			c3.688,5.182,4.885,12.138,7.227,18.278c0,1.334,0,2.666,0,4c-3.825,7.855-7.062,16.074-11.637,23.465
			c-4.754,7.681-11.895,7.421-17.466,0.211c-2.411-3.121-4.544-6.455-6.939-9.886c-4.101,3.631-6.127,7.192-5.987,12.452
			c1.831,68.796-11.789,134.408-40.844,196.83c-0.783,1.682-0.564,4.624,0.424,6.207c6.617,10.594,13.541,20.998,20.447,31.409
			c0.991,1.495,2.202,3.051,3.686,3.98c21.43,13.425,31.95,33.049,34.012,57.953c0.711,8.586,2.698,17.104,4.617,25.536
			c0.975,4.275-0.866,5.935-4.336,5.695c-4.924-0.339-10.064-0.789-14.616-2.509c-7.442-2.812-14.625-6.422-21.659-10.177
			c-7.809-4.168-10.181-13.307-5.758-21.061c3.038-5.326,5.271-10.804,4.426-17.061c-0.82-6.078-3.032-7.936-9.183-8.064
			c-8.03-0.17-12.133-3.823-15.114-12.676c-2.807-8.337-5.971-16.556-9.087-24.785c-0.616-1.627-1.726-3.068-2.56-4.512
			c-79.717,129.282-193.176,206.537-345.391,218.677c-151.974,12.12-276.371-45.511-375.535-160.601
			c-0.732,1.09-1.684,2.363-2.488,3.725c-14.316,24.238-28.4,48.619-43.01,72.681c-7.338,12.085-15.869,23.44-23.391,35.421
			c-4.389,6.99-7.385,14.441-8.922,22.972c-1.579,8.763-5.938,17.399-15.072,21.854c-7.031,3.429-14.025,6.932-21.025,10.422
			c-2.799,1.396-4.863,0.613-4.838-2.499c0.086-10.587,0.166-21.196,0.942-31.745c0.333-4.525,4.604-5.847,8.661-5.979
			c5.76-0.188,11.529-0.048,17.591-0.048c-1.559-5.118,1.751-8.491,4.673-12.739c5.145-7.475,9.49-15.711,12.871-24.15
			c11.018-27.502,21.58-55.191,31.968-82.939c1.614-4.312,1.236-9.338,2.122-13.969c0.268-1.392,1.42-2.998,2.635-3.763
			c10.545-6.644,20.822-13.847,31.881-19.514c41.066-21.046,75.026-49.901,99.854-89.02c2.004-3.157,4.088-3.966,7.553-4.141
			c20.289-1.024,40.58-2.132,60.838-3.634c7.604-0.562,14.384-2.885,20.841-8.151c8.224-6.708,19.141-9.032,29.692-8.698
			c42.201,1.336,84.312,0.258,126.362-3.365c4.468-0.385,8.841-1.857,13.257-2.821c-1.631,3.976-2.846,8.19-5.006,11.847
			c-2.09,3.541-5.139,6.518-7.787,9.724c-6.358,7.694-5.706,14.506,2.033,20.557c7.572,5.921,15.174,11.803,22.791,17.724
			c-1.375,2.758-2.52,5.055-3.737,7.497c6.815,2.764,8.729-4.035,12.649-5.472c0.421,1.316,0.853,2.668,1.441,4.512
			c-1.229,1.082-3.076,2.756-4.973,4.372c-3.184,2.714-9.015,2.833-12.404,0.149c-3.642-2.883-0.738-5.652,0.268-8.457
			c0.132-0.367-0.096-0.862-0.174-1.415c-1.951,0-3.773-0.025-5.597,0.004c-20.822,0.333-41.762,2.241-62.441,0.689
			c-43.173-3.24-86.229-8.192-127.979-20.653c-3.48-1.039-5.546-0.293-7.938,2.617c-19.142,23.284-37.662,47.107-60.354,67.26
			c-9.229,8.197-9.874,16.35-3.171,26.776c4.044,6.292,8.517,12.358,13.272,18.134c21.714,26.365,43.554,52.628,65.471,78.825
			c2.943,3.52,4.457,7.36,3.021,11.499c-2.023,5.83-2.043,11.321,0.305,16.947c0.374,0.895,0.666,2.043,0.438,2.93
			c-0.742,2.861,0.927,3.758,3.119,4.668c53.158,22.064,108.527,32.862,166.059,32.819c2.971-0.002,4.314-1.015,5.354-3.785
			c13.037-34.763,26.216-69.474,39.309-104.216c0.631-1.676,0.855-3.516,1.176-5.297c1.521-8.455,2.624-17.008,4.603-25.354
			c2.913-12.286,7.731-24.254,9.395-36.67c2.227-16.633,2.271-33.561,3.125-50.369c0.241-4.761,0.037-9.545,0.037-14.169
			c-7.38,0.852-14.848,1.714-23.727,2.738c10.018-2.474,18.759-3.944,26.991-6.854c8.34-2.949,9.025-5.419,7.682-14.007
			c-0.42-2.677-1.451-4.003-4.25-4.499c-6.391-1.135-12.699-2.727-19.08-3.93c-1.591-0.299-3.328,0.176-4.916,0.289
			c-0.694-1.109-1.335-3.533-2.645-3.977c-5.231-1.768-6.326-3.963-3.455-8.648c5.48-8.949,10.855-17.969,16.591-26.752
			c1.179-1.806,3.575-3.357,5.702-3.914c12.394-3.244,24.968-5.824,37.287-9.313c6.814-1.93,13.461-3.059,20.574-2.832
			c15.504,0.494,30.949,0.216,45.937-4.954c15.574-5.373,31.32-10.25,47.001-15.313c1.15-0.372,2.379-0.506,4.871-1.018
			c-2.885,4.622-5.09,8.151-7.33,11.739c2.786,0.7,5.239,1.316,8.559,2.15c-2.25,1.892-3.592,3.433-5.271,4.363
			c-9.314,5.16-18.776,10.057-28.052,15.285c-4.136,2.332-7.593,2.415-11.979,0.075c-6.248-3.333-12.893-7.003-20.388-5.228
			c-12.411,2.939-24.192,7.639-34.279,15.629c-3.308,2.621-6.403,6.021-8.381,9.717c-6.306,11.783,2.086,25.48,15.278,25.517
			c7.139,0.02,14.277,0.003,21.772,0.003c-4.306,6.99-8.464,14.347-13.198,21.312c-15.254,22.444-25.493,47.074-32.383,73.186
			c-3.715,14.079-11.037,26.299-19.061,38.211c-2.672,3.967-5.639,7.895-7.436,12.264c-14.085,34.254-24.79,69.604-33.486,105.574
			c-0.83,3.436-1.187,6.984-1.81,10.768c1.946-0.105,3.101-0.115,4.243-0.236c31.252-3.325,61.848-9.793,91.506-20.191
			C831.463,908.111,909.654,842.853,963.911,748.8c1.605-2.782,1.273-4.6-0.45-7.117c-6.824-9.969-15.959-16.744-27.137-21.143
			c-7.891-3.105-15.558-6.773-23.373-10.077c-5.303-2.241-10.514-5.129-16.066-6.277c-31.287-6.472-62.836-11.078-95.746-11.487
			c2.207-3.119,3.717-6.425,6.215-8.591c14.216-12.325,28.623-24.431,43.119-36.427c1.211-1.002,3.801-1.352,5.328-0.812
			c26.215,9.263,52.409,18.589,78.51,28.168c15.783,5.793,27.588,16.453,36.06,30.924c2.556,4.367,5.374,8.581,8.514,13.566
			c27.626-60.303,40.581-122.567,39.382-187.952c-2.021,0-3.501,0.145-4.943-0.022c-11.583-1.346-14.246-5.023-14.094-14.148
			c0.062-3.814,0.389-7.656,0.989-11.422c0.522-3.284-0.257-4.932-3.795-5.413c-5.771-0.784-11.492-1.94-17.225-2.991
			c-13.73-2.514-27.455-5.059-41.599-7.668c-0.512,2.369-1.217,4.426-1.363,6.521c-0.952,13.623-6.896,24.531-16.88,33.781
			c-3.694,3.422-6.788,2.815-10.302,1.146c-3.566-1.695-4.588-5.079-3.156-8.465c1.721-4.071,3.763-8.199,6.549-11.573
			c2.845-3.447,4.441-6.736,4.144-11.268c-0.11-1.672,1.413-3.543,2.433-5.172c1.476-2.355,3.172-4.574,4.773-6.852
			c-0.366-0.2-0.732-0.4-1.099-0.602c-2.039,2.449-4.077,4.898-6.513,7.823c-3.553-6.586-7.234-4.239-11.241-0.616
			c-2.058-3.254-3.807-6.021-5.557-8.79c-0.435,0.269-0.868,0.537-1.302,0.806c1.877,3.217,3.756,6.434,4.945,8.473
			c-1.008,6.708-2.398,12.65-2.635,18.64c-0.172,4.396-0.84,7.729-5.045,9.886c-4.447,2.281-8.57,2.257-12.689-0.633
			c-8.04-5.641-9.84-12.576-5.115-21.196c1.495-2.728,3.836-4.979,5.565-7.597c1.335-2.021,2.317-4.275,3.91-7.281
			c-21.153,1.697-40.896,3.225-60.612,5.013c-1.141,0.104-2.866,2.241-3.009,3.572c-1.925,18.021-3.66,36.061-5.329,54.106
			c-0.284,3.078-0.04,6.207-0.04,9.771c-1.981-0.563-3.741-0.959-5.428-1.563c-7.524-2.694-14.899-5.911-22.581-8.026
			c-5.51-1.518-6.36-3.967-5.219-9.203c3.641-16.695,9.301-32.602,17.25-47.291c-1.391-1.012-2.436-1.839-3.547-2.564
			c-1.314-0.857-2.651-2.265-4.037-2.34c-21.632-1.171-43.28-2.027-64.908-3.234c-25.786-1.439-51.559-3.11-77.327-4.828
			c-1.494-0.1-3.648-1.168-4.222-2.386c-3.03-6.431-5.651-13.056-8.379-19.526c54.379,7.887,108.887,15.793,163.752,23.751
			c-1.28,2.257-2.236,3.94-3.24,5.71c5.48,1.183,7.633-1.03,8.375-7.31c6.336-6.738,12.15-12.923,17.836-18.971
			c0-1.317,0-2.896,0-4.474L826.208,457.23z M256.461,804.423c37.266,46.766,81.73,83.984,134.311,112.226
			c0.964-3.411,1.42-6.079,2.453-8.501c4.955-11.619,1.074-20.333-7.98-28.231c-15.059-13.138-29.572-26.896-44.471-40.222
			c-18.499-16.547-37.129-32.947-55.805-49.295c-1.209-1.059-3.899-2.086-4.885-1.479
			C272.18,793.792,264.521,799.06,256.461,804.423z M826.561,479.701c20.504,0.841,40.373,1.656,60.242,2.473
			c0.171-0.744,0.342-1.489,0.512-2.233c-5.583-2.944-12.098-3.378-18.104-5.146c-6.526-1.921-13.152-3.502-19.669-5.452
			c-6.315-1.891-12.547-4.062-19.174-6.227C829.117,468.561,827.91,473.822,826.561,479.701z M1005.065,502.648
			c-0.415,5.162-1.224,10.381-1.155,15.589c0.082,6.151,2.646,8.343,8.931,8.792c3.459,0.247,5.896-0.543,5.294-4.885
			c-0.406-2.943-0.423-5.939-0.655-8.91C1016.783,504.334,1015.271,502.969,1005.065,502.648z M1026.937,513.767
			c2.927-0.896,5.546-1.155,7.468-2.448c1.743-1.172,3.367-3.31,3.877-5.317c0.563-2.225,0.352-4.999-0.49-7.157
			c-2.066-5.296-7.371-7.267-12.588-4.999C1025.777,500.446,1026.358,507.119,1026.937,513.767z M824.598,487.015
			c0.312,0.398,0.625,0.797,0.938,1.196c10.902-0.81,21.806-1.62,32.709-2.429c-9.375-1.505-18.717-1.894-28.059-2.278
			c-0.826-0.034-1.939-0.394-2.426,0.003C826.553,484.49,825.633,485.823,824.598,487.015z M992.464,496.145
			c-8.655-5.599-14.767-6.522-18.745-3.246C979.648,493.925,985.505,494.94,992.464,496.145z"/>
		<path fill-rule="evenodd" clip-rule="evenodd" d="M1.303,761.212c2.443-12.792,6.996-24.707,16.016-34.312
			c5.447-5.801,11.318-11.34,17.633-16.168c19.936-15.239,30.379-35.547,32.252-60.172c1.238-16.262,1.043-32.627,1.873-48.928
			c0.379-7.457,1.16-14.973,2.652-22.279c5.274-25.822,22.282-41.483,45.934-50.435c10.842-4.104,22.28-6.69,33.553-9.558
			c3.406-0.865,4.885-1.844,5.123-5.681c10.316-165.667,111.684-309.524,264.486-374.864
			c70.764-30.258,144.741-41.314,221.026-31.605c138.544,17.633,245.14,86.521,320.702,203.769c0.895,1.39,1.828,2.753,2.971,4.472
			c7.652-3.182,15.227-6.33,22.8-9.478c0.16,0.381,0.319,0.761,0.479,1.142c-11.957,5.472-23.915,10.943-35.873,16.415
			c-0.156-0.187-0.313-0.373-0.47-0.56c1.39-1.117,2.778-2.236,4.165-3.352C873.232,176.943,690.465,76.974,490.5,125.46
			c-199.6,48.399-318.386,223.65-324.895,391.2c2.287-0.202,4.578-0.178,6.768-0.638c14.01-2.939,28.025-5.865,41.979-9.059
			c5.309-1.215,9.398-3.781,13.277-8.465c11.22-13.548,26.147-22.194,43.269-26.22c8.893-2.091,18.179-2.514,27.287-3.69
			c0.148,0.777,0.296,1.555,0.443,2.332c-5.466,1.369-10.863,3.425-16.412,3.98c-19.32,1.934-36.373,9.823-48.535,24.131
			c-8.154,9.594-17.716,12.596-28.396,15.009c-12.17,2.749-24.521,4.696-36.748,7.205c-1.33,0.272-3.362,1.934-3.389,2.993
			c-0.259,10.129-0.154,20.266-0.154,31.732c15.021-17.07,33.785-25.268,54.201-30.705c-1.016,6.232-3.291,9.23-11.998,15.44
			c1.48-2.961,2.533-5.063,4.221-8.437c-4.426,1.657-7.781,2.787-11.038,4.156c-12.788,5.377-24.184,12.733-32.649,23.952
			c-1.288,1.706-2.316,4.218-2.197,6.284c1.518,26.502,5.592,52.623,13.188,78.413c0-1.753,0.075-3.509-0.012-5.257
			c-0.864-17.367-0.664-34.656,3.742-51.639c3.687-14.207,9.868-27.108,20.032-38.02c-5.803,20.877-5.828,41.883-2.562,63.074
			c3.261,21.162,9.67,41.358,18.078,61.802c0.694-2.189,1.175-3.705,1.655-5.221c2.227,21.881,2.818,43.6-4.567,64.812
			c-0.749,2.15-0.578,5.234,0.421,7.268c3.152,6.418,6.9,12.541,10.721,19.316c-2.261,1.575-4.632,3.228-7.414,5.166
			c-3.716-6.326-7.227-12.305-10.861-18.492c-3.514,3.673-6.428,7.676-10.223,10.485c-8.119,6.009-16.394,11.933-25.166,16.901
			c-9.256,5.242-14.02,13.189-15.978,22.96c-1.333,6.649-1.504,13.55-1.963,20.354c-1.892,28.051-9.31,54.41-23.96,78.545
			c-5.67,9.342-12.793,17.389-21.562,24.041c-3.812,2.891-7.167,6.443-10.409,9.988c-0.85,0.929-0.508,2.95-0.713,4.471
			c1.805,0.186,4.187,1.213,5.325,0.43c12.602-8.663,25.387-17.133,37.348-26.631c8.933-7.094,12.966-17.912,17.71-28.057
			c8.18-17.486,16.461-34.935,25.236-52.124c5.431-10.636,13.797-19.083,22.75-26.862c0.5,0.131,1,0.263,1.5,0.394
			c-0.416,1.834-0.201,4.387-1.346,5.394c-15.608,13.732-24.186,32.04-32.948,50.203c-3.978,8.244-7.838,16.58-11.128,25.114
			c-6.83,17.722-18.079,31.704-33.985,41.996c-7.551,4.886-15.083,9.802-22.691,14.598c-3.82,2.407-8.558,1.788-11.28-1.358
			c-2.95-3.41-2.01-6.993,0.37-10.053c2.434-3.129,5.06-6.348,8.252-8.609c20.051-14.207,30.641-34.666,38.265-57.111
			c5.774-17.002,8.216-34.543,9.209-52.473c0.459-8.284,2.876-16.678,5.713-24.55c2.601-7.216,8.488-11.992,15.689-15.28
			c12.312-5.622,22.582-14.014,31.073-24.594c1.741-2.17,2.368-3.904,0.741-6.598c-2.483-4.109-4.397-8.562-7.49-14.744
			c-0.546,1.667-0.631,2.562-1.079,3.203c-12.573,17.963-29.685,29.883-50.098,37.281c-16.747,6.07-33.671,11.67-50.294,18.053
			c-7.729,2.967-15.24,6.795-22.319,11.104c-24.38,14.84-34.579,37.853-29.819,66.043c0.262,1.553,0.463,3.115,0.693,4.672
			c-0.598,0.124-1.195,0.248-1.793,0.371c-2.082-9.65-4.293-19.273-6.224-28.954c-5.681-28.487,18.606-71.593,46.651-86.344
			c11.486-6.041,23.374-11.314,35.025-17.045c17.055-8.388,32.809-18.532,44.354-34.07c2.573-3.464,4.788-7.214,6.943-10.961
			c5.486-9.534,7.285-18.876,3.574-30.216c-7.411-22.646-11.395-46.194-13.781-69.951c-0.164-1.631-0.535-3.241-0.81-4.861
			c-0.46-0.046-0.919-0.092-1.379-0.139c-1.167,8.057-2.872,16.078-3.389,24.176c-1.06,16.62-0.995,33.318-2.269,49.918
			c-2.457,31.993-19.005,50.6-50.404,58.233c-16.957,4.123-33.996,8.083-50.642,13.263c-14.218,4.424-27.026,11.881-34.349,25.725
			c-3.078,5.818-5.148,12.234-7.101,18.556c-0.852,2.759-1.627,4.179-4.915,3.288c-0.482-1.489-1.026-3.168-1.57-4.848
			C1.303,767.878,1.303,764.546,1.303,761.212z M156.342,522.968c-16.709,3.098-31.617,6.955-45.592,13.974
			c-20.775,10.435-33.379,26.934-35.624,50.164c-1.534,15.876-1.955,31.899-2.072,47.862c-0.255,34.777-11.529,63.787-41.235,84.166
			c-8.731,5.99-15.23,14.437-19.912,24.008c-1.998,4.084-3.271,8.521-4.875,12.797c3.786-3.969,6.338-8.527,9.762-12.293
			c3.545-3.898,7.594-7.562,12.021-10.393c14.65-9.365,31.203-13.994,47.893-18.068c9.848-2.404,19.963-3.869,29.637-6.809
			c21.537-6.547,35.12-20.957,38.096-43.521c1.908-14.477,2.188-29.191,2.748-43.816c0.646-16.871,1.68-33.609,8.449-49.409
			c0.383-0.895,0.672-1.913,0.676-2.875C156.354,553.794,156.342,538.835,156.342,522.968z M216.312,679.364
			c-4.25,11.448-8.637,23.214-12.96,35.003c-0.315,0.862-0.519,2.055-0.173,2.822c2.22,4.941,4.607,9.808,7.504,15.881
			C217.111,714.476,216.896,696.654,216.312,679.364z"/>
		<path fill-rule="evenodd" clip-rule="evenodd" d="M603.702,663.438c1.39-3.927-1.391-3.111-3.436-2.952
			c-12.954,1.006-25.891,2.678-38.858,2.963c-32.475,0.712-64.973,0.419-97.438,1.33c-12.981,0.363-25.736,3.122-35.999,12.506
			c-1.933,1.768-5,2.923-7.655,3.173c-18.222,1.717-36.466,3.226-54.721,4.562c-6.472,0.475-14.05-1.736-19.189,0.962
			c-5.054,2.652-7.591,10.022-11.341,15.245c-24.517,34.133-55.967,59.945-93.588,78.536c-8.773,4.335-16.933,9.917-25.348,14.97
			c-1.521,0.913-2.912,2.041-4.484,3.156c-3.549-12.108,0.285-21.74,9.98-28.021c30.258-19.603,43.062-48.428,42.883-83.587
			c-0.096-18.893-6.521-35.506-20.107-49.097c-7.254-7.258-8.416-16.854-8.844-26.387c-0.993-22.223,3.604-43.721,9.207-65.045
			c0.337-1.279,0.682-2.558,1.18-4.43c-7.775,0.963-13.193,4.754-16.857,11.104c-5.652,9.796-7.136,20.724-7.876,31.717
			c-1.13,16.789-1.837,33.607-2.812,50.407c-0.413,7.108-1.051,14.202-2.771,21.487c-0.973-2.837-2.023-5.649-2.906-8.514
			c-7.666-24.868-12.444-50.102-9.505-76.293c0.13-1.159,0.313-2.314,0.384-3.477c1.014-16.512,8.839-28.576,23.592-36.089
			c10.078-5.132,20.248-10.087,30.229-15.401c2.25-1.199,4.656-3.211,5.674-5.448c7.593-16.704,19.871-28.575,36.412-36.14
			c2.193-1.002,4.797-1.374,7.242-1.518c40.088-2.344,80.18-4.604,120.271-6.887c0.947-0.054,1.893-0.15,3.475-0.279
			c-0.801-1.257-1.133-2.206-1.797-2.759c-10.115-8.424-12.34-19.976-11.354-31.991c0.993-12.113,13.12-18.674,24.258-14.051
			c2.753,1.143,5.69,2.328,7.88,4.25c5.177,4.543,11.104,5.186,17.606,5.058c9.988-0.196,19.986,0.149,29.982,0.247
			c0.075,0,0.153-0.274,0.382-0.705c-4.524-3.44-9.222-6.77-13.647-10.424c-11.669-9.633-21.176-20.85-24.467-36.121
			c-3.473-16.102,1.016-30.791,9.332-44.329c2.849-4.637,3.331-8.624,1.745-13.487c-1.069-3.276-1.593-6.73-2.489-10.671
			c10.488-1.925,20.574-3.804,30.672-5.624c13.272-2.393,26.566-4.666,39.812-7.195c1.708-0.326,3.446-1.619,4.713-2.912
			c3.474-3.543,6.352-7.736,10.097-10.93c9.875-8.423,11.646-26.543,3.048-36.241c-0.807-0.91-2.425-1.337-3.729-1.507
			c-1.453-0.189-2.988,0.355-4.468,0.26c-7.124-0.461-13.733-2.172-16.705-9.604c-2.835-7.092,1.068-12.337,5.202-17.645
			c1.787-2.296,3.036-5.431,3.414-8.33c1.29-9.87,2.083-19.806,3.075-29.815c25.132,0,49.737,0,74.956,0c0,9.947,0,19.68,0,30.369
			c5.725-0.421,10.811-0.621,15.848-1.23c2.996-0.361,6.031-0.773,7.225,2.559c1.349,3.766-1.562,5.779-4.512,6.503
			c-5.773,1.415-11.7,2.205-17.633,3.267c-1.857,9.119-3.657,18.564-5.729,27.947c-2.03,9.195-6.678,16.588-15.267,21.176
			c-1.003,0.535-1.92,2.19-1.965,3.361c-0.1,2.594,0.381,5.209,0.727,8.902c8.496-4.529,16.514-8.508,24.143-13.13
			c1.448-0.877,2.095-4.397,1.819-6.53c-0.635-4.912-0.822-9.15,4.083-12.271c1.451-0.923,2.082-3.293,2.855-5.101
			c5.261-12.3,12.333-23.254,23.32-31.247c8.381-6.098,17.84-9.152,28.172-8.259c17.178,1.487,26.666,12.457,31.834,27.698
			c1.5,4.421,3.602,6.479,8.025,7.252c4.74,0.828,9.346,2.41,14.041,3.533c4.289,1.025,4.812,3.554,3.053,7.083
			c-1.975,3.962-5.309,6.016-9.643,5.975c-3.477-0.032-6.985-0.422-10.414-1.028c-3.683-0.651-5.695,0.102-6.824,4.159
			c-1.279,4.605-3.389,9.046-5.604,13.315c-8,15.428-18.824,23.916-36.099,28.369c2.351,5.357,4.661,10.637,6.98,15.911
			c2.146,4.88,1.11,6.587-4.341,6.904c-5.803,0.339-11.609,0.573-18.233,0.894c1.298,19.018-3.852,37.885,2.81,56.941
			c19.322-6.758,32.432-24.29,52.395-30.65c-3.781-5.824-7.484-11.268-10.895-16.888c-1.803-2.969-3.432-6.134-4.525-9.415
			c-1.105-3.316-0.057-5.852,4.209-5.965c-0.947,14.353,10.055,22.625,16.291,33.859c-1.083,0.854-2.231,1.987-3.58,2.782
			c-8.99,5.302-18.037,10.511-27.041,15.791c-8.301,4.868-16.622,9.706-24.795,14.782c-1.176,0.73-2.432,2.906-2.174,4.095
			c1.048,4.858,2.39,9.701,4.17,14.34c1.369,3.569,3.37,1.233,4.912-0.196c8.801-8.154,17.573-16.338,26.346-24.521
			c7.92-7.389,15.686-14.95,23.802-22.117c3.729-3.293,4.407-5.756,1.042-9.938c-4.983-6.193-9.187-13.014-12.949-20.486
			c1.178,0.537,2.354,1.076,4.324,1.977c1.315-3.41,2.637-6.834,4.155-10.772c2.12,0.786,5.229,2.459,8.526,3.026
			c4.063,0.699,9.703,2.215,12.109,0.25c3.729-3.042-0.842-7.4-2.182-11.135c-0.268-0.746-0.668-1.444-1.243-2.664
			c5.035,0.54,9.54,1.023,14.439,1.549c-0.444-2.659-0.788-4.72-1.327-7.939c2.078,2.762,3.512,4.668,5.181,6.887
			c0.475-1.248,0.841-2.209,1.168-3.071c2.669,1.653,5.132,3.181,7.862,4.872c1.092-1.951,2.625-2.781,4.249,1.455
			c0.749-2.727,1.125-4.1,1.59-5.794c0.748,0.562,1.388,1.019,2.001,1.509c8.025,6.412,15.844,13.111,24.188,19.076
			c2.596,1.854,6.597,2.25,9.986,2.364c4.646,0.156,6.465-3.263,3.66-6.954c-2.896-3.814-6.463-7.15-9.943-10.479
			c-3.949-3.776-8.127-7.313-11.808-11.663c2.262,1.086,4.523,2.172,6.51,3.125c0.366-2.164,0.714-4.223,1.122-6.635
			c-5.525-7.375-11.367-15.17-17.208-22.967c6.216,4.768,11.974,9.633,20.577,6.105c0.789-0.324,2.348,0.908,3.41,1.625
			c14.365,9.687,28.705,19.41,43.053,29.122c1.898,1.284,3.809,2.551,5.959,3.99c-1.701-8.913-9.387-13.392-14.426-21.567
			c4.527,1.944,7.795,3.348,12.355,5.307c-5.43-7.476-10.026-13.803-14.623-20.131c0.188-0.172,0.373-0.343,0.561-0.514
			c1.48,1.231,3.094,2.336,4.414,3.721c3.324,3.485,7.201,4.737,12.068,4.559c3.07-0.113,6.508,0.777,9.254,2.221
			c19.745,10.383,39.355,21.021,59.046,31.601c3.632-8.536-5.672-11.534-7.476-18.677c6.167,4.711,11.749,8.975,17.77,13.574
			c-0.131-1.27-0.216-2.084-0.345-3.325c1.726,1.2,3.185,2.214,5.72,3.978c-1.393-2.736-2.23-4.379-3.066-6.021
			c0.205-0.221,0.41-0.441,0.615-0.662c4.752,4.166,9.416,8.438,14.285,12.462c3.563,2.946,7.396,5.569,9.612,7.222
			c12.986-6.452,24.592-12.219,36.198-17.984c0.327,0.482,0.654,0.964,0.982,1.445c-7.202,11.189-12.568,23.58-22.498,33.002
			c-1.369,1.299-2.341,3.723-2.335,5.623c0.013,3.965,0.309,8.062,1.358,11.865c4.309,15.596,2.124,30.775-2.672,45.729
			c-7.221,22.513-14.75,44.927-22.163,67.378c-0.464,1.406-1.056,2.771-1.769,4.621c-8.026-2.055-14.63-6.324-20.617-11.6
			c-10.572-9.316-17.894-20.939-23.736-33.645c-0.674-1.463-3.021-3.146-4.529-3.088c-23.154,0.894-44.055,8.066-62.028,23.02
			l0.149-0.082c-1.439-0.026-3.01,0.317-4.299-0.137c-16.167-5.699-32.303-11.488-48.422-17.32c-3.744-1.354-7.83-2.529-6.533-8.152
			c0.17-0.736-0.977-2.008-1.794-2.701c-4.067-3.444-8.134-6.906-12.384-10.118c-4.721-3.568-9.551-5.753-15.221-1.247
			c-2.691,2.139-5.998,3.672-9.242,4.908c-5.348,2.037-7.137,6.441-8.685,11.018c4.186,1.007,8.765,1.008,11.897,3.137
			c4.045,2.75,7.844,3.645,12.157,2.306c5.013-1.556,9.866-3.62,14.643-5.409c0.513,2.248,0.769,4.697,1.712,6.843
			c0.371,0.845,2.244,1.281,3.49,1.43c1.711,0.203,3.661-0.565,5.186-0.019c15.977,5.734,31.889,11.646,47.816,17.516
			c1.451,0.534,2.887,1.105,4.436,1.701c-4.252,4.875-8.426,9.195-12.021,13.955c-2.219,2.938-4.441,3.712-8.01,3.191
			c-25.379-3.703-50.812-7.041-76.18-10.811c-28.164-4.184-56.295-8.602-84.391-13.223c-2.937-0.483-5.92-2.606-8.214-4.701
			c-5.966-5.444-11.559-11.297-17.3-16.986c-0.395,0.189-0.789,0.381-1.182,0.571c0.687,12.056,1.257,24.118,2.162,36.157
			c0.173,2.31,1.195,4.875,2.611,6.721c11.343,14.793,22.877,29.438,34.346,44.133c4.054,5.195,8.086,10.405,12.129,15.608
			c0.533-0.236,1.066-0.473,1.6-0.709c-5.439-16.741-10.877-33.483-16.338-50.295c49.203,2.635,97.824,5.238,146.938,7.868
			c-0.947,1.969-1.566,3.301-2.225,4.615c-7.652,15.306-12.717,31.436-15.694,48.275c-0.666,3.766,0.157,5.691,3.999,6.969
			c10.109,3.359,20.103,7.077,30.057,10.878c1.268,0.483,2.986,2.415,2.869,3.501c-1.746,16.193-3.641,32.377-5.9,48.506
			c-0.256,1.818-2.659,4.152-4.558,4.795c-14.032,4.752-28.417,8.535-42.241,13.803c-13.689,5.215-27.693,7.026-42.1,7.098
			c-5.328,0.025-10.658-0.398-15.988-0.416c-2.12-0.008-4.297,0.32-6.355,0.851c-13.532,3.489-27.035,7.092-40.564,10.598
			c-0.971,0.252-2.063,0.033-3.662,0.033c4.15-6.918,8.293-13.157,11.766-19.749c6.889-13.073,14.164-26.032,19.723-39.673
			c2.389-5.86,0.91-13.303,1.129-20.028c0.012-0.354-0.52-0.727-0.854-1.161c-1.387,0.596-2.681,1.151-3.613,1.553
			c-1.857-4.203-2.896-8.632-5.418-11.924c-19.453-25.393-39.059-50.673-58.941-75.729c-4.867-6.133-8.394-12.26-7.711-20.305
			c0.133-1.577-0.376-3.209-0.763-6.129c-1.315,2.988-2.243,4.726-2.866,6.565c-6.671,19.71-13.219,39.461-20.002,59.132
			c-1.166,3.379-0.41,5.385,2.11,7.742c12.407,11.602,24.804,23.229,36.821,35.23c4.382,4.374,7.708,9.805,10.773,13.79
			c-1.406,2.353-2.272,3.353-2.635,4.512c-0.58,1.854-0.826,3.815-1.213,5.728c-1.035-3.959-1.076-8.61-3.272-11.758
			c-12.292-17.619-29.263-30.662-44.915-45.238c-5.842,13.436-11.095,43.578-8.865,50.184c10.425-1.293,10.425-1.293,12.961,9.217
			c21.863,4.615,21.862,4.613,42.347-2.276c0.602-0.202,1.27-0.207,1.906-0.304c-1.098,4.967-1.513,10.217-3.433,14.842
			c-4.252,10.246-9.299,20.16-13.946,30.245C611.842,645.357,607.795,654.408,603.702,663.438z M477.361,317.111
			c9.009,17.727,18.111,34.553,31.338,48.708c5.168,5.53,10.871,10.332,19.25,10.077c-5.031,2.641-10.347,2.243-14.559-0.679
			c-6.623-4.594-13.187-9.632-18.547-15.588c-5.715-6.349-10.002-13.981-14.904-21.044c-8.849,9.795-15.053,31.76-4.647,47.346
			c7.603,11.388,17.19,20.774,27.867,29.104c15.497,12.09,31.498,23.555,46.649,36.056c6.938,5.724,13.882,7.935,22.418,6.187
			c4.073-0.834,8.371-1.073,12.184-2.564c4.594-1.797,8.78-4.639,13.643-7.301c-2.166-2.365-3.26-3.604-4.4-4.799
			c-14.387-15.057-28.716-30.168-43.227-45.104c-2.672-2.752-3.512-5.418-2.285-8.957c1.254-3.621,3.84-5.192,7.523-5.484
			c7.305-0.578,14.605-1.207,21.898-1.905c8.547-0.817,17.083-1.731,25.992-2.642c-1.04-8.588-1.997-16.496-2.954-24.402
			c1.253,0.775,1.94,1.689,2.41,2.705c11.458,24.766,22.963,49.51,34.286,74.338c3.08,6.754,4.631,8.104,12.002,7.988
			c18.443-0.292,36.928-2.805,55.303,1.118c1.191,0.255,3.266-0.261,3.859-1.14c2.936-4.344,5.511-8.932,8.224-13.451
			c-1.023-0.699-1.386-1.082-1.827-1.226c-2.373-0.769-4.736-1.597-7.155-2.19c-14.843-3.641-29.837-5.074-45.087-3.145
			c-7.26,0.918-7.742,0.898-9.367-6.021c-2.767-11.786-5.137-23.68-7.215-35.608c-3.355-19.267-7.885-38.134-16.553-55.813
			c-0.859-1.755-1.096-3.813-1.622-5.731c0.538-0.166,1.075-0.332,1.612-0.497c5.52,8.749,11.037,17.499,16.557,26.247
			c0.738-8.69,2.065-16.934-1.702-25.125c-5.072-11.029-9.212-22.486-13.771-33.753c-0.665-1.644-1.435-3.245-2.3-5.188
			c-10.674,8.92-22.878,13.561-35.547,16.367c-29.244,6.477-58.646,12.241-88.007,18.183
			C495.771,313.984,486.768,315.424,477.361,317.111z M532.139,618.47c-9.314-20.045-9.896-39.931-5.792-59.74
			c4.212-20.328,9.896-40.357,15.172-60.455c0.742-2.826,0.688-4.689-1.669-6.479c-1.848-1.402-3.27-3.502-5.271-4.543
			c-5.704-2.965-8.902-7.85-11.293-13.479c-4.318-10.17-5.454-20.858-5.11-31.783c0.179-5.686-4.636-10.564-10.395-10.603
			c-14.487-0.096-28.978-0.411-43.46-0.214c-5.887,0.08-10.988-0.824-15.638-4.763c-2.608-2.21-5.921-3.727-9.118-5.073
			c-6.231-2.624-11.922-1.356-15.172,4.429c-1.964,3.495-3.178,8.376-2.482,12.229c2.566,14.229,10.787,25.186,22.212,33.769
			c1.353,1.017,3.423,1.777,5.055,1.61c14.519-1.48,28.528,1.723,42.525,4.604c9.521,1.959,17.591,6.981,24.248,14.071
			c3.987,4.245,6.442,9.281,6.556,15.245c0.109,5.826,0.682,11.695,0.177,17.469c-1.841,21.039-3.899,42.061-6.173,63.058
			C515.164,600.249,521.282,613.781,532.139,618.47z M707.661,240.849c-4.241-6.425-7.169-12.445-11.524-17.141
			c-10.281-11.084-26.021-11.99-36.986-1.576c-7.013,6.662-12.377,15.064-18.416,22.737c-0.609,0.774-0.768,1.905-1.297,3.296
			C661.936,245.753,683.867,243.401,707.661,240.849z M670.058,320.78c-8.172-21.313-18.559-40.669-38.472-54.945
			c0.487,3.487,0.329,6.449,1.347,8.928c4.599,11.206,9.509,22.285,14.349,33.392c6.209,14.248,6.227,14.241,21.928,12.863
			C669.371,321.003,669.528,320.931,670.058,320.78z M583.236,589.194c-2.457,0.843-3.59,0.903-4.223,1.497
			c-12.83,12.043-19.012,27.835-24.315,44.015c-0.864,2.638,0.247,6.181,4.241,5.712c9.441-1.109,18.416-3.28,23.458-12.777
			c0.651-1.226,2.606-2.168,4.112-2.465c10.074-1.992,20.502-2.789,28.852-9.885c5.568-4.732,5.275-9.145-1.742-11.228
			c-7.904-2.347-16.211-3.362-24.377-4.757c-1.057-0.181-2.838,0.493-3.399,1.351c-3.81,5.817-7.473,11.737-10.951,17.757
			c-0.657,1.139-0.665,2.978-0.312,4.317c1.49,5.63-0.869,8.396-8.02,7.735c0.98-3.727,1.44-7.527,2.961-10.842
			c3.393-7.396,7.409-14.506,10.967-21.832C581.619,595.462,582.104,592.819,583.236,589.194z M676.636,261.239
			c-0.521,4.429-0.505,8.179-1.496,11.64c-1.041,3.633-3.075,6.977-4.618,10.472c-0.604,1.365-1.132,2.776-1.55,4.208
			c-1.59,5.451-0.124,6.812,5.61,6.232c13.467-1.362,26.891-18.872,29.547-33.967C694.953,260.295,685.891,260.762,676.636,261.239z
			 M635.05,255.71c0.275,0.561,0.552,1.123,0.827,1.684c1.311,0,2.621,0.039,3.93-0.006c22.973-0.777,45.943-1.663,68.92-2.289
			c6.977-0.191,13.972,0.435,20.96,0.482c3.511,0.023,6.141-1.25,5.365-6.883c-8.778-0.574-17.694-2.131-26.466-1.543
			c-23.086,1.543-46.111,3.98-69.147,6.209C637.914,253.512,636.51,254.9,635.05,255.71z M544.439,488.823
			c2.271-6.589,4.407-13.22,6.873-19.728c1.02-2.688,0.223-4.164-1.822-5.82c-6.85-5.551-13.553-11.281-20.344-16.903
			c-0.91-0.753-2.012-1.274-3.726-2.339C526.11,461.88,526.072,478.957,544.439,488.823z M626.285,436.404
			c0.538-0.268,1.076-0.535,1.615-0.803c-0.527-1.452-0.979-2.936-1.593-4.35c-4.228-9.749-8.491-19.482-12.735-29.224
			c-1.791-4.11-3.463-8.276-5.43-12.301c-0.439-0.901-1.884-1.313-2.865-1.95c-0.486,0.93-1.344,1.842-1.391,2.795
			c-0.181,3.646,0.216,7.34-0.172,10.955C601.781,419.537,615.572,426.919,626.285,436.404z M659.57,286.16
			c1.147-9.123,2.105-16.742,3.147-25.025c-7.214,0.35-13.671,0.662-21.036,1.018C647.737,270.279,653.148,277.541,659.57,286.16z
			 M609.225,441.114c1.349-6.784-1.484-12.209-4.756-17.44c-0.552-0.883-2.018-1.736-3.021-1.693
			c-3.262,0.141-6.506,0.703-10.627,1.211C597.305,429.505,603.165,435.212,609.225,441.114z M674.029,260.878
			c-3.678-0.363-6.268-1.348-6.797,2.55c-1.18,8.688-2.562,17.354-3.506,26.067c-0.234,2.167,0.885,4.479,1.381,6.725
			c0.666,0.002,1.333,0.004,2,0.006c-3.994-8.115,0.68-14.193,3.504-20.877C672.428,271.052,672.84,266.16,674.029,260.878z"/>
		<path fill-rule="evenodd" clip-rule="evenodd" d="M736.277,994.763c0.935,4.822,3.555,8.846-1.312,12.401
			c-0.934,0.682-0.731,3.488-0.426,5.202c1.924,10.813,4.057,21.59,6.051,32.391c0.671,3.629,2.156,6.31,6.53,6.309
			c0.561,3.215,1.095,6.283,1.722,9.877c-39.098,7.398-77.782,14.719-116.883,22.117c-0.521-4.613-4.178-8.883,1.354-12.7
			c0.879-0.606,0.855-3.162,0.58-4.696c-1.977-10.973-4.113-21.918-6.23-32.866c-0.557-2.88-2.059-4.569-4.769-6.317
			c-2.271-1.465-2.767-5.678-4.353-9.383c12.116-2.309,23.147-4.41,34.504-6.573c0.898,4.418,3.943,8.476-1.182,12.159
			c-0.826,0.594-0.887,2.859-0.643,4.236c2.258,12.754,4.66,25.482,7.141,38.867c6.077-1.109,11.713-2.138,17.902-3.268
			c-2.163-11.49-4.135-22.578-6.389-33.609c-0.847-4.146-0.426-8.948-6.449-10.678c-1.55-0.444-1.767-5.533-2.773-9.12
			c11.538-2.192,22.399-4.255,33.695-6.401c0.555,4.379,3.966,8.285-0.919,11.945c-0.704,0.528-0.97,2.226-0.785,3.266
			c2.351,13.232,4.821,26.443,7.34,40.084c6.056-1.148,11.548-2.19,17.631-3.344c-0.287-2.168-0.452-4.086-0.806-5.969
			c-1.812-9.65-3.6-19.309-5.551-28.932c-0.762-3.753-0.724-7.737-5.977-9.334c-1.67-0.508-1.987-5.465-3.174-9.165
			C713.787,999.041,724.787,996.949,736.277,994.763z"/>
		<path fill-rule="evenodd" clip-rule="evenodd" d="M540.846,1038.183c4.375,0.396,8.119,0.737,12.098,1.1
			c0.362-3.315,0.598-6.106,0.983-8.877c1.22-8.766,5.646-14.229,14.185-15.93c14.15-2.817,28.195-1.732,41.748,3.305
			c7.471,2.777,11.562,8.529,11.16,16.59c-0.536,10.797-1.319,21.602-2.544,32.34c-1.053,9.234-5.626,13.952-14.853,15.627
			c-12.981,2.357-25.904,1.486-38.469-2.514c-9.713-3.092-14.115-9.91-13.635-20.088c0.148-3.119,0.471-6.23,0.748-9.796
			c-4.184-0.315-7.934-0.599-12.369-0.933c-0.256,5.217-0.521,9.982-0.689,14.75c-0.028,0.785,0.116,2.021,0.613,2.312
			c5.297,3.097,2.816,7.688,2.572,12.618c-10.885-0.827-21.578-1.64-32.973-2.505c0.65-4.405-1.787-9.278,4.312-11.848
			c1.029-0.433,1.582-2.85,1.72-4.406c1.015-11.438,1.925-22.885,2.706-34.34c0.105-1.549-0.189-4.062-1.148-4.591
			c-5.436-3-2.293-7.423-2.631-11.923c11.057,0.826,21.749,1.627,32.838,2.456c-0.404,4.284,1.71,8.538-3.551,11.476
			c-1.61,0.9-1.781,4.707-2.238,7.249C540.994,1032.675,541.044,1035.183,540.846,1038.183z M575.137,1057.24
			c0,1.223-0.496,3.697,0.139,5.836c0.652,2.201,1.936,4.86,3.762,5.958c8.033,4.829,16.07,0.674,16.926-8.546
			c0.705-7.622,1.195-15.266,1.662-22.906c0.459-7.489-2.331-10.854-9.258-11.441c-7.549-0.643-10.766,1.845-11.608,9.584
			C576.021,1042.502,575.715,1049.329,575.137,1057.24z"/>
		<path fill-rule="evenodd" clip-rule="evenodd" d="M252.076,218.136c-17.891,22.955-35.078,45.007-52.551,67.426
			c-3.178-3.051-8.404-3.658-8.131-9.637c0.055-1.181-1.839-2.657-3.102-3.658c-8.615-6.826-17.191-13.711-26.047-20.213
			c-1.982-1.456-5.176-1.143-7.535-2.237c-2.892-1.342-5.493-3.31-8.634-5.264c5.353-6.876,10.225-13.136,15.34-19.707
			c3.344,2.839,8.001,3.892,7.89,9.432c-0.02,1.005,1.384,2.237,2.391,3.036c10.172,8.06,20.398,16.051,31.054,24.41
			c2.714-3.371,5.264-6.538,8.222-10.213c-11.043-8.49-21.61-17.095-32.752-24.877c-3.244-2.266-8.619-0.898-11.631-4.826
			c-0.362-0.471-1.219-0.562-2.056-0.92c5.443-6.967,10.233-13.098,15.269-19.542c3.198,2.62,7.771,3.448,7.826,8.78
			c0.01,0.93,1.131,2.044,2.006,2.738c10.409,8.27,20.869,16.477,31.746,25.038c2.778-3.478,5.326-6.667,8.201-10.267
			c-11.041-8.497-21.646-17.059-32.737-24.938c-3.128-2.224-8.424-0.457-11.249-4.473c-0.371-0.526-0.956-0.902-1.975-1.838
			c4.967-6.385,9.912-12.742,14.969-19.243c3.445,2.849,7.865,4.187,8.013,9.614c0.037,1.35,2.188,2.811,3.601,3.925
			c8.501,6.701,16.975,13.444,25.691,19.856c1.855,1.365,4.824,1.111,7.016,2.157C245.945,214.146,248.732,216.117,252.076,218.136z
			"/>
		<path fill-rule="evenodd" clip-rule="evenodd" d="M813.282,960.547c10.628-6.749,20.012-12.708,29.933-19.007
			c1.768,3.848,6.878,6.137,3.292,11.618c-0.56,0.856,0.181,2.974,0.886,4.177c2.934,4.998,6.084,9.87,9.561,15.439
			c3.835-8.545,7.627-16.317,10.65-24.379c0.514-1.369-1.809-5.057-3.605-5.812c-6.33-2.666-6.46-2.358-9.464-8.142
			c9.583-6.075,19.208-12.176,29.068-18.427c2.217,3.959,6.759,6.66,3.21,12.018c-0.643,0.971,0.472,3.562,1.381,5.029
			c5.869,9.481,11.746,18.969,18.031,28.174c1.198,1.754,4.239,2.233,6.405,3.35c1.053,0.541,2.333,0.973,3.011,1.842
			c1.419,1.819,2.506,3.896,4.074,6.424c-9.737,6.167-19.344,12.252-29.279,18.544c-1.941-4.06-7.217-6.667-3.377-12.196
			c0.479-0.689,0.098-2.385-0.432-3.294c-2.983-5.126-6.134-10.154-9.691-15.975c-3.979,8.614-7.787,16.191-10.826,24.065
			c-0.542,1.406,1.625,5.16,3.367,5.912c6.386,2.755,6.518,2.45,9.5,8.73c-9.449,5.979-18.944,11.989-28.747,18.193
			c-2.213-4.145-6.985-6.857-3.503-12.439c0.605-0.971-0.69-3.496-1.613-4.99c-5.773-9.346-11.534-18.709-17.689-27.803
			c-1.234-1.824-4.328-2.281-6.248-3.777C818.627,965.835,816.389,963.449,813.282,960.547z"/>
		<path fill-rule="evenodd" clip-rule="evenodd" d="M467.961,997.292c-1.427,4.428-0.52,9.182-6.514,10.476
			c-1.512,0.327-2.476,4.005-3.342,6.276c-0.879,2.307-1.326,4.779-2.127,7.801c6.98,1.954,13.773,3.856,21.393,5.99
			c1.066-4.42,2.106-8.516,3.008-12.642c0.163-0.745,0.057-1.997-0.426-2.368c-4.796-3.704-1.613-7.668-0.494-12.309
			c10.963,3.02,21.765,5.995,32.945,9.074c-0.896,4.414-0.011,9.221-6.172,10.477c-1.154,0.235-2.33,2.373-2.758,3.847
			c-3.152,10.862-6.302,21.734-8.98,32.719c-0.516,2.118,1.42,4.722,1.562,7.14c0.198,3.367-0.229,6.771-0.429,11.022
			c-11.953-3.286-22.773-6.263-34.288-9.429c2.033-4.085,0.148-9.751,6.857-10.709c0.913-0.13,1.921-1.836,2.312-3.003
			c1.357-4.056,2.461-8.196,3.789-12.737c-7.266-2.013-14.092-3.904-21.51-5.959c-1.233,4.803-2.438,9.243-3.473,13.723
			c-0.207,0.896-0.142,2.397,0.418,2.843c5.033,4.013,1.102,8.002,0.303,12.676c-11.123-3.075-21.92-6.062-33.15-9.167
			c1.74-4.205,0.16-9.496,6.462-10.734c1.216-0.238,2.394-2.688,2.875-4.326c3.092-10.535,6.035-21.114,8.909-31.711
			c0.784-2.89,0.596-5.285-1.533-8.224c-1.449-2.001,0.266-6.294,0.613-10.073C445.914,991.199,456.617,994.158,467.961,997.292z"/>
		<path fill-rule="evenodd" clip-rule="evenodd" d="M805.5,1037.289c-1.659-4.67-5.245-8.399-0.917-13.133
			c0.839-0.918-0.129-3.811-0.724-5.643c-1.068-3.292-2.484-6.471-3.906-10.077c-6.951,2.642-13.578,5.161-20.754,7.888
			c1.783,4.45,3.36,8.587,5.123,12.643c0.432,0.993,1.438,2.422,2.237,2.461c6.305,0.312,5.706,5.75,7.898,10.01
			c-10.774,4.119-21.241,8.121-32.165,12.297c-1.234-4.311-5.667-7.524-1.284-12.363c0.897-0.99,0.272-3.898-0.372-5.659
			c-3.773-10.315-7.742-20.559-11.69-30.809c-1.054-2.735-2.836-4.137-5.87-5.304c-2.373-0.914-3.537-4.973-5.721-8.391
			c11.359-4.348,21.829-8.356,32.621-12.488c1.871,4.117,5.227,7.453,1.229,12.19c-0.904,1.071,0.183,4.074,0.752,6.074
			c0.769,2.698,1.924,5.287,3.143,8.536c6.94-2.645,13.649-5.201,20.834-7.939c-1.561-3.912-2.809-7.326-4.303-10.627
			c-0.517-1.14-1.593-2.793-2.511-2.859c-6.154-0.443-5.941-5.497-7.662-9.723c10.779-4.125,21.294-8.149,32.183-12.316
			c1.082,4.242,5.583,7.584,0.959,12.241c-0.847,0.853-0.37,3.599,0.22,5.204c3.846,10.469,7.712,20.938,12.025,31.218
			c0.833,1.987,3.971,2.882,5.506,4.729c2.183,2.627,3.866,5.668,6.182,9.164C827.004,1029.037,816.502,1033.067,805.5,1037.289z"/>
		<path fill-rule="evenodd" clip-rule="evenodd" d="M303.328,964.153c-2.451,3.911-4.792,7.506-6.96,11.202
			c-0.548,0.936-1.136,2.589-0.7,3.242c3.55,5.32-1.377,7.979-3.507,12.298c-9.663-6.286-19.069-12.404-28.875-18.783
			c2.786-3.55,3.087-9.032,9.601-8.297c1.198,0.136,3.002-1.966,3.969-3.407c6.12-9.133,12.281-18.25,17.961-27.655
			c1.422-2.354,1.129-5.743,1.624-8.657c-0.544-0.164-1.089-0.329-1.633-0.494c1.628-2.486,3.257-4.973,5.195-7.934
			c9.657,6.29,19.078,12.426,28.761,18.732c-2.566,3.766-3.213,8.637-9.48,8.098c-1.529-0.133-3.526,3.137-5.016,5.068
			c-1.697,2.199-3.068,4.65-5.248,8.025c12.192-2.324,25.55,1.625,30.935-13.889c8.577,5.604,16.476,10.766,24.563,16.051
			c-2.171,4.681-3.894,8.111-10.552,7.8c-7.819-0.366-15.757,1.776-24.332,2.923c2.683,3.047,5.046,5.515,7.161,8.181
			c3.726,4.696,3.932,9.583,0.848,14.839c-2.635,4.485-7.281,8.138-4.823,14.812c0.663,1.803-2.952,5.18-4.735,8.043
			c-6.977-4.54-13.641-8.648-19.98-13.209c-1.157-0.833-1.885-3.918-1.27-5.25c1.804-3.898,4.365-7.451,6.667-11.116
			c4.427-7.047,3.821-10.83-2.745-15.745C308.522,967.359,306.09,965.953,303.328,964.153z"/>
		<path fill-rule="evenodd" clip-rule="evenodd" d="M458.33,93.516c-1.174-4.704-4.43-8.386-1.477-12.869
			c0.29-0.44,0.096-1.335-0.104-1.942c-2.984-9.084-6.006-18.154-9.494-26.995c0,9.699-0.127,19.401,0.074,29.097
			c0.063,3.107-0.684,4.696-3.822,5.827c-3.154,1.138-4.476-0.116-6.104-2.319c-5.715-7.735-11.566-15.369-17.366-23.041
			c-0.376,0.184-0.751,0.365-1.127,0.548c3.312,8.966,6.237,18.102,10.106,26.819c1.785,4.023,5.413,7.229,9.003,11.825
			c-9.116,3.187-16.563,5.79-24.355,8.515c-1.392-4.314-4.688-7.791-1.743-12.691c0.773-1.288-0.249-3.888-0.872-5.742
			c-3.289-9.783-6.528-19.592-10.22-29.226c-0.955-2.493-3.721-4.231-5.209-6.597c-1.704-2.711-2.911-5.735-4.607-9.179
			c8.293-2.884,15.916-5.685,23.668-8.064c1.117-0.343,3.333,0.966,4.224,2.133c4.442,5.824,8.602,11.864,12.888,17.81
			c0.825,1.145,1.771,2.201,2.226,2.76c0-8.338,0.179-16.923-0.097-25.494c-0.098-3.025,0.629-4.441,3.589-5.359
			c7.138-2.213,14.161-4.798,21.626-7.369c1.241,4.055,4.727,7.365,1.564,12.016c-0.627,0.922-0.02,2.936,0.441,4.303
			c3.622,10.724,7.215,21.461,11.154,32.068c0.767,2.065,3.25,3.427,4.511,5.389c1.81,2.816,3.224,5.887,5.146,9.484
			C473.746,88.103,466.306,90.715,458.33,93.516z"/>
		<path fill-rule="evenodd" clip-rule="evenodd" d="M391.579,1041.9c-14.208-2.377-29.35-7.992-41.681-19.496
			c-5.666-5.285-6.557-12.287-3.61-19.375c3.96-9.523,8.12-18.977,12.559-28.287c3.434-7.201,9.601-10.831,17.502-9.834
			c15.892,2.006,30.145,8.27,42.235,18.795c5.446,4.74,7.352,11.328,4.541,18.201c-4.343,10.615-8.988,21.132-14.057,31.419
			C406.016,1039.519,400.774,1041.947,391.579,1041.9z M385.566,981.383c-1.383,1.366-4.571,3.359-6.077,6.233
			c-3.765,7.188-6.899,14.718-10.032,22.217c-2.735,6.551-0.889,10.818,5.5,13.743c7.088,3.244,11.482,1.866,14.694-4.94
			c3.185-6.75,6.159-13.602,9.134-20.447C402.766,989.028,397.708,981.457,385.566,981.383z"/>
		<path fill-rule="evenodd" clip-rule="evenodd" d="M955.035,197.742c-7.847-0.583-14.432-1.465-20.991-1.312
			c-1.892,0.043-5.304,3.095-5.276,4.721c0.092,5.497-4.371,6.923-7.251,10.345c-5.698-5.974-11.183-11.722-16.897-17.713
			c3.367-3.031,5.198-7.56,10.863-6.782c1.212,0.166,2.855-1.543,4.041-2.662c8.117-7.661,16.257-15.305,24.156-23.188
			c1.465-1.46,1.644-4.124,2.825-5.971c1.788-2.791,3.935-5.354,5.239-7.094c6.479,5.744,12.428,11.02,18.6,16.492
			c-3.453,3.145-5.161,7.268-10.396,6.747c-1.42-0.142-3.283,1.501-4.525,2.741c-3.631,3.627-7.051,7.466-10.936,11.632
			c7.024,0.381,14.07,1.069,21.096,0.907c1.558-0.037,4.47-3.229,4.311-4.705c-0.588-5.447,3.962-6.732,5.701-8.966
			c6.132,5.493,12.146,10.884,18.354,16.444c-3.518,3.189-5.378,7.473-10.854,6.682c-1.332-0.191-3.159,1.645-4.461,2.867
			c-7.773,7.297-15.598,14.552-23.076,22.145c-1.748,1.775-1.924,4.998-3.365,7.201c-1.844,2.816-4.236,5.273-6.1,7.53
			c-6.338-5.815-12.198-11.192-18.647-17.11c4.065-2.865,5.331-7.986,11.171-6.871c1.104,0.211,2.727-1.148,3.799-2.125
			C946.408,206.058,950.273,202.279,955.035,197.742z"/>
		<path fill-rule="evenodd" clip-rule="evenodd" d="M796.925,82.515c5.849,8.826,4.81,19.239-2.3,26.701
			c-4.023,4.223-9.09,4.957-14.277,3.637c-5.934-1.509-11.729-3.633-17.478-5.775c-6.853-2.555-13.595-5.406-20.374-8.154
			c-0.27-0.109-0.436-0.473-0.934-1.041c2.01-3.328,1.496-8.229,6.733-9.924c1.329-0.431,2.265-2.772,2.938-4.417
			c3.901-9.54,7.884-19.059,11.353-28.759c1.01-2.824,0.15-6.264,0.658-9.336c0.5-3.027,1.648-5.947,2.82-9.969
			c12.357,5.379,24.316,10.207,35.918,15.783c6.428,3.09,10.357,8.637,8.802,16.279C809.328,74.696,807.506,80.674,796.925,82.515z
			 M765.272,95.127c5.769,1.206,10.536,6.56,15.896,2.182c2.279-1.861,4.155-6.374,3.58-9.133
			c-1.322-6.343-8.019-6.397-13.125-8.954C769.507,84.521,767.548,89.428,765.272,95.127z M775.825,68.665
			c5.338,1.554,9.894,6.03,14.864,2.255c1.939-1.473,3.272-5.912,2.548-8.287c-1.649-5.408-7.515-5.381-11.936-7.682
			C779.378,59.769,777.732,63.887,775.825,68.665z"/>
		<path fill-rule="evenodd" clip-rule="evenodd" d="M872.859,169.016c-6.873-5.343-13.146-10.219-19.631-15.261
			c3.117-3.18,4.054-7.995,9.618-8.137c1.484-0.039,3.108-2.328,4.324-3.857c6.224-7.822,12.384-15.695,18.458-23.633
			c2.061-2.691,4.107-5.105,3.679-9.322c-0.245-2.412,3.015-5.181,5.054-8.342c6.691,5.191,12.937,10.037,19.437,15.08
			c-2.37,3.662-4.419,6.443-8.973,8.286c-4.258,1.723-7.077,7.003-10.179,11.113c10.707-0.891,21.405-1.388,26.754-13.405
			c5.931,4.601,11.273,8.746,16.658,12.924c-2.633,4.322-4.859,7.73-10.865,7.884c-6.363,0.163-12.672,2.478-18.93,3.835
			c-0.042,0.611-0.195,0.998-0.063,1.205c6.46,10.219,6.175,12.344-1.089,22.251c-2.088,2.849-2.654,6.767-4.362,9.956
			c-1.467,2.741-3.565,5.145-5.747,8.205c-4.717-3.66-9.262-6.94-13.436-10.641c-0.802-0.713-0.751-3.45-0.04-4.605
			c2.173-3.532,4.815-6.783,7.354-10.082c6.586-8.554,6.016-11.711-3.751-18.137c-2.929,5.455-9.495,8.509-8.874,16.424
			C878.447,163.177,875.016,165.883,872.859,169.016z"/>
		<path fill-rule="evenodd" clip-rule="evenodd" d="M352.04,77.75c2.146,4.237,4.163,8.225,6.444,12.733
			c4.438-2.182,8.686-4.271,13.483-6.631c1.704,3.273,3.355,6.445,5.274,10.133c-4.426,2.357-8.725,4.648-13.388,7.134
			c2.521,5.001,4.888,9.698,7.231,14.349c11.963-3.328,13.399-6.163,8.356-17.316c4.62-2.329,9.277-4.678,14.26-7.19
			c3.679,7.271,7.187,14.204,11.009,21.761c-15.541,7.854-30.887,15.609-46.658,23.58c-1.607-4.049-5.743-6.843-3.367-12.127
			c0.604-1.344-0.777-3.797-1.639-5.546c-4.554-9.25-9.045-18.542-13.992-27.581c-1.356-2.479-4.433-3.955-6.31-6.229
			c-1.948-2.36-3.399-5.131-5.502-8.395c15.895-8.035,31.237-15.792,47.116-23.819c3.347,6.606,6.539,12.909,10.021,19.779
			c-4.72,2.399-9.243,4.698-13.716,6.972C363.681,71.398,361.873,71.225,352.04,77.75z"/>
		<path fill-rule="evenodd" clip-rule="evenodd" d="M711.078,48.044c2.924,0.762,5.158,1.367,7.406,1.922
			c2.232,0.553,4.479,1.054,7.176,1.685c-0.863,3.876-1.639,7.358-2.487,11.172c-5.019-1.058-9.535-2.009-14.715-3.101
			c-1.272,5.378-2.509,10.607-3.74,15.812c13.923,4.315,13.816,4.311,17.913-7.985c4.744,1.08,9.546,2.173,15.195,3.459
			c-1.834,7.917-3.604,15.554-5.514,23.802c-17.232-3.994-33.987-7.879-51.045-11.833c1.495-4.323,0.317-9.012,5.285-11.524
			c1.439-0.728,1.967-3.711,2.467-5.769c2.4-9.859,4.866-19.713,6.809-29.666c0.545-2.792-0.922-5.919-0.895-8.887
			c0.027-3.048,0.752-6.091,1.264-9.792c17.343,4.004,34.098,7.873,51.334,11.853c-1.693,7.315-3.285,14.192-5.003,21.616
			c-5.308-1.229-10.232-2.369-15.059-3.486c0.153-10.244-1.816-12.208-13.117-13.023C713.316,38.648,712.258,43.093,711.078,48.044z
			"/>
		<path fill-rule="evenodd" clip-rule="evenodd" d="M271.768,168.691c3.975-3.394,7.631-6.514,11.729-10.014
			c5.33,6.182,10.48,12.153,15.934,18.477c-13.301,11.456-26.379,22.721-39.632,34.137c-2.823-3.637-7.271-5.742-6.307-11.346
			c0.229-1.336-1.572-3.2-2.735-4.57c-6.794-7.997-13.533-16.05-20.625-23.777c-1.812-1.974-5-2.612-7.26-4.268
			c-2.479-1.816-4.614-4.098-7.457-6.684c13.475-11.623,26.513-22.869,40.027-34.525c4.771,5.508,9.401,10.852,14.439,16.668
			c-3.954,3.525-7.732,6.895-11.475,10.231c-8.916-6.213-9.868-6.083-18.607,2.778c3.035,3.514,6.111,7.073,9.393,10.871
			c3.979-3.34,7.636-6.408,11.568-9.709c2.523,2.971,4.869,5.73,7.458,8.777c-3.759,3.281-7.354,6.42-11.307,9.87
			c3.696,4.319,7.211,8.428,10.699,12.505C278.189,180.923,278.251,180.632,271.768,168.691z"/>
		<path fill-rule="evenodd" clip-rule="evenodd" d="M987.888,244.214c-4.726,3.384-9.024,6.463-13.29,9.517
			c6.238,11.649,8.035,12.208,18.562,5.562c2.966,4.105,5.955,8.242,9.304,12.878c-6.603,4.739-13.045,9.365-19.856,14.255
			c-10.176-14.216-20.227-28.256-30.459-42.55c3.883-2.396,6.281-6.743,11.802-5.181c1.276,0.361,3.303-1.326,4.776-2.365
			c8.715-6.14,17.477-12.224,25.963-18.666c2.006-1.523,2.791-4.559,4.555-6.525c2.133-2.379,4.709-4.361,7.419-6.81
			c10.426,14.546,20.399,28.462,30.71,42.847c-5.924,4.271-11.672,8.414-17.952,12.941c-3.128-4.28-6.123-8.38-9.087-12.436
			c6.895-8.187,6.816-9.688-1.134-18.676c-1.8,1.27-3.66,2.57-5.509,3.89c-1.881,1.343-3.749,2.702-6.062,4.37
			c2.835,4.166,5.502,8.086,8.427,12.385c-3.043,2.25-5.931,4.385-9.205,6.805C993.855,252.365,991.041,248.521,987.888,244.214z"/>
		<path fill-rule="evenodd" clip-rule="evenodd" d="M530.921,9.365c0.403,1.133,0.786,1.875,0.931,2.661
			c1.133,6.193,2.221,12.396,3.401,19.044c-5.221,0.998-10.21,1.953-15.125,2.894c-3.948-9.786-4.603-10.06-17.345-7.03
			c0.851,4.554,1.711,9.158,2.646,14.164c4.964-0.828,9.513-1.588,14.613-2.439c0.773,3.605,1.521,7.09,2.392,11.15
			c-4.97,0.99-9.62,1.916-14.864,2.961c0.982,5.543,1.922,10.842,2.857,16.122c10.37-1.306,15.377,0.372,13.154-14.467
			c4.97-0.927,9.962-1.858,15.4-2.872c1.498,7.986,2.928,15.609,4.498,23.978c-17.195,3.149-34.1,6.245-51.57,9.445
			c-0.225-4.387-3.381-8.132,0.141-12.433c0.91-1.111,0.539-3.574,0.234-5.326c-1.91-10.984-3.847-21.968-6.088-32.887
			c-0.417-2.035-2.5-3.672-3.377-5.683c-1.312-3.008-2.237-6.185-3.518-9.831C497.068,15.562,513.729,12.512,530.921,9.365z"/>
		<path fill-rule="evenodd" clip-rule="evenodd" d="M311.234,140.667c2.818,3.547,4.268,7.801,10.219,7.799
			c2.18-0.002,4.36,4.419,6.967,7.291c-7.356,5.26-14.2,10.152-21.322,15.245c-2.525-3.753-6.609-6.173-5.23-11.647
			c0.361-1.434-1.459-3.587-2.586-5.193c-5.731-8.172-11.512-16.311-17.391-24.376c-1.995-2.736-3.778-5.329-7.935-6.081
			c-2.345-0.426-4.052-4.379-6.759-7.588c11.41-7.504,22.229-14.848,33.33-21.737c2.356-1.462,5.831-2.027,8.639-1.7
			c11.1,1.289,16.347,9.475,19.922,18.745c3.379,8.759,0.969,16.438-6.465,22.196C319.252,136.232,315.348,138.156,311.234,140.667z
			 M304.314,131c3.754-3.67,10.326-5.089,9.361-10.947c-0.639-3.875-4.043-8.505-7.519-10.416
			c-5.227-2.875-8.846,2.578-13.387,5.264C296.682,120.354,300.318,125.427,304.314,131z"/>
		<path fill-rule="evenodd" clip-rule="evenodd" d="M626.498,7.441c8.522,1.061,16.414,2.043,24.572,3.06
			c-0.456,4.466-0.197,8.018-4,11.647c-2.785,2.659-2.553,8.482-3.756,13.256c4.967,0.795,8.908,1.258,12.774,2.074
			c14.63,3.087,21.329,12.604,18.233,25.715c-2.189,9.266-9.309,15.053-20.475,14.695c-11.759-0.376-23.474-2.127-35.58-3.313
			c0.344-4.661-1.076-9.04,3.531-12.054c0.996-0.651,1.412-2.605,1.594-4.023c1.48-11.557,2.873-23.124,4.197-34.699
			c0.165-1.442,0.334-3.469-0.463-4.336C623.573,15.597,625.692,11.781,626.498,7.441z M642.303,47.904
			c-0.722,5.689-1.414,11.148-2.164,17.061c5.834,0.067,11.612,2.727,15.419-2.51c1.547-2.127,2.043-6.368,0.995-8.764
			C654.029,47.916,648.121,48.335,642.303,47.904z"/>
		<path fill-rule="evenodd" clip-rule="evenodd" d="M866.957,109.259c-4.722-2.761-8.851-5.176-13.156-7.693
			c2.207-4.562,4.641-8.805-0.656-12.633c-4.797-3.468-8.827-3.422-11.969,1.525c-5.26,8.281-10.141,16.824-14.771,25.476
			c-2.49,4.653-1.307,8.019,2.544,10.34c4.193,2.528,8.255,1.701,11.405-2.38c1.003-1.299,1.887-2.689,3.072-4.393
			c4.396,2.529,8.646,4.977,13.253,7.627c-3.186,5.516-6.036,10.746-9.236,15.752c-0.659,1.031-2.71,1.875-3.974,1.707
			c-11.725-1.555-22.035-6.348-30.582-14.545c-5.643-5.411-7.332-12.165-3.621-19.143c5.935-11.158,12.219-22.156,18.908-32.878
			c3.921-6.286,10.338-8.353,17.511-6.355c11.761,3.274,21.239,10.163,28.918,19.532c0.716,0.874,1.007,2.876,0.505,3.838
			C872.652,99.74,869.862,104.268,866.957,109.259z"/>
		<path fill-rule="evenodd" clip-rule="evenodd" d="M607.53,28.677c-4.042,0-8.298,0-12.923,0
			c-1.429-3.941,1.478-10.947-7.283-11.299c0,2.471-0.052,4.711,0.009,6.949c0.284,10.482,0.39,20.977,1.044,31.438
			c0.177,2.828,2.34,5.478,3.066,8.342c0.781,3.083,0.944,6.322,1.48,10.244c-8.656,0-16.549,0-24.77,0
			c-0.295-3.777-2.247-7.993,1.982-11.494c0.725-0.6,0.918-2.154,0.922-3.27c0.061-13.622,0.039-27.245,0.039-40.694
			c-6.992-0.774-7.107-0.59-7.987,10.892c-4.297,0-8.653,0-13.577,0c0-7.448,0-15.029,0-23.383
			c18.941-0.549,38.128-1.104,57.997-1.678C607.53,12.804,607.53,20.517,607.53,28.677z"/>
		<path fill-rule="evenodd" clip-rule="evenodd" d="M776.047,293.072c-2.039-1.75-4.463-3.209-6.045-5.303
			c-5.514-7.295-11.03-14.623-15.948-22.32c-2.549-3.989-4.138-8.689-5.556-13.256c-0.562-1.812,0.516-4.135,1.635-6.177
			c4.531,18.217,17.175,31.274,26.84,46.038C776.664,292.393,776.355,292.732,776.047,293.072z"/>
		<path fill-rule="evenodd" clip-rule="evenodd" d="M897.328,308.769c-17.688-9.492-35.375-18.982-53.062-28.474
			c0.254-0.476,0.508-0.952,0.763-1.427c18.108,8.838,37.147,15.926,53.439,28.182C898.088,307.623,897.707,308.196,897.328,308.769
			z"/>
		<path fill-rule="evenodd" clip-rule="evenodd" d="M770.516,292.48c-2.014,5.283,0.732,8.469,3.805,11.354
			c6.432,6.04,13.02,11.915,19.496,17.908c1.557,1.44,2.926,3.081,3.996,5.567c-1.275-0.27-2.936-0.118-3.768-0.875
			c-8.117-7.384-16.148-14.865-24.07-22.458c-1.523-1.46-2.733-3.405-3.61-5.344C764.957,295.524,765.51,293.078,770.516,292.48z"/>
		<path fill-rule="evenodd" clip-rule="evenodd" d="M736.979,306.648c-1.169-0.783-3.136-1.369-3.384-2.377
			c-2.385-9.729-4.479-19.527-6.187-29.428c8.533,8.59,6.763,20.557,10.938,30.552C737.891,305.812,737.436,306.23,736.979,306.648z
			"/>
		<path fill-rule="evenodd" clip-rule="evenodd" d="M826.471,287.937c-8.914-4.154-23.237-27.061-20.116-31.893
			C812.963,266.523,819.52,276.917,826.471,287.937z"/>
		<path fill-rule="evenodd" clip-rule="evenodd" d="M896.005,300.994c-10.077-6.611-14.87-17.562-22.104-26.525
			C884.855,280.294,889.108,291.749,896.005,300.994z"/>
		<path fill-rule="evenodd" clip-rule="evenodd" d="M948.463,324.619c-9.748-8.561-19.496-17.121-29.244-25.682
			c0.328-0.381,0.658-0.762,0.986-1.143c9.859,8.434,19.717,16.867,29.575,25.301C949.342,323.603,948.902,324.111,948.463,324.619z
			"/>
		<path fill-rule="evenodd" clip-rule="evenodd" d="M728.924,321.554c-2.108-0.946-4.043-1.176-4.541-2.145
			c-2.563-4.982-4.758-10.153-7.179-15.471C720.914,304.622,725.893,312.007,728.924,321.554z"/>
		<path fill-rule="evenodd" clip-rule="evenodd" d="M912.031,297.941c-7.7-2.512-9.053-9.713-12.898-15.145
			c0.532-0.377,1.063-0.752,1.596-1.129C904.496,287.092,908.264,292.517,912.031,297.941z"/>
		<path fill-rule="evenodd" clip-rule="evenodd" d="M803.309,276.918c5.009,3.896,10.018,7.792,15.027,11.688
			c-0.438,0.572-0.877,1.145-1.314,1.717c-5.081-3.842-10.162-7.682-15.244-11.523C802.288,278.173,802.798,277.546,803.309,276.918
			z"/>
		<path fill-rule="evenodd" clip-rule="evenodd" d="M779.689,266.736c2.697,3.295,5.395,6.59,8.092,9.885
			c-7.846,1.119-6.449-5.617-9.797-8.301C778.553,267.792,779.121,267.264,779.689,266.736z"/>
		<path fill-rule="evenodd" clip-rule="evenodd" d="M756.699,302.554c-0.504-3.076-1.01-6.152-1.732-10.561
			c5.262,4.508,5.311,4.754,3.172,10.318C757.659,302.393,757.18,302.473,756.699,302.554z"/>
		<path fill-rule="evenodd" clip-rule="evenodd" d="M987.454,323.757c2.376-5.047,4.753-10.094,7.13-15.142
			C995.398,314.942,991.027,319.25,987.454,323.757z"/>
		<path fill-rule="evenodd" clip-rule="evenodd" d="M616.411,717.624c-7.882-6.098-15.14-11.653-22.325-17.302
			c-3.046-2.393-3.629-5.594-1.843-8.92c1.163-2.165,2.983-3.967,4.382-6.018c3.27-4.791,7.166-9.311,9.562-14.514
			c9.674-21.005,19.051-42.152,28.133-63.421c2.377-5.569,3.293-11.763,5.05-18.301c15.705,1.999,30.271-3.151,44.208-10.868
			c0.429,0.224,0.858,0.447,1.287,0.672c-1.4,5.856-1.835,12.181-4.396,17.477c-6.148,12.709-12.967,25.129-20.119,37.311
			c-10.369,17.664-21.13,35.105-32.055,52.434c-2.442,3.873-1.74,7.003-0.542,10.777c0.644,2.028,0.978,5.025-0.063,6.557
			C624.361,708.41,620.326,712.83,616.411,717.624z"/>
		<path fill-rule="evenodd" clip-rule="evenodd" d="M844.17,646.367c-8.387,6.875-15.975,12.811-23.236,19.123
			c-8.506,7.393-17.117,14.521-23.567,24.207c-4.144,6.223-11.228,9.16-19.737,7.865c-12.647-1.925-25.324-2.164-38.164,0.117
			c-8.26,1.467-16.957,0.898-25.433,0.577c-5.756-0.218-10.108-12.061-6.549-18.299c1.996-3.499,4.995-6.725,8.229-9.162
			c9.298-7.01,19.941-11.689,31.286-13.758c4.44-0.81,10.19,0.743,14.159,3.163c8.336,5.084,15.588,4.477,23.48-0.586
			c9.629-6.176,19.578-11.855,29.441-17.662c1.016-0.598,2.463-1.004,3.58-0.798C826.158,642.723,834.625,644.466,844.17,646.367z"
			/>
		<path fill-rule="evenodd" clip-rule="evenodd" d="M850.509,642.035c7.464-5.192,15.017-10.265,22.331-15.661
			c1.837-1.355,3.715-3.572,4.185-5.7c1.678-7.604,2.952-15.312,4.011-23.031c1.026-7.496-2.1-13.271-9.125-15.97
			c-13.159-5.054-26.508-9.616-39.813-14.283c-2.499-0.876-5.134-1.461-7.754-1.865c-3.212-0.495-3.71-2.144-2.524-5.403
			c19.373,4.992,38.917,8.988,56.1,19.851c5.023,3.177,7.455,7.684,7.648,13.722c0.35,10.809-1.548,21.211-5.076,31.341
			c-0.543,1.561-1.939,3.058-3.324,4.052c-5.943,4.271-11.923,8.514-18.122,12.395c-2.247,1.406-5.145,1.773-7.745,2.614
			C851.035,643.408,850.771,642.721,850.509,642.035z"/>
		<path fill-rule="evenodd" clip-rule="evenodd" d="M632.211,723.332c3.404-5.984,6.217-11.219,9.374-16.234
			c0.633-1.005,2.673-1.803,3.91-1.625c4.249,0.613,8.418,1.767,12.643,2.582c2.337,0.451,4.202,0.686,4.679,3.901
			c0.48,3.239-0.962,4.64-3.285,5.827C651.219,722.03,642.31,723.37,632.211,723.332z"/>
		<path fill-rule="evenodd" clip-rule="evenodd" d="M817.691,622.051c-1.805,0-2.859,0-4.377,0c0.505-1.596,0.535-3.249,1.365-3.937
			c1.16-0.961,2.979-1.735,4.399-1.572c1.077,0.123,2.926,1.991,2.79,2.813c-0.854,5.196-1.998,10.365-3.497,15.41
			c-0.239,0.808-2.737,0.943-4.745,1.56C815.162,630.935,816.365,626.71,817.691,622.051z"/>
		<path fill-rule="evenodd" clip-rule="evenodd" d="M583.305,623.286c-1.33,0-2.66,0.052-3.986-0.011
			c-2.945-0.137-4.072-1.953-2.729-4.32c3.263-5.746,6.867-11.301,10.474-16.842c0.403-0.619,1.778-1.027,2.595-0.889
			c7.67,1.301,15.444,2.27,22.93,4.293c5.909,1.596,6.124,4.821,1.253,8.648C604.867,621.214,594.014,622.041,583.305,623.286z"/>
	</g>
</g>
</svg>
