<svg width="1363" height="1119" viewBox="0 0 1363 1119" fill="none" xmlns="http://www.w3.org/2000/svg">
<path d="M1108.79 706.903H992.881V822.987H1108.79V706.903Z" stroke="#05A099" stroke-width="4" stroke-miterlimit="10"/>
<path d="M1095.87 237.126H896.601V397.492H1095.87V237.126Z" stroke="#05A099" stroke-width="4" stroke-miterlimit="10"/>
<path d="M1119.27 521.553H1034.88V606.073H1119.27V521.553Z" stroke="#05A099" stroke-width="4" stroke-miterlimit="10"/>
<path d="M1115.59 334.406L995.463 245.265V149.773L1115.59 238.914V334.406Z" fill="#D39D7E"/>
<path d="M995.463 245.265L875.342 334.406V238.914L995.463 149.773V245.265Z" fill="#D39D7E"/>
<path opacity="0.3" d="M1024.4 338.883H966.324V397.534H1024.4V338.883Z" fill="#05A099"/>
<path d="M694 806H529V936H694V806Z" stroke="#05A099" stroke-width="4" stroke-miterlimit="10"/>
<path d="M610.852 728.254C527.985 728.254 527.146 802.973 527.146 802.973V883.016C527.146 883.016 527.985 808.297 610.852 808.297C695.009 808.297 695.846 883.016 695.846 883.016V802.973C695.846 802.973 695.01 728.254 610.852 728.254Z" fill="#05A099"/>
<path opacity="0.3" d="M635.309 899.065C635.309 899.065 635.073 877.971 611.316 877.971C587.922 877.971 587.685 899.065 587.685 899.065V921.661C587.685 921.661 587.696 920.748 587.922 919.304V936.588H635.073V919.33C635.299 920.76 635.309 921.661 635.309 921.661V899.065H635.309Z" fill="#05A099"/>
<path d="M1127.62 572.824L1076.75 532.167V481.839L1127.62 522.496V572.824Z" fill="#05A099"/>
<path d="M1076.75 532.167L1025.87 572.824V522.496L1076.75 481.839V532.167Z" fill="#05A099"/>
<path opacity="0.3" d="M1086 575.162H1068.14V606.073H1086V575.162Z" fill="#05A099"/>
<path d="M726.636 315.166H637.452V404.488H726.636V315.166Z" stroke="#05A099" stroke-width="4" stroke-miterlimit="10"/>
<path d="M735.462 369.35L681.699 326.383V273.195L735.462 316.162V369.35Z" fill="#05A099"/>
<path d="M681.699 326.383L627.937 369.35V316.162L681.699 273.195V326.383Z" fill="#05A099"/>
<path opacity="0.3" d="M691.478 371.82H672.609V404.488H691.478V371.82Z" fill="#05A099"/>
<path d="M1120.26 777.321L1050.39 721.481V624.437L1120.26 680.277V777.321Z" fill="#D39D7E"/>
<path d="M1050.39 721.481L980.515 777.321V680.277L1050.39 624.437V721.481Z" fill="#D39D7E"/>
<path d="M551.205 328.277L474.902 267.296V161.32L551.205 222.3V328.277Z" fill="#05A099"/>
<path d="M474.902 267.296L398.601 328.277V222.3L474.902 161.32V267.296Z" fill="#05A099"/>
<path d="M538.678 251.376H412.105V378.146H538.678V251.376Z" stroke="#05A099" stroke-width="4" stroke-miterlimit="10"/>
<path opacity="0.3" d="M503.2 331.783H446.605V378.146H503.2V331.783Z" fill="#05A099"/>
<path opacity="0.3" d="M1076.75 780.532H1024.92V822.988H1076.75V780.532Z" fill="#05A099"/>
<path d="M848.256 465.221H537.896V650.601H848.256V465.221Z" stroke="#05A099" stroke-width="4" stroke-miterlimit="10"/>
<path d="M848.256 465.221H537.896V494.476H848.256V465.221Z" stroke="#05A099" stroke-width="4" stroke-miterlimit="10"/>
<path d="M848.256 621.391H537.896V650.646H848.256V621.391Z" stroke="#05A099" stroke-width="4" stroke-miterlimit="10"/>
<path opacity="0.3" d="M801.946 506.908H585.747C572.518 506.908 563.476 514.636 563.476 535.857V580.875C563.476 600.295 573.943 609.823 585.747 609.823H801.946C814.037 609.823 824.217 599.369 824.217 580.875V535.857C824.218 515.562 814.037 506.908 801.946 506.908ZM807.107 572.536C807.107 584.18 798.273 590.762 787.783 590.762H600.198C589.957 590.762 580.874 584.764 580.874 572.536V544.194C580.874 530.835 588.72 525.97 600.198 525.97H787.783C798.273 525.97 807.107 531.416 807.107 544.194V572.536Z" fill="#05A099"/>
<path d="M848.256 465.221H537.896V472.099H848.256V465.221Z" fill="#05A099"/>
<path d="M848.256 478.848H537.896V485.726H848.256V478.848Z" fill="#05A099"/>
<path d="M848.256 620.821H537.896V627.699H848.256V620.821Z" fill="#05A099"/>
<path d="M848.256 634.447H537.896V641.326H848.256V634.447Z" fill="#05A099"/>
<path d="M619.806 465.221H615.674V494.476H619.806V465.221Z" fill="#05A099"/>
<path d="M767.097 465.221H762.963V494.476H767.097V465.221Z" fill="#05A099"/>
<path d="M619.806 621.391H615.674V650.646H619.806V621.391Z" fill="#05A099"/>
<path d="M767.097 621.391H762.963V650.646H767.097V621.391Z" fill="#05A099"/>
<path d="M396.97 519.716H276.628V625.562H396.97V519.716Z" stroke="#05A099" stroke-width="4" stroke-miterlimit="10"/>
<path d="M396.97 519.716H276.628V537.405H396.97V519.716Z" stroke="#05A099" stroke-width="4" stroke-miterlimit="10"/>
<path d="M396.97 607.873H276.628V625.562H396.97V607.873Z" stroke="#05A099" stroke-width="4" stroke-miterlimit="10"/>
<path d="M396.97 519.716H276.628V523.875H396.97V519.716Z" fill="#05A099"/>
<path d="M396.97 527.561H276.628V531.719H396.97V527.561Z" fill="#05A099"/>
<path d="M396.97 607.528H276.628V611.687H396.97V607.528Z" fill="#05A099"/>
<path d="M396.97 615.373H276.628V619.532H396.97V615.373Z" fill="#05A099"/>
<path d="M308.389 519.716H306.786V537.405H308.389V519.716Z" fill="#05A099"/>
<path d="M365.5 519.716H363.898V537.405H365.5V519.716Z" fill="#05A099"/>
<path d="M308.389 607.873H306.786V625.562H308.389V607.873Z" fill="#05A099"/>
<path d="M365.5 607.873H363.898V625.562H365.5V607.873Z" fill="#05A099"/>
<path d="M308.899 706.023H188.558V811.869H308.899V706.023Z" stroke="#05A099" stroke-width="4" stroke-miterlimit="10"/>
<path d="M308.899 706.023H188.558V723.712H308.899V706.023Z" stroke="#05A099" stroke-width="4" stroke-miterlimit="10"/>
<path d="M308.899 794.18H188.558V811.869H308.899V794.18Z" stroke="#05A099" stroke-width="4" stroke-miterlimit="10"/>
<path d="M308.899 706.023H188.558V710.182H308.899V706.023Z" fill="#05A099"/>
<path d="M308.899 713.868H188.558V718.027H308.899V713.868Z" fill="#05A099"/>
<path d="M308.899 793.835H188.558V797.994H308.899V793.835Z" fill="#05A099"/>
<path d="M308.899 801.679H188.558V805.839H308.899V801.679Z" fill="#05A099"/>
<path d="M220.319 706.023H218.716V723.712H220.319V706.023Z" fill="#05A099"/>
<path d="M277.43 706.023H275.827V723.712H277.43V706.023Z" fill="#05A099"/>
<path d="M220.319 794.18H218.716V811.869H220.319V794.18Z" fill="#05A099"/>
<path d="M277.43 794.18H275.827V811.869H277.43V794.18Z" fill="#05A099"/>
<path d="M855.514 728.254H735.172V834.1H855.514V728.254Z" stroke="#05A099" stroke-width="4" stroke-miterlimit="10"/>
<path d="M855.514 728.254H735.172V745.943H855.514V728.254Z" stroke="#05A099" stroke-width="4" stroke-miterlimit="10"/>
<path d="M855.514 816.411H735.172V834.099H855.514V816.411Z" stroke="#05A099" stroke-width="4" stroke-miterlimit="10"/>
<path d="M855.514 728.254H735.172V732.413H855.514V728.254Z" fill="#05A099"/>
<path d="M855.514 736.098H735.172V740.257H855.514V736.098Z" fill="#05A099"/>
<path d="M855.514 816.066H735.172V820.224H855.514V816.066Z" fill="#05A099"/>
<path d="M855.514 823.91H735.172V828.069H855.514V823.91Z" fill="#05A099"/>
<path d="M766.933 728.254H765.331V745.943H766.933V728.254Z" fill="#05A099"/>
<path d="M824.044 728.254H822.442V745.943H824.044V728.254Z" fill="#05A099"/>
<path d="M766.933 816.411H765.331V834.099H766.933V816.411Z" fill="#05A099"/>
<path d="M824.044 816.411H822.442V834.099H824.044V816.411Z" fill="#05A099"/>
<path d="M313.286 351.565H192.945V457.411H313.286V351.565Z" stroke="#05A099" stroke-width="4" stroke-miterlimit="10"/>
<path d="M313.286 351.565H192.945V369.254H313.286V351.565Z" stroke="#05A099" stroke-width="4" stroke-miterlimit="10"/>
<path d="M313.286 439.722H192.945V457.411H313.286V439.722Z" stroke="#05A099" stroke-width="4" stroke-miterlimit="10"/>
<path d="M313.286 351.565H192.945V355.724H313.286V351.565Z" fill="#05A099"/>
<path d="M313.286 359.41H192.945V363.569H313.286V359.41Z" fill="#05A099"/>
<path d="M313.286 439.377H192.945V443.535H313.286V439.377Z" fill="#05A099"/>
<path d="M313.286 447.221H192.945V451.38H313.286V447.221Z" fill="#05A099"/>
<path d="M224.705 351.565H223.103V369.254H224.705V351.565Z" fill="#05A099"/>
<path d="M281.817 351.565H280.214V369.254H281.817V351.565Z" fill="#05A099"/>
<path d="M224.705 439.722H223.103V457.411H224.705V439.722Z" fill="#05A099"/>
<path d="M281.817 439.722H280.214V457.411H281.817V439.722Z" fill="#05A099"/>
<path d="M474.902 331.783V378.146" stroke="#05A099" stroke-width="4" stroke-miterlimit="10"/>
<path d="M479.321 355.975H485.534" stroke="#05A099" stroke-width="4" stroke-miterlimit="10"/>
<path d="M464.294 355.975H470.508" stroke="#05A099" stroke-width="4" stroke-miterlimit="10"/>
<path d="M1050.81 780.532V822.988" stroke="#05A099" stroke-width="4" stroke-miterlimit="10"/>
<path d="M1054.86 802.685H1060.55" stroke="#05A099" stroke-width="4" stroke-miterlimit="10"/>
<path d="M1041.1 802.685H1046.79" stroke="#05A099" stroke-width="4" stroke-miterlimit="10"/>
<path d="M999.849 374.104H1006.03" stroke="#05A099" stroke-width="4" stroke-miterlimit="10"/>
<path d="M984.895 374.104H991.079" stroke="#05A099" stroke-width="4" stroke-miterlimit="10"/>
<path d="M995.463 338.842V397.492" stroke="#05A099" stroke-width="4" stroke-miterlimit="10"/>
<path d="M611.497 877.971V936.622" stroke="#05A099" stroke-width="4" stroke-miterlimit="10"/>
<path d="M428.319 863.123C447.588 863.123 456.345 841.367 453.258 833.772C450.171 826.177 436.348 805.542 428.319 805.542C420.29 805.542 405.542 825.472 403.161 834.332C400.752 843.301 411.458 863.123 428.319 863.123Z" fill="#52B3AB"/>
<path d="M431.033 845.954H425.413V898.207H431.033V845.954Z" fill="#CC9271"/>
<path d="M159.398 530.348C179.701 530.348 188.927 507.425 185.675 499.423C182.422 491.421 167.858 469.68 159.398 469.68C150.939 469.68 135.399 490.679 132.892 500.014C130.354 509.462 141.633 530.348 159.398 530.348Z" fill="#52B3AB"/>
<path d="M162.258 512.259H156.337V567.314H162.258V512.259Z" fill="#CC9271"/>
<path d="M210.43 576.763C229.721 576.763 238.486 554.984 235.396 547.381C232.305 539.777 218.468 519.12 210.43 519.12C202.392 519.12 187.628 539.072 185.245 547.941C182.833 556.92 193.55 576.763 210.43 576.763Z" fill="#52B3AB"/>
<path d="M213.147 559.575H207.521V611.885H213.147V559.575Z" fill="#CC9271"/>
<path d="M313.1 243.865H307.474V296.175H313.1V243.865Z" fill="#CC9271"/>
<path d="M985.324 891.432C1004.42 891.432 1013.1 869.87 1010.04 862.343C1006.98 854.816 993.281 834.365 985.324 834.365C977.366 834.365 962.749 854.117 960.391 862.899C958.003 871.787 968.613 891.432 985.324 891.432Z" fill="#52B3AB"/>
<path d="M988.014 874.417H982.444V926.204H988.014V874.417Z" fill="#CC9271"/>
<path d="M921.156 852.419C938.205 852.419 945.952 833.171 943.221 826.451C940.488 819.732 928.26 801.475 921.156 801.475C914.053 801.475 901.004 819.108 898.898 826.947C896.767 834.881 906.239 852.419 921.156 852.419Z" fill="#52B3AB"/>
<path d="M923.558 837.229H918.586V883.46H923.558V837.229Z" fill="#CC9271"/>
<path d="M824.019 285.855C843.709 285.855 852.657 263.625 849.502 255.864C846.347 248.103 832.223 227.017 824.019 227.017C815.814 227.017 800.744 247.383 798.311 256.436C795.85 265.6 806.789 285.855 824.019 285.855Z" fill="#52B3AB"/>
<path d="M826.792 268.312H821.049V321.707H826.792V268.312Z" fill="#CC9271"/>
<path d="M734.514 251.285C751.871 251.285 759.758 231.689 756.977 224.848C754.197 218.007 741.746 199.42 734.514 199.42C727.282 199.42 713.998 217.372 711.855 225.353C709.684 233.43 719.327 251.285 734.514 251.285Z" fill="#52B3AB"/>
<path d="M736.959 235.82H731.897V282.886H736.959V235.82Z" fill="#CC9271"/>
<path d="M967.487 432.881C967.487 432.881 861.1 432.881 729.626 432.881" stroke="#D9D9D9" stroke-width="21" stroke-miterlimit="10"/>
<path d="M962.312 432.673C962.312 432.673 1036.25 432.673 1127.62 432.673" stroke="#D9D9D9" stroke-width="21" stroke-miterlimit="10"/>
<path d="M962.312 434.76C962.312 472.018 962.312 502.166 962.312 502.166" stroke="#D9D9D9" stroke-width="21" stroke-miterlimit="10"/>
<path d="M962.312 502.167C962.312 521.819 944.448 528.918 922.372 528.918" stroke="#D9D9D9" stroke-width="21" stroke-miterlimit="10"/>
<path d="M922.372 528.917C922.372 528.917 894.356 528.917 859.734 528.917" stroke="#D9D9D9" stroke-width="21" stroke-miterlimit="10"/>
<path d="M996.233 432.881C996.233 417.187 996.233 404.488 996.233 404.488" stroke="#D9D9D9" stroke-width="21" stroke-miterlimit="10"/>
<path d="M681.699 437.126C681.699 424.144 681.699 413.64 681.699 413.64" stroke="#D9D9D9" stroke-width="21" stroke-miterlimit="10"/>
<path d="M996.233 432.881C996.233 509.522 996.233 571.539 996.233 571.539" stroke="#D9D9D9" stroke-width="21" stroke-miterlimit="10"/>
<path d="M996.233 571.539C996.233 596.448 984.895 616.604 950.165 616.604" stroke="#D9D9D9" stroke-width="21" stroke-miterlimit="10"/>
<path d="M918.951 659.846C918.951 635.945 926.96 616.604 950.165 616.604" stroke="#D9D9D9" stroke-width="21" stroke-miterlimit="10"/>
<path d="M918.951 659.846C918.951 720.425 918.951 793.835 918.951 793.835" stroke="#D9D9D9" stroke-width="21" stroke-miterlimit="10"/>
<path d="M918.951 688.029C918.951 688.029 729.487 688.029 495.346 688.029" stroke="#D9D9D9" stroke-width="21" stroke-miterlimit="10"/>
<path d="M898.599 887.582C898.599 887.582 814.939 887.582 711.55 887.582" stroke="#D9D9D9" stroke-width="21" stroke-miterlimit="10"/>
<path d="M917.831 737.098C917.831 737.098 941.525 737.098 970.807 737.098" stroke="#D9D9D9" stroke-width="21" stroke-miterlimit="10"/>
<path d="M743.123 432.847C743.123 432.847 635.161 432.847 501.741 432.847" stroke="#D9D9D9" stroke-width="21" stroke-miterlimit="10"/>
<path d="M474.127 477.975C474.127 477.975 440.596 477.975 399.159 477.975" stroke="#D9D9D9" stroke-width="21" stroke-miterlimit="10"/>
<path d="M474.235 567.314C474.235 567.314 448.154 567.314 415.923 567.314" stroke="#D9D9D9" stroke-width="21" stroke-miterlimit="10"/>
<path d="M377.568 424.639C377.568 424.639 377.568 439.783 377.568 458.498" stroke="#D9D9D9" stroke-width="21" stroke-miterlimit="10"/>
<path d="M485.068 751.086C415.763 751.086 415.763 751.086 327.93 751.086" stroke="#D9D9D9" stroke-width="21" stroke-miterlimit="10"/>
<path d="M356.319 404.968C343.374 404.968 343.374 404.968 326.968 404.968" stroke="#D9D9D9" stroke-width="21" stroke-miterlimit="10"/>
<path d="M511.654 683.984C511.654 701.506 511.654 701.506 511.654 723.712" stroke="#D9D9D9" stroke-width="21" stroke-miterlimit="10"/>
<path d="M474.133 668.195C474.133 679.157 483.915 688.029 496.001 688.029" stroke="#D9D9D9" stroke-width="21" stroke-miterlimit="10"/>
<path d="M377.568 458.054C377.568 469.016 387.349 477.887 399.436 477.887" stroke="#D9D9D9" stroke-width="21" stroke-miterlimit="10"/>
<path d="M377.568 424.844C377.568 413.882 367.91 405.011 355.974 405.011" stroke="#D9D9D9" stroke-width="21" stroke-miterlimit="10"/>
<path d="M484.481 751.086C511.748 751.271 511.654 737.099 511.654 714.868" stroke="#D9D9D9" stroke-width="21" stroke-miterlimit="10"/>
<path d="M477.39 432.847C477.39 432.847 501.479 432.847 531.249 432.847" stroke="#D9D9D9" stroke-width="21" stroke-miterlimit="10"/>
<path d="M474.127 386.938C474.127 542.399 474.127 668.197 474.127 668.197" stroke="#D9D9D9" stroke-width="21" stroke-miterlimit="10"/>
<path d="M342.734 274.247L309.031 185.126L309.034 184.38L308.897 184.772L308.705 184.265V185.327L277.841 274.362H308.729L308.729 274.247H342.734Z" fill="#008E83"/>
<path d="M244.21 232.238H239.696V274.203H244.21V232.238Z" fill="#CC9271"/>
<path d="M267.983 256.611L240.946 185.115L240.948 184.517L240.839 184.832L240.685 184.424V185.276L215.924 256.703H240.703L240.704 256.611H267.983Z" fill="#008E83"/>
<path d="M792.56 187.484H787.838V231.393H792.56V187.484Z" fill="#CC9271"/>
<path d="M817.434 212.987L789.144 138.178L789.146 137.552L789.032 137.882L788.871 137.456V138.346L762.963 213.083H788.89L788.891 212.987H817.434Z" fill="#008E83"/>
<path d="M374.355 880.972H368.885V931.828H374.355V880.972Z" fill="#CC9271"/>
<path d="M403.165 910.508L370.399 823.865L370.401 823.14L370.269 823.521L370.082 823.028V824.061L340.076 910.62H370.104L370.105 910.508H403.165Z" fill="#008E83"/>
<path d="M942.795 922.021H938.134V965.361H942.795V922.021Z" fill="#CC9271"/>
<path d="M967.347 947.193L939.424 873.353L939.425 872.735L939.313 873.06L939.154 872.639V873.52L913.581 947.288H939.173L939.173 947.193H967.347Z" fill="#008E83"/>
<path fill-rule="evenodd" clip-rule="evenodd" d="M379.911 553.577C379.598 552.937 379.007 552.548 378.52 552.07C377.444 551.014 376.336 549.988 375.246 548.946C374.634 548.36 374.03 547.765 373.424 547.174C373.378 547.128 373.329 547.079 373.304 547.023C372.822 545.908 371.964 545.114 371.033 544.388C370.901 544.284 370.831 544.19 370.855 544.024C370.917 543.593 371.013 543.161 371.024 542.728C371.035 542.325 370.962 541.919 370.904 541.517C370.893 541.438 370.784 541.374 370.721 541.302C370.653 541.372 370.552 541.428 370.523 541.511C370.445 541.729 370.423 541.969 370.332 542.18C370.221 542.439 370.061 542.677 369.922 542.923C369.885 542.913 369.849 542.902 369.812 542.892C369.833 542.437 369.857 541.981 369.872 541.525C369.879 541.331 369.876 541.136 369.858 540.942C369.853 540.882 369.79 540.791 369.743 540.784C369.693 540.776 369.607 540.839 369.579 540.894C369.508 541.035 369.447 541.183 369.406 541.334C369.28 541.805 369.029 542.194 368.717 542.565C368.425 542.912 368.188 543.305 367.923 543.676C367.861 543.762 367.798 543.873 367.708 543.912C366.794 544.308 365.871 544.682 364.958 545.078C363.216 545.833 361.454 546.549 359.745 547.372C351.085 551.545 345.762 562.091 334.778 559.859C330.505 558.99 326.334 557.472 321.907 558.253C319.244 558.722 316.917 560.146 314.185 560.341C306.986 560.856 307.906 573.396 307.99 578.245C308.026 580.336 307.964 582.428 308.011 584.519C308.038 585.72 307.921 587.089 308.141 588.271C308.421 589.774 308.946 589.723 309.504 590.679C309.834 591.247 310.357 591.388 310.817 591.871C311.294 591.43 311.947 591.413 312.53 591.032C312.175 591.264 312.056 596.162 312.071 597.142C312.092 598.505 312.259 601.164 313.359 602.148C313.427 602.21 313.511 602.248 313.588 602.296C314.372 602.296 315.156 602.296 315.94 602.296C316.213 602.279 316.473 602.214 316.719 602.1C315.19 598.082 314.818 595.124 315.235 590.639C315.283 590.124 315.448 589.6 315.659 589.122C316.121 588.077 316.647 587.059 317.145 586.029C317.195 585.927 317.232 585.819 317.265 585.735C317.475 586.414 317.721 587.077 317.884 587.761C318.57 590.622 318.544 593.61 319.278 596.441C319.589 597.645 321.578 601.717 322.645 601.736C323.424 601.749 324.204 601.738 324.983 601.722C325.396 601.713 325.546 601.443 325.339 601.074C323.089 597.075 320.62 593.599 321.107 588.721C321.215 587.641 321.442 586.574 321.625 585.502C321.909 583.833 322.533 582.286 323.288 580.779C324.022 579.315 324.737 577.84 325.432 576.358C326.368 574.363 327.97 574.615 330.137 575.193C332.289 575.779 334.117 577.128 336.3 577.681C338.915 578.342 341.573 578.61 344.271 578.54C345.996 578.496 347.708 578.345 349.412 578.085C349.775 578.03 350.138 577.976 350.557 577.912C350.571 578.474 350.591 578.984 350.595 579.493C350.629 584.855 350.037 591.136 351.33 596.32C351.657 597.631 351.281 600.025 352.47 600.912C353.771 601.882 356.053 601.124 357.549 601.119C357.952 601.116 358.132 600.825 357.947 600.472C357.506 599.633 356.903 598.904 356.204 598.275C355.555 597.69 355.106 597.001 354.927 596.165C354.679 595.01 354.514 593.839 354.613 592.65C354.693 591.676 354.744 590.701 354.859 589.732C354.976 588.745 355.167 587.768 355.299 586.782C355.451 585.659 355.506 584.518 355.723 583.408C356.225 580.84 356.369 578.554 357.722 576.264C358.892 574.282 360.423 572.742 360.771 570.357C361.511 565.295 364.011 561.161 365.631 556.416C365.852 555.77 366.244 555.288 366.853 554.998C367.501 554.69 368.153 554.368 368.897 554.715C368.986 554.757 369.096 554.761 369.197 554.772C369.686 554.829 370.201 554.803 370.66 554.952C372.093 555.414 373.562 555.703 375.037 555.978C375.346 556.036 375.585 556.165 375.717 556.449C375.89 556.82 376.193 556.973 376.581 557.016C377.021 557.066 377.44 557.003 377.875 556.912C378.193 556.846 378.379 556.78 378.369 556.435C378.452 556.43 378.517 556.432 378.58 556.421C379.392 556.275 379.851 556.035 379.783 555.198C379.759 554.906 379.864 554.605 379.911 554.307C379.911 554.062 379.911 553.82 379.911 553.577ZM315.042 580.631C314.785 581.154 314.489 581.657 314.211 582.169C314.184 582.163 314.158 582.158 314.131 582.151C314.131 581.991 314.129 581.83 314.131 581.669C314.159 579.65 314.216 577.629 314.208 575.61C314.196 572.704 314.063 566.95 314.236 568.24C314.486 570.111 315.046 571.906 315.582 573.708C316.289 576.082 316.14 578.397 315.042 580.631Z" fill="#CACACA"/>
<path fill-rule="evenodd" clip-rule="evenodd" d="M295.907 386.525C295.594 385.885 295.003 385.497 294.516 385.019C293.439 383.962 292.332 382.937 291.241 381.894C290.629 381.309 290.025 380.714 289.42 380.122C289.373 380.077 289.324 380.028 289.299 379.971C288.818 378.857 287.959 378.063 287.029 377.337C286.896 377.232 286.827 377.139 286.851 376.973C286.913 376.541 287.008 376.11 287.019 375.676C287.03 375.274 286.957 374.868 286.9 374.466C286.888 374.387 286.78 374.323 286.716 374.251C286.649 374.321 286.548 374.377 286.518 374.46C286.44 374.678 286.419 374.918 286.327 375.129C286.216 375.388 286.057 375.625 285.918 375.871C285.881 375.861 285.845 375.851 285.808 375.841C285.828 375.386 285.852 374.93 285.867 374.474C285.874 374.28 285.872 374.084 285.854 373.891C285.849 373.831 285.785 373.739 285.739 373.733C285.688 373.725 285.602 373.788 285.574 373.843C285.503 373.983 285.442 374.132 285.401 374.283C285.276 374.754 285.024 375.142 284.712 375.513C284.42 375.861 284.183 376.254 283.918 376.624C283.856 376.711 283.793 376.822 283.703 376.861C282.79 377.257 281.867 377.631 280.954 378.027C279.211 378.782 277.45 379.498 275.74 380.321C267.08 384.494 261.757 395.04 250.774 392.807C246.5 391.939 242.329 390.421 237.902 391.201C235.24 391.671 232.913 393.094 230.18 393.29C222.981 393.805 223.901 406.345 223.985 411.194C224.022 413.285 223.96 415.377 224.007 417.468C224.034 418.669 223.917 420.038 224.137 421.22C224.417 422.722 224.941 422.671 225.499 423.628C225.83 424.196 226.352 424.337 226.812 424.82C227.29 424.379 227.942 424.362 228.526 423.98C228.17 424.212 228.052 429.11 228.066 430.09C228.088 431.454 228.255 434.112 229.354 435.097C229.422 435.159 229.507 435.197 229.584 435.245C230.368 435.245 231.151 435.245 231.935 435.245C232.208 435.228 232.468 435.163 232.715 435.049C231.186 431.031 230.814 428.073 231.231 423.588C231.278 423.073 231.443 422.548 231.655 422.071C232.117 421.025 232.643 420.008 233.141 418.977C233.19 418.876 233.227 418.767 233.26 418.684C233.471 419.363 233.716 420.025 233.88 420.709C234.566 423.57 234.54 426.558 235.273 429.39C235.585 430.593 237.574 434.666 238.64 434.685C239.42 434.698 240.199 434.687 240.979 434.671C241.392 434.662 241.541 434.392 241.335 434.023C239.084 430.024 236.615 426.547 237.103 421.67C237.211 420.59 237.438 419.522 237.62 418.451C237.904 416.782 238.529 415.235 239.283 413.728C240.018 412.264 240.733 410.789 241.428 409.307C242.364 407.311 243.965 407.564 246.132 408.142C248.284 408.728 250.113 410.077 252.295 410.63C254.911 411.291 257.569 411.558 260.267 411.489C261.992 411.445 263.704 411.294 265.408 411.034C265.77 410.978 266.133 410.925 266.553 410.861C266.566 411.422 266.587 411.932 266.59 412.442C266.625 417.804 266.032 424.085 267.326 429.269C267.653 430.58 267.276 432.974 268.465 433.861C269.766 434.831 272.048 434.072 273.545 434.067C273.948 434.064 274.128 433.774 273.942 433.42C273.502 432.581 272.899 431.853 272.2 431.223C271.551 430.639 271.102 429.95 270.922 429.114C270.674 427.959 270.509 426.788 270.608 425.598C270.689 424.625 270.74 423.65 270.855 422.681C270.971 421.693 271.163 420.716 271.295 419.731C271.447 418.607 271.502 417.467 271.719 416.357C272.221 413.789 272.364 411.503 273.717 409.213C274.887 407.231 276.419 405.691 276.767 403.306C277.507 398.243 280.007 394.11 281.626 389.364C281.847 388.719 282.24 388.237 282.849 387.946C283.496 387.638 284.148 387.316 284.893 387.664C284.982 387.706 285.092 387.71 285.193 387.721C285.682 387.778 286.197 387.752 286.656 387.9C288.089 388.363 289.558 388.652 291.032 388.927C291.341 388.984 291.58 389.114 291.712 389.398C291.885 389.769 292.189 389.921 292.577 389.965C293.017 390.015 293.436 389.952 293.871 389.86C294.189 389.794 294.375 389.729 294.365 389.384C294.448 389.379 294.513 389.381 294.576 389.37C295.388 389.224 295.846 388.984 295.778 388.146C295.755 387.855 295.859 387.553 295.907 387.255C295.907 387.011 295.907 386.769 295.907 386.525ZM231.038 413.58C230.781 414.102 230.485 414.606 230.207 415.117C230.18 415.112 230.153 415.106 230.126 415.1C230.126 414.939 230.124 414.778 230.127 414.618C230.154 412.598 230.211 410.578 230.203 408.559C230.192 405.653 230.059 399.899 230.231 401.189C230.482 403.06 231.042 404.854 231.577 406.656C232.284 409.03 232.135 411.347 231.038 413.58Z" fill="#D39D7E"/>
<path fill-rule="evenodd" clip-rule="evenodd" d="M839.961 763.214C839.648 762.574 839.057 762.186 838.569 761.708C837.493 760.651 836.385 759.626 835.295 758.583C834.683 757.998 834.079 757.403 833.473 756.811C833.427 756.766 833.378 756.717 833.353 756.66C832.871 755.545 832.013 754.752 831.082 754.026C830.949 753.921 830.88 753.828 830.904 753.662C830.966 753.23 831.061 752.799 831.073 752.365C831.084 751.963 831.011 751.557 830.954 751.155C830.943 751.076 830.834 751.012 830.77 750.94C830.702 751.01 830.601 751.066 830.572 751.149C830.495 751.367 830.473 751.607 830.382 751.818C830.27 752.077 830.111 752.314 829.972 752.56C829.936 752.55 829.899 752.54 829.862 752.53C829.882 752.075 829.907 751.619 829.921 751.163C829.929 750.969 829.926 750.773 829.908 750.58C829.903 750.52 829.84 750.428 829.793 750.422C829.743 750.414 829.656 750.477 829.629 750.532C829.558 750.672 829.496 750.821 829.455 750.972C829.329 751.443 829.078 751.831 828.766 752.202C828.475 752.55 828.237 752.943 827.973 753.313C827.911 753.4 827.848 753.511 827.758 753.55C826.844 753.946 825.921 754.32 825.008 754.716C823.266 755.471 821.504 756.187 819.794 757.01C811.135 761.183 805.812 771.728 794.828 769.496C790.554 768.628 786.383 767.11 781.956 767.89C779.293 768.36 776.966 769.783 774.234 769.979C767.035 770.494 767.955 783.034 768.038 787.883C768.075 789.973 768.013 792.066 768.06 794.157C768.087 795.358 767.97 796.727 768.191 797.909C768.471 799.411 768.995 799.36 769.552 800.317C769.884 800.885 770.405 801.026 770.866 801.509C771.343 801.068 771.996 801.051 772.579 800.669C772.224 800.901 772.105 805.799 772.12 806.779C772.141 808.143 772.308 810.801 773.407 811.786C773.476 811.848 773.56 811.886 773.638 811.934C774.421 811.934 775.205 811.934 775.988 811.934C776.262 811.917 776.522 811.852 776.768 811.738C775.239 807.72 774.867 804.762 775.284 800.277C775.331 799.762 775.496 799.237 775.708 798.76C776.17 797.714 776.696 796.697 777.194 795.666C777.243 795.565 777.28 795.456 777.314 795.373C777.524 796.052 777.769 796.714 777.932 797.398C778.619 800.259 778.593 803.247 779.326 806.079C779.638 807.282 781.626 811.355 782.694 811.374C783.473 811.387 784.252 811.376 785.032 811.36C785.445 811.351 785.594 811.081 785.387 810.712C783.137 806.713 780.668 803.236 781.155 798.359C781.264 797.279 781.491 796.211 781.673 795.14C781.957 793.471 782.582 791.923 783.337 790.417C784.071 788.953 784.786 787.478 785.481 785.996C786.417 784 788.018 784.253 790.185 784.831C792.337 785.417 794.165 786.766 796.348 787.319C798.964 787.98 801.622 788.247 804.32 788.178C806.045 788.133 807.756 787.983 809.461 787.723C809.823 787.667 810.186 787.614 810.605 787.55C810.619 788.111 810.639 788.621 810.643 789.131C810.677 794.493 810.084 800.774 811.378 805.958C811.705 807.268 811.328 809.662 812.517 810.55C813.819 811.52 816.1 810.761 817.597 810.756C818 810.753 818.18 810.463 817.994 810.109C817.553 809.27 816.951 808.542 816.252 807.912C815.603 807.328 815.154 806.639 814.975 805.803C814.726 804.648 814.562 803.477 814.661 802.287C814.741 801.314 814.792 800.339 814.907 799.37C815.023 798.382 815.215 797.405 815.347 796.42C815.499 795.296 815.554 794.156 815.771 793.046C816.273 790.478 816.417 788.192 817.769 785.902C818.94 783.92 820.471 782.38 820.819 779.995C821.559 774.932 824.059 770.799 825.678 766.053C825.899 765.407 826.292 764.926 826.901 764.635C827.548 764.327 828.2 764.005 828.945 764.353C829.034 764.395 829.144 764.399 829.245 764.41C829.735 764.467 830.249 764.441 830.708 764.589C832.141 765.052 833.61 765.341 835.085 765.616C835.394 765.673 835.633 765.803 835.765 766.087C835.938 766.458 836.241 766.61 836.629 766.654C837.069 766.703 837.488 766.641 837.923 766.549C838.241 766.483 838.427 766.418 838.418 766.073C838.5 766.068 838.566 766.07 838.629 766.059C839.44 765.913 839.899 765.673 839.831 764.835C839.807 764.544 839.913 764.242 839.959 763.944C839.961 763.7 839.961 763.457 839.961 763.214ZM775.092 790.269C774.834 790.791 774.539 791.295 774.26 791.806C774.233 791.8 774.207 791.795 774.18 791.788C774.18 791.628 774.178 791.467 774.18 791.307C774.208 789.287 774.265 787.267 774.257 785.248C774.245 782.342 774.112 776.588 774.285 777.878C774.535 779.749 775.096 781.543 775.632 783.345C776.338 785.719 776.189 788.035 775.092 790.269Z" fill="#CACACA"/>
<path fill-rule="evenodd" clip-rule="evenodd" d="M290.719 740.983C290.406 740.343 289.815 739.955 289.328 739.477C288.252 738.42 287.144 737.395 286.054 736.353C285.442 735.767 284.838 735.172 284.232 734.58C284.186 734.535 284.137 734.486 284.112 734.429C283.63 733.315 282.772 732.521 281.841 731.795C281.708 731.69 281.639 731.597 281.663 731.431C281.725 730.999 281.821 730.568 281.832 730.134C281.843 729.732 281.77 729.326 281.712 728.924C281.701 728.845 281.592 728.781 281.529 728.709C281.461 728.779 281.36 728.835 281.331 728.918C281.253 729.136 281.231 729.376 281.14 729.587C281.029 729.846 280.869 730.083 280.73 730.329C280.693 730.319 280.657 730.309 280.62 730.299C280.641 729.844 280.665 729.388 280.679 728.932C280.687 728.738 280.684 728.542 280.666 728.349C280.661 728.289 280.598 728.197 280.551 728.191C280.501 728.183 280.415 728.246 280.387 728.301C280.316 728.441 280.254 728.59 280.214 728.741C280.088 729.212 279.837 729.6 279.525 729.971C279.233 730.319 278.996 730.712 278.731 731.082C278.669 731.169 278.606 731.28 278.516 731.319C277.602 731.715 276.679 732.089 275.766 732.485C274.024 733.24 272.262 733.956 270.553 734.779C261.893 738.952 256.569 749.498 245.586 747.265C241.313 746.397 237.142 744.879 232.715 745.659C230.052 746.129 227.725 747.552 224.992 747.748C217.793 748.263 218.714 760.803 218.797 765.652C218.834 767.742 218.772 769.835 218.819 771.926C218.846 773.127 218.729 774.496 218.949 775.678C219.229 777.18 219.754 777.129 220.312 778.086C220.642 778.654 221.165 778.795 221.625 779.278C222.102 778.837 222.755 778.82 223.338 778.438C222.983 778.67 222.864 783.568 222.879 784.548C222.9 785.912 223.067 788.57 224.166 789.555C224.235 789.617 224.319 789.655 224.396 789.703C225.18 789.703 225.964 789.703 226.748 789.703C227.021 789.686 227.281 789.621 227.527 789.507C225.998 785.489 225.626 782.531 226.043 778.046C226.091 777.53 226.256 777.006 226.467 776.529C226.929 775.483 227.455 774.466 227.953 773.435C228.003 773.334 228.04 773.225 228.073 773.142C228.283 773.821 228.529 774.483 228.692 775.167C229.378 778.028 229.352 781.016 230.085 783.848C230.397 785.051 232.386 789.124 233.453 789.143C234.232 789.156 235.012 789.145 235.791 789.129C236.204 789.12 236.354 788.85 236.147 788.481C233.897 784.482 231.428 781.005 231.915 776.128C232.023 775.048 232.25 773.98 232.432 772.909C232.717 771.24 233.341 769.693 234.096 768.186C234.83 766.722 235.545 765.247 236.24 763.765C237.176 761.769 238.778 762.022 240.945 762.6C243.096 763.186 244.925 764.535 247.108 765.088C249.723 765.749 252.381 766.016 255.079 765.947C256.804 765.903 258.516 765.752 260.22 765.492C260.583 765.436 260.946 765.383 261.365 765.319C261.379 765.88 261.399 766.39 261.403 766.9C261.437 772.262 260.845 778.543 262.138 783.727C262.465 785.037 262.088 787.431 263.278 788.319C264.579 789.289 266.861 788.53 268.357 788.525C268.76 788.522 268.94 788.232 268.755 787.878C268.314 787.039 267.711 786.311 267.012 785.681C266.363 785.097 265.914 784.408 265.735 783.572C265.487 782.417 265.322 781.246 265.421 780.056C265.501 779.083 265.552 778.108 265.667 777.139C265.784 776.151 265.975 775.174 266.107 774.189C266.259 773.065 266.314 771.925 266.531 770.815C267.033 768.247 267.177 765.961 268.53 763.671C269.7 761.689 271.231 760.149 271.579 757.764C272.319 752.701 274.819 748.568 276.439 743.822C276.66 743.177 277.052 742.695 277.661 742.404C278.308 742.096 278.961 741.774 279.705 742.122C279.794 742.164 279.904 742.168 280.005 742.179C280.494 742.236 281.009 742.21 281.468 742.358C282.901 742.821 284.37 743.11 285.845 743.385C286.154 743.442 286.393 743.572 286.525 743.856C286.698 744.227 287.001 744.379 287.389 744.423C287.829 744.473 288.248 744.41 288.683 744.318C289.001 744.252 289.187 744.187 289.177 743.842C289.26 743.837 289.325 743.839 289.388 743.828C290.2 743.682 290.659 743.442 290.59 742.604C290.567 742.313 290.672 742.011 290.719 741.713C290.719 741.469 290.719 741.227 290.719 740.983ZM225.85 768.038C225.593 768.56 225.297 769.064 225.018 769.575C224.992 769.569 224.965 769.564 224.938 769.557C224.938 769.397 224.936 769.236 224.939 769.076C224.966 767.056 225.023 765.036 225.015 763.017C225.004 760.111 224.87 754.357 225.043 755.647C225.293 757.518 225.854 759.312 226.389 761.114C227.096 763.488 226.948 765.804 225.85 768.038Z" fill="#D39D7E"/>
<rect x="1147.37" y="397.943" width="68.2992" height="68.3336" rx="21.5" stroke="#05A099" stroke-width="7"/>
<path d="M1165.75 457H1176.62V439.648C1177.63 439.792 1178.93 439.864 1180.37 439.864C1186.85 439.864 1192.39 438.28 1196.14 434.752C1199.02 432.016 1200.6 427.984 1200.6 423.232C1200.6 418.48 1198.51 414.448 1195.42 412C1192.18 409.408 1187.35 408.112 1180.58 408.112C1173.89 408.112 1169.14 408.544 1165.75 409.12V457ZM1176.62 416.824C1177.42 416.608 1178.93 416.392 1181.16 416.392C1186.63 416.392 1189.73 419.056 1189.73 423.52C1189.73 428.488 1186.13 431.44 1180.3 431.44C1178.71 431.44 1177.56 431.368 1176.62 431.152V416.824Z" fill="#05A099"/>
</svg>
