<svg width="131" height="112" viewBox="0 0 131 112" fill="none" xmlns="http://www.w3.org/2000/svg">
<path d="M41.4428 71.5491C40.9858 71.5491 40.4028 71.4011 40.0114 71.0483C39.9205 70.9664 39.829 70.8844 39.7373 70.8024C38.9601 70.1065 38.1564 69.3868 37.505 68.5268C36.9097 67.7401 35.8082 66.2845 37.4048 64.7655C37.7169 64.3521 38.1539 64.0235 38.5418 63.7317C38.6741 63.6322 38.8488 63.5008 38.977 63.3906C38.5865 62.9577 38.0599 62.518 37.5452 62.2012C36.9561 61.8384 36.0792 61.4894 35.2312 61.152C33.3502 60.4033 31.5736 59.6961 31.1966 58.3678C30.9061 57.3446 30.7498 56.5695 30.5985 55.8197C30.3903 54.788 30.2106 53.8968 29.7153 52.5693L29.7103 52.5561C29.1222 50.98 28.514 49.3502 28.7476 47.5048C29.0312 45.2642 30.3413 44.0217 32.6412 43.812C34.0044 43.6876 35.0535 42.8635 35.9054 42.0271C35.8972 41.9798 35.8848 41.9215 35.8663 41.8557C35.6955 41.2465 35.4948 40.6235 35.3006 40.0211C34.8999 38.7774 34.4856 37.4914 34.2751 36.165C33.3842 30.5488 34.9939 25.8447 39.0598 22.1751C38.679 21.9293 38.1936 21.862 37.5378 21.9508C36.168 22.1366 34.829 22.6934 33.1961 23.7567C31.6279 24.7781 29.5205 26.0456 27.1242 26.7856C24.2531 27.6721 21.3161 27.8918 18.3948 27.4387C18.1268 27.3971 17.8816 27.3342 17.5976 27.2614C17.4649 27.2274 17.3219 27.1907 17.1631 27.1531L16.0019 26.8779L16.7161 25.9292C16.98 25.5787 17.2366 25.2304 17.4848 24.8936C18.0319 24.1515 18.5485 23.4505 19.1106 22.7633C22.0067 19.2231 24.8993 17.0175 28.2138 15.8222C32.9602 14.1103 37.6121 14.7477 42.0397 17.7167C43.1591 18.4674 44.2027 18.9402 45.6563 18.8074C48.0985 18.5847 50.6076 18.7754 53.1142 19.3739C56.4646 20.1735 58.8769 22.1261 60.284 25.1772C60.7594 26.2079 61.2317 27.2138 61.7816 28.1872L60.4108 28.9489C59.8322 27.9249 59.3249 26.8444 58.8549 25.8254C57.642 23.1952 55.6438 21.5805 52.7464 20.8888C50.4072 20.3303 48.0701 20.1522 45.8001 20.3591C43.7693 20.5448 42.3696 19.8189 41.1594 19.0075C37.1723 16.3341 32.9974 15.7551 28.7507 17.2866C25.7153 18.3813 23.0398 20.4335 20.3308 23.7449C19.7936 24.4016 19.2883 25.0872 18.7534 25.8131C18.7305 25.8441 18.7076 25.8751 18.6847 25.9064C21.3506 26.3128 24.0326 26.1081 26.6569 25.2978C28.8534 24.6195 30.7591 23.4797 32.3335 22.4542C34.172 21.257 35.7114 20.6256 37.3249 20.4069C38.8579 20.1993 40.0299 20.6443 40.8082 21.7301L41.1604 22.2216L40.769 22.683C40.744 22.7124 40.723 22.7393 40.7038 22.7638C40.6455 22.8376 40.5731 22.9294 40.4698 23.0179C36.5607 26.3596 34.9989 30.7013 35.8273 35.9226C36.019 37.1307 36.3971 38.3042 36.7974 39.5465C36.996 40.1629 37.2014 40.8001 37.3803 41.4384C37.5747 42.1334 37.5137 42.6284 37.1939 42.9518C36.1132 44.0442 34.7445 45.1846 32.7852 45.3634C31.2165 45.5065 30.4984 46.1831 30.3066 47.6987C30.1209 49.1663 30.6373 50.55 31.184 52.0151L31.189 52.0284C31.7271 53.471 31.9274 54.4633 32.1393 55.5139C32.2846 56.2347 32.4351 56.98 32.7091 57.9454C32.8766 58.5355 34.6458 59.2396 35.8164 59.7057C36.7269 60.068 37.6684 60.4428 38.374 60.8771C39.1391 61.3482 39.9009 62.0159 40.4118 62.6635C40.6168 62.9237 40.7038 63.2254 40.6631 63.5362C40.5825 64.1521 40.0524 64.5509 39.4913 64.973C39.174 65.2117 38.8142 65.4822 38.642 65.7276L38.5929 65.7975L38.5297 65.8552C38.0333 66.3089 37.9273 66.4889 38.7615 67.591C39.3218 68.3308 40.0683 68.9993 40.7903 69.6458C40.883 69.729 40.9756 69.8118 41.0678 69.8948C41.1221 69.9399 41.3206 70.0014 41.4711 69.9899C41.559 69.9832 41.6795 69.9825 41.9024 69.9818C42.1176 69.9811 42.5947 69.9798 42.9133 69.9559C43.0881 69.3586 43.1341 68.9654 43.2244 68.1948C43.2743 67.7687 43.3363 67.2385 43.4393 66.5167C43.452 66.4193 43.4424 66.0707 43.4372 65.8834C43.4312 65.6682 43.4261 65.4825 43.4324 65.3466C43.5519 62.7498 43.4797 60.962 41.4681 59.8144C41.351 59.7476 41.2209 59.6744 41.0804 59.5953C38.232 57.9923 35.2268 56.1039 35.6298 53.9754C35.9623 52.2203 37.4733 51.9561 38.8065 51.7231C39.3325 51.6311 39.8764 51.536 40.4083 51.361C42.4181 50.6996 43.3689 49.7389 44.6849 48.4093C45.1058 47.984 45.583 47.502 46.1317 46.9948C46.5831 46.5777 47.0039 46.125 47.4496 45.6459C47.6554 45.4246 47.8682 45.1957 48.086 44.9688L48.7039 44.3247L49.2667 45.0166C49.3298 45.094 49.3903 45.1664 49.4483 45.2357C49.5777 45.3903 49.6999 45.5364 49.8179 45.6989C50.4044 46.5061 51.0222 47.6864 51.6763 48.936C52.3983 50.3154 53.145 51.7417 53.7968 52.5369L52.5775 53.5198C51.8244 52.6011 51.0401 51.1029 50.2817 49.654C49.7068 48.5558 49.1132 47.4217 48.6071 46.6998C48.6063 46.7007 48.6055 46.7015 48.6047 46.7024C48.1589 47.1817 47.6979 47.6774 47.2032 48.1348C46.6799 48.6184 46.2358 49.0671 45.8064 49.501C44.3912 50.9307 43.2735 52.06 40.9033 52.8401C40.2625 53.051 39.634 53.1609 39.0794 53.2579C37.6624 53.5055 37.2904 53.6498 37.1741 54.2633C37.1353 54.4687 37.1976 55.067 38.6133 56.1829C39.6451 56.9962 40.9755 57.7449 41.8559 58.2403C41.9993 58.3209 42.1321 58.3957 42.2517 58.4639C45.2436 60.1707 45.1098 63.0799 45.0021 65.4175C44.9985 65.4965 45.0036 65.6794 45.008 65.8408C45.0193 66.2483 45.0244 66.5306 44.9952 66.7355C44.8951 67.4375 44.8343 67.9572 44.7854 68.3747C44.6751 69.3166 44.6144 69.8354 44.2868 70.8237C44.0507 71.5337 43.1981 71.5364 41.9073 71.5403C41.785 71.5406 41.6328 71.5411 41.5915 71.5438C41.5438 71.5474 41.494 71.5491 41.4428 71.5491Z" fill="#05A099"/>
<path d="M63.6475 58.1589C63.635 58.1589 63.6225 58.1587 63.61 58.1583C62.6342 58.1285 60.5922 56.6962 59.4619 55.8451C58.7625 55.3184 56.4407 53.5166 55.9293 52.4423C55.7996 52.1701 55.7943 51.8596 55.9147 51.5682C56.1435 51.0141 56.8105 50.4248 59.3231 49.3495C60.9387 48.658 62.9518 47.9239 64.7279 47.2761C66.1257 46.7664 67.7995 46.156 68.5735 45.7995L66.5011 39.4564C66.3448 39.1774 65.7799 38.1418 65.2506 36.827C64.4083 34.7347 64.0821 33.0101 64.2814 31.7012L65.8351 31.9338C65.5162 34.0289 67.2223 37.5687 67.9066 38.7559L67.9468 38.8258L70.3911 46.3074L70.1181 46.6368C69.7678 47.0593 68.8263 47.4419 65.2703 48.7388C63.5811 49.3549 61.6666 50.0531 60.1205 50.7061C58.4636 51.4059 57.7914 51.8218 57.5215 52.0319C57.926 52.5403 58.9288 53.4804 60.335 54.5459C61.52 55.4439 62.4661 56.0386 63.0591 56.3484C62.8662 55.8399 62.3594 55.0362 61.1864 53.9538L59.9684 52.8299L61.6176 52.6111C61.6521 52.6066 65.1061 52.1397 68.4529 50.9323C71.3523 49.8863 74.774 48.0632 74.6138 45.3156C74.6034 45.1718 74.4216 42.6457 74.3745 40.1164C74.283 35.2049 74.704 34.1906 75.566 33.9625C76.3078 33.7666 77.2578 34.3696 79.3357 35.7522C80.2695 36.3736 81.235 37.0161 82.0924 37.4821C83.323 38.1511 83.6719 38.0814 83.6861 38.0785C83.6601 38.0845 83.6237 38.1098 83.5994 38.1362L85.1246 38.4516C85.0168 38.9642 84.7126 39.3456 84.2675 39.5255C83.0596 40.0138 81.2678 38.9145 78.46 37.0462C77.6915 36.5348 76.6943 35.8711 76.1408 35.6014C75.854 36.8505 75.8618 40.8833 76.1813 45.2079L76.1821 45.2188C76.2828 46.9062 75.5231 48.4378 73.9243 49.7712C72.7346 50.7633 71.067 51.6493 68.9678 52.4046C66.8287 53.1742 64.6954 53.6493 63.324 53.9072C65.2447 56.1355 64.7066 57.3859 64.5117 57.6995C64.3371 57.9894 64.0183 58.1589 63.6475 58.1589Z" fill="#05A099"/>
<path d="M89.5334 108.846C88.9033 108.846 88.1842 108.816 87.8787 108.693C87.5868 108.575 87.3905 108.329 87.3534 108.034C87.3275 107.828 87.3803 107.662 87.4247 107.553C87.3517 107.46 87.1591 107.261 86.6759 106.949C84.9183 105.814 85.4666 104.633 85.7007 104.128C85.7284 104.069 85.7647 103.99 85.7806 103.946C85.5543 100.08 82.2235 85.4122 82.0408 84.6103C81.8827 84.1227 81.7161 83.6518 81.555 83.1961C81.2346 82.2903 80.9322 81.4348 80.7714 80.6514C80.6252 79.9359 80.4146 79.2373 80.1918 78.4979C80.1452 78.3437 80.0989 78.1895 80.053 78.0352C80.0147 77.9061 79.9751 77.8349 79.9583 77.8113C79.1102 77.1249 78.7068 76.2035 78.3662 75.318C78.2251 74.952 77.9177 74.814 77.3411 74.5823C77.1912 74.522 77.0361 74.4597 76.8803 74.3876C75.3007 73.6567 73.8869 72.9748 72.5824 72.0302C69.3309 69.675 66.2992 67.0027 63.7625 64.6993C63.4404 64.4067 63.1259 64.1034 62.8218 63.8101C62.0535 63.0689 61.3277 62.3688 60.4747 61.8131C60.1491 61.6011 59.9137 61.3111 59.7059 61.0552C59.5931 60.9163 59.4867 60.7852 59.3812 60.6846C58.9387 60.2627 58.483 59.8367 58.0424 59.4247C56.5999 58.0759 55.1081 56.681 53.7735 55.1502C53.1762 54.4652 52.6911 53.7171 52.2453 53.0097L53.5779 52.184C53.991 52.8397 54.4382 53.5302 54.9621 54.1311C56.2442 55.6019 57.7064 56.969 59.1203 58.291C59.5636 58.7055 60.022 59.134 60.4699 59.5612C60.6476 59.7303 60.7975 59.9151 60.9299 60.078C61.0781 60.2606 61.2182 60.4331 61.3372 60.5107C62.3157 61.1481 63.1299 61.9334 63.9174 62.6931C64.2132 62.9783 64.519 63.2734 64.8237 63.5501C67.3286 65.8246 70.3195 68.4615 73.5092 70.7718C74.7013 71.6351 75.9874 72.255 77.5448 72.9755C77.6639 73.0307 77.7937 73.083 77.9313 73.1382C78.5691 73.3944 79.4426 73.7454 79.8342 74.7624C80.1219 75.5107 80.4052 76.1659 80.9602 76.6108C81.2289 76.8262 81.4309 77.1575 81.5605 77.5957C81.6055 77.7471 81.6513 77.8994 81.6973 78.0517C81.9203 78.7919 82.151 79.5573 82.3114 80.3414C82.4505 81.0198 82.7358 81.8264 83.0377 82.6804C83.206 83.1561 83.3799 83.648 83.5476 84.1674L83.5657 84.2328C83.7108 84.8672 87.116 99.798 87.35 103.868C87.3816 104.233 87.2413 104.536 87.1279 104.78C87.0675 104.91 86.9922 105.072 87.0035 105.139C87.0049 105.146 87.0406 105.325 87.5334 105.644C88.1777 106.06 88.8582 106.596 88.9958 107.281C89.7529 107.305 90.9704 107.267 91.515 107.18C91.633 106.506 91.589 104.672 91.1725 103.989C91.0142 103.729 90.7748 103.337 89.868 95.8924C89.3562 91.6904 88.7709 86.386 88.3008 82.124C88.2903 82.0286 88.2798 81.9336 88.2694 81.8389L88.2651 81.8268L88.2581 81.7362C87.9823 79.237 87.7371 77.0189 87.5547 75.4606C87.5151 75.1304 87.4732 74.784 87.4291 74.4202L87.4077 74.2432C87.4065 74.2337 87.4056 74.2245 87.4047 74.2151C87.4031 74.2034 87.4022 74.1957 87.4017 74.1919L87.4026 74.1918C87.3526 73.5481 87.8745 73.3408 88.0855 73.3154C88.3806 73.279 88.8733 73.4363 88.9611 74.0034L88.9614 74.0033C88.9616 74.0054 88.962 74.0083 88.9625 74.0122C88.9635 74.0196 88.9645 74.0271 88.9655 74.0347L88.9818 74.166C89.0215 74.485 89.0663 74.859 89.1157 75.2807C89.5009 78.4846 89.741 80.6197 89.8157 81.5036C90.5468 83.5857 95.5884 98.0042 95.6646 99.8978C95.6803 100.287 95.6992 100.755 95.7244 100.976C95.8058 101.036 95.9116 101.119 96.0371 101.243C96.1762 101.381 96.3524 101.521 96.5228 101.655C96.9897 102.024 97.5189 102.442 97.6136 103.102C97.6223 103.162 97.628 103.219 97.6322 103.271C97.7775 103.285 98.0422 103.293 98.5038 103.256C98.8287 103.23 99.12 103.209 99.3822 103.19C99.9546 103.148 100.414 103.114 100.737 103.067C100.475 102.593 100.012 101.901 99.7255 101.473C99.3272 100.877 98.983 100.363 98.8293 100.027C98.0502 98.3274 97.6567 96.3786 97.2763 94.4942C97.1138 93.6898 96.9604 92.9301 96.7808 92.2033C96.4625 90.9154 96.1219 89.604 95.7926 88.3358C95.1347 85.802 94.4544 83.1821 93.9057 80.5788C93.6392 79.3137 92.9252 74.4989 92.783 73.3488C92.6181 72.0129 93.3628 70.2566 94.0199 68.707C94.3481 67.9327 94.6876 67.1321 94.7401 66.7356C94.7598 66.5245 94.6594 65.5537 94.6054 65.0323C94.5436 64.4357 94.5087 64.0887 94.5079 63.8928C94.5056 63.3577 94.4303 63.0136 94.3506 62.6492C94.2537 62.2062 94.1535 61.7483 94.2093 61.066C94.3158 59.7643 94.5728 58.7703 95.524 57.8376C96.5362 56.8454 97.3521 55.6858 97.9493 54.3908C98.2171 53.8108 98.5501 53.0894 99.0676 52.4769C99.2513 52.2594 99.5936 51.8543 100.147 51.9389C100.519 51.9957 100.803 52.2527 100.99 52.703C101.03 52.7986 101.206 52.9311 101.334 53.0278C101.982 53.516 102.605 53.84 103.207 54.1533C104.494 54.8233 105.709 55.456 106.537 57.3657C107.371 59.2891 108.539 60.2783 110.211 60.4787C110.769 60.5456 111.149 60.4959 111.444 60.3177C112.51 59.6709 113.081 58.185 112.715 57.0051C112.409 56.0177 112.049 54.9703 111.547 53.6092C111.324 53.0033 111.081 52.3881 110.847 51.7931C110.596 51.1595 110.338 50.5043 110.098 49.8494C109.562 48.3867 109.572 47.0509 110.128 45.8792C110.474 45.1504 110.367 44.6794 109.72 44.0795C109.568 43.9383 109.433 43.7943 109.304 43.6549C109.175 43.5161 109.052 43.3851 108.929 43.2753C108.12 42.5566 107.96 41.6142 107.874 40.7872C107.85 40.5661 107.856 40.3538 107.86 40.1664C107.865 39.9761 107.869 39.7963 107.842 39.663C107.689 38.9082 107.979 38.3576 108.248 37.9622C108.615 37.423 108.866 36.9149 109.008 36.4163C108.567 36.8657 108.11 37.3137 107.624 37.7358C107.31 38.0089 106.476 38.7327 105.319 38.0885C105.288 38.0782 105.201 38.0637 104.967 38.0679C104.952 38.0682 104.938 38.0683 104.924 38.0683C104.17 38.0683 103.72 37.6667 103.621 36.9049C103.55 36.3619 103.462 35.8261 103.366 35.2782C103.193 35.6181 103.045 35.9626 102.923 36.3089C102.55 37.3672 101.739 37.2427 101.408 37.14C100.15 36.7502 98.8202 36.8243 97.2243 37.3735C96.5643 37.6007 95.9332 37.8859 95.2649 38.1878C94.9998 38.3076 94.7346 38.4274 94.4678 38.5433C93.6517 38.8977 92.9293 38.6358 92.5335 37.8423C92.5077 38.1671 92.3361 38.4651 92.0509 38.6538C91.3457 39.1206 90.8282 39.8043 90.2803 40.5282C90.0361 40.8509 89.7834 41.1846 89.5085 41.5052C88.8899 42.2263 87.9813 42.6264 87.0252 42.6051C86.1023 42.5839 85.257 42.1666 84.7057 41.4601C84.5039 41.2014 84.3252 40.9951 84.1084 40.8287C84.0791 40.8063 84.048 40.7838 84.0165 40.7609C83.744 40.5629 83.2376 40.1949 83.2037 39.4864C83.1549 38.6746 83.5729 38.0482 83.8229 37.6735C83.9336 37.5077 83.9348 37.4541 83.8313 37.2919C83.3767 36.5784 82.9013 36.1291 82.2899 35.8348C80.0906 34.7765 78.7563 33.2463 78.3237 31.2866C78.1903 30.6825 78.3308 30.0817 78.4549 29.5516C78.4812 29.4398 78.5071 29.3289 78.5298 29.22C78.83 27.7718 79.1509 26.2951 79.4613 24.8671C79.5852 24.2972 79.7097 23.7248 79.8341 23.1482L80.1774 21.5582L81.2119 22.8198C81.4277 23.083 81.652 23.3483 81.8691 23.6049C82.6584 24.5384 83.4747 25.5036 84.1177 26.6381C85.3781 28.8607 86.6629 30.4496 88.1611 31.6386C89.3506 32.5828 89.9629 33.7883 89.9808 35.2215C89.9861 35.6355 90.103 35.9762 90.5877 36.2909L90.2888 35.0895L92.2912 37.1163C92.2271 36.8081 92.0582 36.4976 91.8798 36.1697C91.7837 35.993 91.6841 35.8101 91.5928 35.6142C91.5694 35.5639 91.5437 35.5151 91.5181 35.4663C91.4158 35.2698 91.2884 35.0255 91.24 34.7059C91.1171 33.8974 90.7442 33.2491 90.1001 32.7241C89.3656 32.1259 88.9329 31.3814 88.5144 30.6613C88.473 30.5899 88.4314 30.5184 88.3896 30.4471C87.3167 28.6183 86.1323 26.9618 84.8692 25.5235C84.1026 24.6504 83.4425 23.8409 83.1274 22.7738C82.4511 20.4808 81.1692 18.529 79.8119 16.4626L79.5965 16.1345C79.3104 15.6979 79.0014 15.6772 78.8998 15.6704C78.2374 15.6263 77.6071 15.3883 76.973 14.9427C76.885 14.8809 76.7181 14.817 76.557 14.7552C76.1164 14.5866 75.4507 14.3318 75.2716 13.6085C75.1309 13.0384 75.3064 12.4915 75.4615 12.0089C75.5149 11.8424 75.5655 11.6851 75.597 11.5448L75.6381 11.3634C75.8191 10.5689 75.9899 9.81837 75.8307 9.07567C75.7295 8.60439 75.5186 7.62298 76.2692 6.94883C76.5928 6.65832 76.8422 6.29553 77.0814 5.90246C75.9967 5.93411 75.2719 5.77137 74.392 5.26952C73.4063 4.70747 72.3972 4.5721 71.307 4.8556L71.1785 4.88891C70.1147 5.16385 69.4447 5.36925 69.0909 6.09695C68.7669 6.76369 68.7612 7.5026 68.7874 8.39928C68.8306 9.88771 69.0053 10.5771 69.975 10.9938C70.4909 11.2154 70.8408 11.6546 70.9107 12.1685C70.9764 12.6514 70.7807 13.1269 70.3873 13.4404C69.9372 13.799 69.5585 14.2316 69.1576 14.6895L69.0176 14.849C68.7352 15.1702 68.4355 15.4675 68.1458 15.755C67.4746 16.4211 66.8405 17.0503 66.5085 17.8831C65.5419 20.309 65.0793 22.3756 65.9627 24.5767C66.2858 25.3812 66.6363 26.4546 66.4777 27.6233C66.3408 28.6287 66.1848 29.645 66.0337 30.6278C65.967 31.0627 65.9002 31.4977 65.8349 31.9328C65.7441 32.5367 65.3788 32.732 65.1691 32.7946C64.9112 32.8718 64.5177 32.8688 64.1077 32.4174C64.0011 32.3004 63.9038 32.1827 63.8098 32.069C63.6925 31.927 63.5815 31.7929 63.4685 31.6797C62.4653 30.6757 61.3356 29.6632 59.8055 28.3966L60.8124 27.2004C62.324 28.4517 63.4589 29.4655 64.469 30.4677C64.4728 30.4428 64.4767 30.418 64.4804 30.3932C64.6303 29.4168 64.7854 28.4073 64.9204 27.4152C65.0303 26.6056 64.755 25.781 64.5029 25.1531C63.3647 22.3177 64.0918 19.7082 65.0472 17.3105C65.4989 16.1773 66.2795 15.4027 67.0343 14.6537C67.318 14.3721 67.5859 14.1062 67.8334 13.8249L67.9711 13.6679C68.3544 13.2301 68.7495 12.7791 69.2291 12.3694C67.3047 11.4707 67.2519 9.65466 67.2167 8.44457C67.1925 7.61655 67.1593 6.48243 67.6754 5.42057C68.363 4.00645 69.7044 3.65974 70.7823 3.38129L70.9084 3.34867C72.3971 2.96154 73.8325 3.1535 75.1752 3.91899C75.9519 4.36193 76.4329 4.45192 78.3387 4.24067L79.0554 4.1613L79.1965 4.86271C79.3134 5.44433 78.9969 5.83779 78.8446 6.02683C78.8218 6.05517 78.7905 6.09393 78.7813 6.10874L78.6656 6.30557C78.3043 6.92195 77.9308 7.55928 77.324 8.10428C77.244 8.17616 77.337 8.60936 77.3676 8.75174C77.5986 9.82879 77.3811 10.7836 77.1709 11.707L77.1305 11.885C77.0838 12.0924 77.0202 12.2905 76.9587 12.482C76.884 12.7147 76.7938 12.9958 76.791 13.1627C76.8745 13.2069 77.0193 13.2623 77.1228 13.302C77.3623 13.3936 77.6337 13.4975 77.8815 13.6717C78.278 13.9502 78.6351 14.0914 79.0054 14.1161C79.7758 14.1675 80.4536 14.5829 80.9141 15.2856L81.1287 15.6124C82.4885 17.6825 83.8944 19.8231 84.6357 22.3365C84.8616 23.1015 85.3887 23.7423 86.0544 24.5005C87.3825 26.0129 88.6252 27.7501 89.7479 29.6638C89.7908 29.7369 89.8335 29.8103 89.8761 29.8835C90.2402 30.5103 90.5843 31.1023 91.0976 31.5204C92.0424 32.2902 92.6132 33.2841 92.794 34.4744C92.8038 34.5393 92.8574 34.6422 92.9142 34.7511C92.9502 34.8203 92.986 34.8897 93.0191 34.9607C93.0901 35.1127 93.1739 35.2669 93.2627 35.4301C93.4803 35.8301 93.7261 36.2817 93.8345 36.8226C93.8476 36.8644 93.8602 36.9064 93.8727 36.9485C93.8866 36.9953 93.9007 37.0432 93.9144 37.0832C94.1481 36.9808 94.3808 36.8756 94.6136 36.7704C95.2853 36.467 95.9798 36.1532 96.7093 35.902C98.4989 35.286 100.041 35.1733 101.528 35.5546C101.8 34.845 102.162 34.1475 102.606 33.4776C102.622 33.4547 102.636 33.431 102.651 33.4072C102.793 33.1819 103.055 32.7622 103.657 32.629L104.464 32.4504L104.603 33.2584C104.659 33.5828 104.717 33.9058 104.775 34.2278C104.909 34.973 105.047 35.7416 105.153 36.5103C105.468 36.5174 105.789 36.5625 106.084 36.7279C106.239 36.8152 106.276 36.836 106.589 36.5641C107.255 35.9858 107.857 35.3597 108.495 34.697C108.597 34.5914 108.699 34.4858 108.8 34.3805C108.806 34.3735 108.816 34.3603 108.826 34.3471C109.243 33.819 109.688 33.8143 109.988 33.9035C110.28 33.9903 110.761 34.2559 110.712 35.0607C110.711 35.0751 110.71 35.0895 110.71 35.1034C110.789 36.3509 110.41 37.5717 109.55 38.8348C109.369 39.1009 109.352 39.2061 109.382 39.355C109.445 39.6593 109.437 39.9492 109.431 40.2049C109.427 40.3591 109.424 40.5049 109.437 40.6269C109.513 41.3638 109.618 41.7962 109.977 42.1153C110.156 42.2742 110.31 42.4389 110.458 42.5981C110.574 42.7222 110.683 42.8396 110.793 42.9416C111.929 43.9951 112.184 45.2069 111.55 46.5432C111.179 47.3256 111.188 48.2593 111.576 49.3182C111.809 49.9552 112.064 50.6012 112.31 51.2259C112.548 51.829 112.794 52.4525 113.023 53.075C113.535 54.4627 113.903 55.5338 114.217 56.5481C114.79 58.3964 113.932 60.6365 112.263 61.6479C111.464 62.1322 110.602 62.0958 110.023 62.0264C107.769 61.7564 106.156 60.4334 105.093 57.9819C104.486 56.5798 103.643 56.1411 102.477 55.5338C101.848 55.2069 101.136 54.8362 100.384 54.2693C100.261 54.1765 100.107 54.0611 99.959 53.9123C99.7318 54.2745 99.5471 54.6745 99.3782 55.0401C98.7017 56.507 97.7766 57.8215 96.6288 58.9466C96.0779 59.4869 95.8705 60.0326 95.7756 61.1928C95.7386 61.6447 95.8006 61.9278 95.8863 62.3196C95.9709 62.7065 96.0763 63.1881 96.0793 63.8872C96.0798 64.0161 96.1269 64.4719 96.1686 64.8741C96.2787 65.9377 96.3424 66.6075 96.2981 66.94C96.2181 67.5438 95.8706 68.3631 95.4685 69.3119C94.9161 70.6147 94.2287 72.236 94.3427 73.1604C94.479 74.2633 95.1902 79.0568 95.4439 80.2611C95.9851 82.8292 96.661 85.4316 97.3144 87.9483C97.6449 89.2208 97.9866 90.5368 98.307 91.8334C98.4947 92.5926 98.6586 93.4044 98.8171 94.1893C99.1801 95.9875 99.5556 97.8469 100.26 99.3838C100.362 99.6064 100.704 100.118 101.035 100.613C101.396 101.152 101.805 101.764 102.086 102.268C102.304 102.662 102.886 103.707 102.087 104.234C101.541 104.595 100.901 104.642 99.4979 104.745C99.2387 104.764 98.9504 104.785 98.6291 104.811C97.5027 104.9 96.909 104.803 96.5119 104.466C96.1222 104.135 96.0886 103.694 96.0707 103.456C96.0679 103.42 96.0654 103.382 96.0607 103.343C96.0012 103.237 95.7269 103.02 95.5435 102.875C95.3485 102.721 95.1277 102.546 94.9259 102.346C94.8544 102.275 94.8036 102.239 94.7446 102.198C94.1683 101.791 94.1555 101.476 94.0943 99.961C94.0591 99.0829 92.3725 93.8435 90.6027 88.6091C91.3539 95.2678 92.1965 102.33 92.536 103.214C93.0294 104.054 93.1236 105.414 93.1412 105.965C93.204 107.933 92.7392 108.302 92.5866 108.423C92.4165 108.558 92.1317 108.784 90.1747 108.838C89.9909 108.842 89.7682 108.846 89.5334 108.846ZM84.7713 39.3686C84.8114 39.4064 84.8901 39.4637 84.9455 39.5039C84.9878 39.5347 85.0294 39.5651 85.0695 39.5957C85.439 39.8793 85.7104 40.2009 85.9486 40.5066C86.2086 40.8398 86.6144 41.037 87.0616 41.0472C87.5435 41.057 88.0014 40.8573 88.3117 40.4955C88.5555 40.2112 88.7829 39.9107 89.0237 39.5925C89.4457 39.035 89.8778 38.4643 90.4174 37.9611C89.7897 37.6933 88.4318 36.998 88.4097 35.2404C88.3976 34.2694 88.0066 33.5114 87.1793 32.8547C85.5187 31.5368 84.1107 29.8039 82.7482 27.4014C82.2674 26.5532 81.6712 25.8039 81.0311 25.0399C81.02 25.0918 81.0087 25.1435 80.9975 25.1952C80.6735 26.6852 80.3675 28.0925 80.0689 29.5333C80.0438 29.6548 80.0149 29.7787 79.9856 29.9036C79.8949 30.2912 79.8011 30.6921 79.8587 30.9529C80.1877 32.4433 81.2072 33.5815 82.9758 34.4326C83.854 34.8551 84.548 35.4991 85.1595 36.459C85.5934 37.1395 85.5845 37.8568 85.1334 38.533C84.8908 38.8969 84.766 39.1301 84.7713 39.3686ZM92.0103 37.0552L92.0454 37.5979L92.4026 37.5105C92.3887 37.4669 92.3764 37.4253 92.365 37.3865C92.3525 37.3444 92.3401 37.3021 92.3262 37.2607L92.3083 37.2074L92.2983 37.1522C92.2962 37.1414 92.2942 37.1306 92.292 37.1198C92.291 37.1191 92.29 37.1184 92.289 37.1177C92.2605 37.0995 92.2001 37.0706 92.117 37.0591C92.1166 37.0591 92.1163 37.0591 92.1159 37.059C92.1155 37.059 92.1152 37.0589 92.1148 37.0589C92.0832 37.0544 92.0483 37.0528 92.0103 37.0552Z" fill="#05A099"/>
<path d="M92.8828 37.5427L91.8457 36.8036C91.8729 36.766 91.9029 36.7294 91.9374 36.6918L92.8828 37.5427Z" fill="#05A099"/>
</svg>
