<svg width="49" height="50" viewBox="0 0 49 50" fill="none" xmlns="http://www.w3.org/2000/svg">
<path d="M48.3223 15.19C48.3223 21.4539 48.3223 27.7178 48.3223 33.9817C48.3108 34.0679 48.2943 34.1537 48.2885 34.2402C48.2043 35.4908 48.1528 36.7446 48.0305 37.9913C47.8807 39.5191 47.5817 41.0204 47.0476 42.4646C46.3922 44.2372 45.3713 45.7264 43.7987 46.788C42.4675 47.6867 40.9813 48.1809 39.4322 48.5046C37.2043 48.9703 34.9436 49.1093 32.6779 49.118C27.149 49.1388 21.62 49.1369 16.0912 49.1238C13.6835 49.1181 11.2811 48.9982 8.91186 48.5088C7.4875 48.2144 6.11517 47.7719 4.85979 47.0069C2.97426 45.8577 1.81774 44.1402 1.13109 42.0586C0.453102 40.0035 0.221144 37.8726 0.0934268 35.7243C0.0598226 35.1596 0.0310192 34.5945 0 34.0296C0 27.7338 0 21.4379 0 15.142C0.0141908 14.9603 0.0353452 14.7788 0.0415174 14.5967C0.104611 12.7444 0.24615 10.9003 0.613 9.08071C0.880303 7.75478 1.27284 6.47305 1.91776 5.2797C3.04078 3.20163 4.79258 1.92708 6.96619 1.18872C8.98814 0.501954 11.0841 0.265619 13.1973 0.136412C13.753 0.102436 14.309 0.0730151 14.8648 0.0415039C21.0624 0.0415039 27.2599 0.0415039 33.4576 0.0415039C34.0134 0.0730151 34.5691 0.103723 35.125 0.136145C36.7893 0.233358 38.4433 0.410743 40.0673 0.810795C41.3562 1.12837 42.5903 1.58523 43.7106 2.32285C45.4641 3.4773 46.5391 5.14063 47.192 7.11882C47.8671 9.16447 48.0982 11.286 48.2273 13.4243C48.2628 14.0127 48.2908 14.6014 48.3223 15.19ZM26.9552 20.3888C26.9552 19.2623 26.9586 18.1358 26.9523 17.0094C26.9511 16.7714 26.9365 16.5287 26.8882 16.2967C26.8131 15.9358 26.5885 15.705 26.216 15.6544C26.0764 15.6354 25.9345 15.6265 25.7936 15.6263C24.0478 15.6245 22.3019 15.6251 20.5561 15.6252C20.4932 15.6252 20.4301 15.6231 20.3674 15.627C20.0233 15.6482 19.7433 15.7832 19.5779 16.1058C19.4125 16.4282 19.4933 16.7253 19.685 17.0044C19.7658 17.1221 19.851 17.2377 19.9437 17.346C20.6162 18.1322 20.8909 19.0651 20.8972 20.0853C20.9076 21.7708 20.9027 23.4566 20.8973 25.1422C20.8964 25.4287 20.8848 25.7194 20.8361 26.0008C20.7436 26.5356 20.3782 26.7123 19.8979 26.4648C19.7317 26.379 19.5645 26.2739 19.4346 26.1406C19.0979 25.7952 18.754 25.4508 18.462 25.0675C17.2087 23.4224 16.2547 21.5976 15.4402 19.6982C15.0112 18.6975 14.6431 17.6695 14.2562 16.6505C13.9852 15.9368 13.4897 15.6066 12.7319 15.62C11.6076 15.64 10.4828 15.624 9.35821 15.6266C9.20944 15.6269 9.05925 15.637 8.91223 15.6593C8.30535 15.7517 8.05408 16.0585 8.06732 16.6854C8.06948 16.7887 8.07951 16.8929 8.09655 16.9947C8.30224 18.2217 8.71582 19.3841 9.1847 20.5265C10.4868 23.6987 12.2192 26.6198 14.2711 29.3432C15.6498 31.1731 17.339 32.6541 19.3654 33.7146C21.2947 34.7242 23.3307 35.2117 25.5105 34.9905C26.6383 34.8761 26.9551 34.5364 26.9551 33.4018C26.9551 32.4431 26.9526 31.4845 26.957 30.5258C26.958 30.3026 26.9695 30.0778 26.9994 29.857C27.0556 29.4406 27.2618 29.2641 27.6745 29.2298C28.0542 29.198 28.4183 29.2614 28.745 29.4497C29.1333 29.6736 29.5203 29.9081 29.8762 30.1806C30.999 31.0406 31.9552 32.0799 32.9019 33.1292C33.3371 33.6115 33.7821 34.0866 34.2481 34.5378C34.6203 34.8982 35.0844 35.0488 35.6069 35.0436C36.7471 35.0322 37.8875 35.0403 39.0278 35.0399C39.13 35.0399 39.2326 35.0407 39.3343 35.0326C40.1588 34.9675 40.5322 34.4569 40.3386 33.6433C40.2928 33.4514 40.2234 33.2582 40.1273 33.0873C39.9017 32.686 39.6787 32.2789 39.4097 31.9077C38.3592 30.4575 37.193 29.1081 35.921 27.8532C35.6278 27.5639 35.335 27.2726 35.0622 26.9638C34.4156 26.2317 34.4015 25.8866 34.9473 25.0844C35.3763 24.4539 35.8091 23.8259 36.2269 23.1878C37.2717 21.5926 38.3134 19.9936 39.1365 18.2652C39.3771 17.7598 39.556 17.2167 39.7005 16.6736C39.8407 16.1467 39.5581 15.7677 39.0253 15.6726C38.8483 15.641 38.6661 15.6278 38.4861 15.6272C37.3773 15.6231 36.2683 15.6358 35.1596 15.6216C34.3225 15.6108 33.7765 15.9763 33.4434 16.7691C32.649 18.6593 31.6904 20.463 30.538 22.1554C29.9243 23.0567 29.2853 23.9406 28.4292 24.6263C28.2187 24.7949 27.9668 24.9297 27.7131 25.0178C27.4159 25.121 27.1996 25.0092 27.0946 24.7054C27.0106 24.4622 26.9639 24.1938 26.961 23.9358C26.9475 22.7536 26.9552 21.5711 26.9552 20.3888Z" fill="#05A099"/>
</svg>
