<svg width="136" height="114" viewBox="0 0 136 114" fill="none" xmlns="http://www.w3.org/2000/svg">
<path d="M67.0247 112.357H58.7991L59.1605 111.312C59.2969 110.918 59.4316 110.536 59.5634 110.163C59.8704 109.294 60.1605 108.473 60.4146 107.649C60.5949 107.065 60.6807 106.571 60.6771 106.138C60.6643 104.553 60.719 103.12 61.5213 101.636C62.1855 100.407 62.7047 99.0497 63.2068 97.7371C63.3447 97.3768 63.4824 97.0167 63.6232 96.6583C63.6215 96.6092 63.5986 96.5237 63.5766 96.4886C63.0021 95.6329 62.4039 94.7675 61.8255 93.9304C60.9144 92.6119 59.9721 91.2487 59.0881 89.8744C58.4703 88.9138 57.9903 87.8797 57.5261 86.8796C57.431 86.6749 57.3361 86.4703 57.24 86.2666C57.1963 86.1736 57.1576 86.0984 57.124 86.0377C57.0868 86.08 57.0445 86.1307 56.9967 86.1914L56.9172 86.2921C56.6977 86.5696 56.4707 86.8564 56.3786 87.1119C55.6145 89.232 54.168 90.8629 52.7692 92.4402C52.2777 92.9944 51.7694 93.5675 51.3071 94.146C49.5707 96.3184 48.6247 98.7308 47.6231 101.285C47.4672 101.683 47.3099 102.084 47.1482 102.488C47.1297 102.534 47.1101 102.603 47.0893 102.676C47.0188 102.923 46.9223 103.261 46.6421 103.531C45.6416 104.495 45.738 105.544 45.9782 107.175C46.0135 107.414 46.0499 107.662 46.0802 107.909C46.1519 108.495 46.1496 109.008 46.0732 109.479C45.8682 110.744 45.0306 111.5 43.833 111.5C43.8104 111.5 43.7878 111.499 43.7648 111.499C42.9509 111.479 42.1385 111.408 41.3529 111.339C41.0361 111.311 40.7192 111.283 40.4023 111.259C39.7619 111.209 39.4066 110.928 39.2214 110.7C39.0326 110.469 38.8294 110.059 38.9329 109.419C39.1652 107.981 39.5567 106.3 40.6989 104.738C41.0062 104.317 41.1537 103.688 41.0756 103.427C40.5205 101.578 41.3317 100.157 42.0475 98.9029C43.3022 96.7047 44.4958 94.4199 45.6499 92.2103C46.4063 90.7625 47.1883 89.2653 47.9827 87.8018C48.5657 86.7275 49.3141 85.6129 50.0379 84.535C51.311 82.6391 52.6274 80.6786 53.1891 78.7715C53.4669 77.8283 53.2795 76.9081 52.5992 75.8757C51.0894 73.5842 49.6544 71.2021 48.2668 68.8983C47.9083 68.3031 47.5497 67.7079 47.1896 67.1137C46.2578 65.5761 45.5548 63.9262 45.087 62.1839C45.0077 63.6981 44.9524 65.224 44.8985 66.7097C44.8617 67.7276 44.8235 68.78 44.7781 69.8163C44.762 70.1845 44.7487 70.5533 44.7354 70.9222C44.6893 72.2025 44.6417 73.5264 44.4716 74.8316C43.9071 79.1641 41.188 82.2655 38.8823 84.4835C38.6405 84.7161 38.3979 84.955 38.1529 85.1961C36.3112 87.0096 34.2237 89.065 31.3312 89.5182C30.8699 89.5905 30.3718 89.6272 29.8511 89.6272C25.9795 89.6274 21.197 87.6752 18.9633 85.1828L18.8917 85.103C18.0204 84.1315 17.1974 83.2139 17.1974 82.0617C17.1974 81.7066 17.4174 81.274 18.0351 81.125C18.2289 81.0782 18.4645 81.0565 18.7765 81.0565C19.1762 81.0565 19.6422 81.0928 20.0532 81.125C20.2776 81.1425 20.4896 81.1592 20.6509 81.1664C21.0207 81.1832 21.4849 81.228 21.9763 81.2755C22.6783 81.3433 23.474 81.4203 24.0743 81.4203C24.3666 81.4203 24.5362 81.4016 24.6269 81.386C26.0567 81.1397 27.3444 80.1889 28.2525 78.7087C29.3624 76.8994 29.8354 75.5134 30.3361 74.046C30.5639 73.3785 30.7994 72.6883 31.0987 71.9532C32.7631 67.8665 35.0715 64.0731 37.304 60.4046C37.962 59.3235 38.6423 58.2054 39.2941 57.0996C39.39 56.9367 39.4878 56.7746 39.5857 56.6122C39.902 56.0878 40.2006 55.5925 40.438 55.0767C42.0522 51.5678 44.6951 48.6687 49.0075 45.6764C51.798 43.7401 54.5174 42.3958 57.3212 41.5668C59.2378 41.0002 60.8943 39.8128 62.2446 38.0376C62.501 37.7006 62.5863 37.0861 62.6688 36.4918C62.6894 36.3435 62.7097 36.1969 62.7325 36.0542C62.7842 35.7301 62.8221 35.1775 62.8406 34.7769C61.9239 34.4326 61.3769 34.174 61.0147 33.6524C60.5911 33.0419 60.5951 32.3159 60.6024 30.9978C60.606 30.3536 60.6053 29.7092 60.6046 29.0647C60.6024 27.1251 60.6003 25.1194 60.7204 23.1421L60.7351 22.8957C60.8276 21.3057 60.943 19.3268 62.673 17.9955C63.8676 17.0764 64.9879 16.3006 66.6056 16.118C67.2211 16.0486 67.9216 15.6003 68.5592 15.168C68.5531 15.0973 68.542 15.0206 68.5281 14.958C67.0236 14.0471 66.8707 12.5787 66.8622 11.8436C66.7439 11.814 66.5913 11.786 66.4842 11.7664C65.951 11.6685 64.8415 11.4648 64.8415 10.4432C64.8415 9.5158 65.8324 9.34589 66.3086 9.26421C66.5065 9.2303 66.9144 9.16032 67.0082 9.07417C67.0096 9.06872 67.0118 9.05851 67.0132 9.04205C67.0248 8.90585 67.0293 8.73624 67.0341 8.55671C67.0598 7.58959 67.0987 6.12802 68.4109 5.6051C69.0126 5.36531 69.8743 5.34488 70.7788 5.34439C70.8645 5.34439 70.9442 5.34429 71.0163 5.34379C71.3946 5.34072 71.7124 5.33329 72.0196 5.32605C72.3432 5.31842 72.6489 5.31128 72.9661 5.31128C73.4604 5.31128 73.9163 5.32883 74.4442 5.36798C76.6842 5.53442 76.7471 7.46419 76.7773 8.39156C76.7797 8.46601 76.7821 8.53887 76.7852 8.60925C76.7888 8.69321 76.7859 8.77093 76.7823 8.83794C76.891 8.87908 77.0224 8.92468 77.1242 8.95997C77.8405 9.2083 78.6526 9.48983 78.6942 10.2338C78.7125 10.555 78.591 11.1386 77.5736 11.4344C77.2335 11.5333 76.8364 11.596 76.5001 11.6459C76.5227 11.9365 76.537 12.2357 76.5072 12.5475C76.4987 12.6374 76.4909 12.7279 76.483 12.8184C76.3952 13.8324 76.286 15.0938 75.0834 16.0022C75.0774 16.008 75.0711 16.015 75.0643 16.023C75.1472 16.0532 75.2554 16.0878 75.3966 16.1257C75.7796 16.2285 76.1878 16.2999 76.6198 16.3755C77.5096 16.5313 78.4296 16.6922 79.2406 17.1546C82.2785 18.8865 82.369 22.1504 82.4289 24.31C82.4751 25.9865 82.4408 27.6837 82.4076 29.3249C82.393 30.0496 82.3779 30.7989 82.37 31.5339C82.3689 31.6242 82.3618 31.7062 82.3556 31.7786C82.3524 31.8156 82.348 31.8669 82.3469 31.9006C82.3656 31.9449 82.3886 31.9982 82.4149 32.0546C84.9161 29.8407 87.9945 28.2836 91.8227 27.2953C94.2922 26.658 96.2148 26.3612 97.8729 26.3612C98.789 26.3612 99.6395 26.4553 100.408 26.6414C100.615 26.4903 100.815 26.3449 101.008 26.2041C101.805 25.6241 102.493 25.1233 103.188 24.6266C103.364 24.5003 103.545 24.4219 103.691 24.359C103.736 24.3396 103.781 24.3203 103.825 24.2991L104.58 23.9323L104.935 24.675C104.943 24.6911 104.97 24.7351 104.989 24.7642C105.093 24.9333 105.268 25.2161 105.243 25.5782C105.196 26.252 105.126 26.9146 105.053 27.616C105.045 27.6879 105.037 27.7601 105.03 27.8326C105.147 27.9132 105.255 27.9985 105.359 28.0795C105.507 28.196 105.756 28.3912 105.848 28.3912C105.874 28.3912 105.949 28.3666 106.071 28.2745C106.308 28.0942 106.517 27.7807 106.738 27.4487C106.819 27.3284 106.898 27.2087 106.981 27.093C107.101 26.9231 107.211 26.72 107.327 26.505C107.388 26.3924 107.449 26.2784 107.514 26.1639L108.178 25.001L108.921 26.1186C109.903 27.5976 110.165 29.77 108.765 31.0606C107.809 31.941 107.86 32.8149 108.033 34.2836C108.051 34.4349 108.069 34.5869 108.085 34.7392C108.122 35.0967 108.185 35.4566 108.25 35.8377C108.379 36.5877 108.513 37.3633 108.459 38.1623C108.386 39.2372 108.05 40.4195 107.512 41.4915C107.437 41.6414 107.361 41.7903 107.284 41.9387C106.758 42.9651 106.261 43.9347 106.279 45.0304C106.292 45.8307 106.286 46.6405 106.279 47.4238C106.268 48.8399 106.256 50.3041 106.363 51.7197C106.445 52.788 106.006 53.4539 105.619 54.0413L105.544 54.1551C104.658 55.5102 103.534 56.358 102.203 56.6746C101.937 56.7382 101.659 56.7703 101.377 56.7704C99.3111 56.7706 97.4462 55.1209 97.3858 53.2401C97.3629 52.5284 97.0425 52.0852 96.4782 51.3631C95.6763 50.3372 95.0373 49.2027 94.4191 48.1055C94.2651 47.8321 94.1113 47.5589 93.9551 47.2878C93.905 47.2008 93.8607 47.1312 93.8223 47.0758C93.7991 47.1122 93.7738 47.1543 93.7463 47.2033C93.0545 48.4354 92.9688 49.2138 93.4408 49.9795L93.6014 50.2401L93.5413 50.5379C93.2269 52.0946 93.8278 53.4945 94.464 54.9765C94.7249 55.5843 94.9948 56.2128 95.2041 56.8626C95.3242 57.2355 95.4731 57.6029 95.6307 57.9919C95.8158 58.4485 96.0071 58.9207 96.1543 59.416C96.7041 61.2654 96.3268 63.0155 95.9619 64.7079C95.9176 64.9131 95.8735 65.1183 95.8309 65.3234C95.7419 65.7537 95.6375 66.1814 95.5367 66.5952C95.4599 66.9104 95.3806 67.2365 95.3101 67.5545C95.0569 68.6988 95.3341 69.7848 96.2367 71.1859C97.1648 72.6264 98.0992 74.0956 99.0028 75.5164C100.814 78.3649 102.688 81.3104 104.597 84.1599C105.778 85.922 106.344 87.8437 106.891 89.7022C107.03 90.1745 107.173 90.6627 107.324 91.1364C107.632 92.1027 107.923 93.0876 108.205 94.0401C108.657 95.5708 109.125 97.1538 109.666 98.673C109.88 99.2757 110.208 99.8574 110.554 100.473C110.954 101.184 111.367 101.919 111.624 102.731C112.237 104.697 112.692 107.245 112.812 109.382L112.863 110.296L111.92 110.214C110.793 110.117 109.715 109.719 108.673 109.334C108.174 109.15 107.702 108.976 107.233 108.836C105.688 108.375 105.312 107.149 105.165 106.266C105.065 105.671 104.981 104.9 105.225 104.223C105.513 103.421 105.236 102.819 104.723 101.823L104.62 101.624C104.017 100.443 103.677 99.156 103.399 97.9414C102.244 92.891 99.6968 88.4293 95.6113 84.3014C95.1118 83.7969 94.6211 83.2804 94.1016 82.7336C91.0087 79.4781 87.8105 76.112 83.4641 75.9683C83.3824 75.9656 83.301 75.9642 83.2207 75.9642C80.6425 75.9642 78.4892 77.3848 76.638 80.3069C74.9331 82.9979 73.7061 86.5958 72.6236 89.7702C71.8026 92.1777 71.0271 94.4518 70.1291 96.1211C69.9415 96.4701 69.9225 96.6081 70.1867 97.0634C71.7491 99.7575 73.7941 103.326 75.7553 107.034C76.1452 107.772 76.2284 108.624 76.3019 109.376C76.3212 109.572 76.3393 109.758 76.3621 109.939C76.4304 110.483 76.3185 110.919 76.0297 111.234C75.8521 111.428 75.527 111.66 74.9877 111.66C74.7955 111.66 74.5935 111.631 74.3705 111.571C73.6855 111.387 72.977 111.219 72.2919 111.056C71.6817 110.911 71.0508 110.762 70.4296 110.6C69.6599 110.399 69.0958 109.56 68.8279 109.077C68.5816 108.634 68.0432 107.5 68.3662 106.56C68.8341 105.198 68.3286 104.157 67.5867 102.938C67.3133 103.885 66.91 104.837 66.0323 105.645C65.7703 105.886 65.5073 106.288 65.8006 107.267C66.0789 108.196 66.2857 109.123 66.5045 110.105C66.5973 110.521 66.6934 110.952 66.7961 111.387L67.0247 112.357ZM61.0806 110.771H64.9763C64.9514 110.659 64.9268 110.549 64.9023 110.44C64.6896 109.486 64.4888 108.585 64.2264 107.709C63.8226 106.362 64.0501 105.28 64.9026 104.496C65.6462 103.811 65.9193 102.905 66.1551 101.958C66.2214 101.692 66.3193 101.455 66.4324 101.182C66.4858 101.053 66.545 100.91 66.6084 100.745L67.238 99.1069L68.0969 100.644C68.2914 100.992 68.506 101.338 68.7136 101.672C69.6816 103.231 70.6826 104.843 69.9204 107.061C69.7663 107.51 70.4687 108.872 70.8727 109.073C71.4706 109.229 72.0862 109.375 72.6817 109.516C73.3502 109.675 74.0406 109.839 74.7215 110.02C74.7022 109.854 74.6859 109.688 74.67 109.526C74.6046 108.856 74.5429 108.224 74.296 107.757C72.3477 104.073 70.3126 100.522 68.7573 97.8403C68.2412 96.9505 68.2174 96.2404 68.6752 95.389C69.5122 93.8333 70.2675 91.6184 71.0671 89.2735C73.3301 82.6375 76.1465 74.3786 83.2202 74.3786C83.3189 74.3786 83.4191 74.3803 83.5196 74.3837C88.5517 74.55 92.1407 78.3275 95.3071 81.6604C95.8209 82.2011 96.3062 82.7118 96.794 83.2047C101.093 87.5483 103.777 92.2568 104.998 97.5992C105.254 98.7162 105.562 99.8916 106.089 100.921L106.189 101.115C106.71 102.126 107.301 103.272 106.772 104.745C106.648 105.09 106.718 105.634 106.782 106.013C106.917 106.823 107.153 107.153 107.715 107.321C108.236 107.476 108.754 107.667 109.256 107.853C109.89 108.086 110.5 108.312 111.096 108.463C110.92 106.686 110.54 104.745 110.056 103.193C109.849 102.537 109.492 101.903 109.115 101.232C108.751 100.586 108.375 99.9181 108.116 99.1898C107.562 97.6309 107.088 96.0275 106.629 94.4769C106.35 93.5319 106.061 92.5547 105.758 91.6037C105.602 91.114 105.456 90.6176 105.315 90.1373C104.777 88.311 104.269 86.586 103.222 85.0235C101.302 82.1582 99.4238 79.2046 97.6072 76.3483C96.7049 74.9294 95.7719 73.4623 94.8462 72.0256C94.0834 70.8417 93.2647 69.2257 93.7078 67.2228C93.7817 66.8887 93.8632 66.5547 93.9418 66.2316C94.0395 65.8306 94.1405 65.416 94.2243 65.012C94.2676 64.8029 94.3126 64.5936 94.3578 64.3842C94.6969 62.8119 95.0171 61.3266 94.5796 59.8551C94.4535 59.4312 94.2843 59.0136 94.1051 58.5715C93.9439 58.1736 93.7773 57.7623 93.6396 57.3351C93.4527 56.7546 93.2089 56.1868 92.9508 55.5855C92.2829 54.0294 91.5931 52.423 91.8818 50.5234C91.0971 48.9918 91.6876 47.5487 92.3065 46.4462C92.4623 46.1687 92.9363 45.3245 93.8118 45.3245C94.6079 45.3245 95.0916 46.0042 95.3861 46.5156C95.5447 46.7911 95.7011 47.0687 95.8576 47.3465C96.4742 48.441 97.0565 49.4747 97.7847 50.4065C98.374 51.1604 98.9832 51.94 99.0235 53.1911C99.0562 54.2159 100.2 55.1847 101.377 55.1846C101.527 55.1846 101.673 55.1679 101.812 55.1347C102.731 54.9162 103.498 54.3185 104.159 53.3074L104.237 53.1887C104.57 52.684 104.771 52.3794 104.729 51.8365C104.617 50.3566 104.629 48.8594 104.641 47.4115C104.647 46.6376 104.654 45.8374 104.641 45.056C104.616 43.575 105.227 42.3848 105.817 41.2338C105.891 41.0893 105.965 40.9446 106.038 40.7988C106.486 39.9069 106.765 38.9339 106.824 38.0591C106.866 37.4434 106.753 36.7904 106.634 36.0989C106.567 35.7101 106.498 35.3081 106.455 34.9003C106.439 34.7542 106.422 34.6085 106.405 34.4634C106.235 33.0179 106.043 31.3797 107.635 29.9123C108.047 29.5328 108.16 28.9573 108.078 28.365C107.815 28.7583 107.515 29.1941 107.082 29.5231C106.684 29.8248 106.269 29.9777 105.849 29.9777C105.176 29.9777 104.685 29.593 104.327 29.312C104.192 29.2063 104.008 29.0613 103.923 29.0366L103.28 28.8478L103.345 28.2003C103.371 27.9472 103.397 27.6995 103.423 27.4556C103.463 27.0786 103.501 26.7131 103.535 26.3531C103.048 26.7043 102.547 27.069 101.994 27.4722C101.702 27.6847 101.396 27.9077 101.07 28.1447L100.736 28.3871L100.337 28.2685C99.6215 28.0558 98.7925 27.9479 97.8732 27.9479C96.3614 27.9479 94.5732 28.2277 92.2452 28.8285C88.6462 29.7576 85.7724 31.2138 83.4596 33.2801C83.291 33.4308 82.6946 33.8608 82.183 33.8608C81.9621 33.8608 81.7524 33.7861 81.5924 33.6503C81.2073 33.3235 80.987 32.8772 80.8061 32.4437C80.6804 32.1418 80.7049 31.8561 80.7229 31.6477C80.7273 31.5973 80.7314 31.5496 80.7318 31.517C80.7397 30.7757 80.7549 30.0228 80.7697 29.2946C80.8024 27.6713 80.8363 25.9928 80.7912 24.3531C80.6745 20.1499 79.6435 19.2254 78.4092 18.5218C77.8504 18.2032 77.1111 18.0738 76.3286 17.9369C75.8791 17.8582 75.4144 17.7769 74.9588 17.6546C74.4146 17.5084 73.7488 17.2726 73.4266 16.7425C73.0145 16.0658 73.6276 15.0888 74.0721 14.755C74.6819 14.2965 74.7652 13.6703 74.8505 12.6864C74.8587 12.5917 74.8669 12.497 74.8758 12.4027C74.8998 12.151 74.8754 11.8648 74.8496 11.5618C74.8361 11.4037 74.822 11.2404 74.8136 11.0703C74.8055 10.9033 74.8414 10.3473 75.6429 10.1776C75.6929 10.1671 75.7467 10.157 75.8039 10.1473C75.6443 10.061 75.5127 9.96099 75.409 9.82875C75.1052 9.44066 75.1304 9.02074 75.144 8.79512C75.1467 8.74962 75.1495 8.70253 75.1484 8.67715C75.1451 8.60122 75.1425 8.52261 75.1399 8.44212C75.1006 7.2354 74.9702 6.99828 74.3191 6.94991C73.8346 6.91392 73.4173 6.89786 72.9664 6.89786C72.6691 6.89786 72.3867 6.9045 72.0596 6.91224C71.7606 6.91927 71.4216 6.92721 71.0301 6.93038C70.9543 6.93097 70.8701 6.93107 70.7801 6.93107C70.2933 6.93137 69.3872 6.93186 69.035 7.07233C68.7094 7.20209 68.6872 8.04222 68.6723 8.59815C68.6669 8.80067 68.6618 8.99209 68.6464 9.17291C68.5876 9.86424 68.2009 10.2553 67.7555 10.4865C68.1643 10.6841 68.5124 11.0195 68.5023 11.62C68.4844 12.7066 68.7689 13.2846 69.5167 13.6815C70.0266 13.952 70.1682 14.6076 70.1973 15.11C70.2094 15.3201 70.2464 15.9592 69.7638 16.2877L69.6767 16.3472C68.835 16.9211 67.8809 17.5716 66.7956 17.694C65.6051 17.8283 64.7227 18.4452 63.6929 19.2376C62.5379 20.1265 62.457 21.5152 62.3713 22.9855L62.3564 23.2357C62.2392 25.1656 62.2413 27.1471 62.2434 29.0635C62.2441 29.7114 62.2448 30.3593 62.2412 31.0069C62.2362 31.9103 62.2326 32.563 62.375 32.7684C62.5094 32.9621 63.1103 33.1819 63.9417 33.4862L63.9539 33.4907C64.5046 33.6926 64.495 34.2171 64.4905 34.4692C64.4879 34.6183 64.4802 34.8146 64.469 35.0218C64.4557 35.2682 64.4177 35.8858 64.3522 36.2967C64.3311 36.4291 64.3122 36.5655 64.293 36.7035C64.1882 37.4586 64.0693 38.3144 63.5643 38.9785C62.0004 41.0344 60.0611 42.4157 57.8 43.0841C55.1693 43.8619 52.6056 45.1317 49.9623 46.9659C45.8998 49.7847 43.424 52.4853 41.935 55.7223C41.6612 56.3176 41.3256 56.8741 41.001 57.4122C40.9059 57.5699 40.8109 57.7276 40.7176 57.8858C40.0602 59.0012 39.3769 60.1241 38.7161 61.2099C36.5158 64.8256 34.2405 68.5644 32.6233 72.5351C32.341 73.2285 32.1128 73.8972 31.8921 74.5438C31.3859 76.0272 30.8625 77.5611 29.6614 79.5189C28.5062 81.4017 26.8203 82.6195 24.914 82.9479C24.6844 82.9874 24.4098 83.0068 24.0743 83.0068C23.3924 83.0068 22.5536 82.9257 21.8135 82.8542C21.3441 82.8088 20.9009 82.766 20.5743 82.7512C20.3853 82.7427 20.1599 82.725 19.9212 82.7064C19.6263 82.6834 19.3008 82.6579 19.0139 82.6476C19.2471 83.0803 19.6797 83.5625 20.129 84.0636L20.201 84.1439C22.0946 86.2567 26.5138 88.0417 29.851 88.0415C30.2844 88.0415 30.6943 88.0117 31.0694 87.9529C33.4316 87.5829 35.2378 85.8044 36.9844 84.0847C37.234 83.839 37.4811 83.5956 37.7273 83.3589C41.7621 79.4776 42.5822 76.6572 42.8459 74.6335C43.0067 73.3998 43.053 72.1123 43.0978 70.8673C43.1112 70.4945 43.1246 70.1218 43.1409 69.7495C43.1859 68.7191 43.224 67.6696 43.2608 66.6546C43.329 64.7749 43.3995 62.8313 43.5179 60.9176C43.5542 60.3304 43.8054 59.8039 44.0269 59.3393C44.1169 59.1505 44.2019 58.9722 44.268 58.8018L44.516 58.1614L46.0947 58.4884L46.1588 59.0583C46.4542 61.6828 47.2765 64.1231 48.6028 66.3116C48.9636 66.9071 49.3228 67.5033 49.6822 68.0998C51.0618 70.3901 52.4883 72.7584 53.9806 75.0233C54.9183 76.4464 55.1747 77.8149 54.7647 79.2068C54.1353 81.3432 52.7506 83.4055 51.4115 85.3999C50.6757 86.4957 49.9807 87.5307 49.4329 88.5399C48.6446 89.9924 47.8653 91.484 47.1118 92.9265C45.951 95.1488 44.7506 97.4468 43.4813 99.6704C42.8386 100.796 42.2836 101.768 42.6488 102.985C42.9045 103.837 42.5342 104.973 42.0363 105.654C41.0895 106.949 40.7544 108.408 40.5515 109.664C40.5506 109.669 40.5498 109.674 40.5492 109.679C40.8663 109.704 41.1834 109.732 41.5007 109.759C42.2602 109.826 43.0453 109.895 43.8055 109.913L43.8328 109.914C44.0114 109.914 44.3439 109.914 44.4542 109.233C44.5063 108.912 44.5058 108.529 44.4528 108.096C44.4248 107.867 44.3913 107.64 44.3559 107.399C44.1217 105.809 43.8564 104.008 45.4511 102.441C45.4688 102.397 45.4929 102.312 45.5097 102.253C45.5389 102.151 45.572 102.035 45.62 101.915C45.7803 101.515 45.9363 101.117 46.091 100.722C47.1371 98.0548 48.1252 95.5351 50.0109 93.1759C50.4988 92.5655 51.0209 91.9768 51.5258 91.4075C52.8852 89.8746 54.1692 88.4269 54.8313 86.5898C55.01 86.0941 55.332 85.6871 55.6162 85.328L55.6925 85.2313C56.041 84.7879 56.526 84.279 57.1887 84.279C58.1041 84.279 58.5431 85.2107 58.7305 85.6086C58.8278 85.8149 58.9241 86.0223 59.0204 86.2299C59.4623 87.182 59.9194 88.1667 60.4788 89.0365C61.3487 90.3886 62.2834 91.7409 63.1873 93.0489C63.7686 93.8901 64.3699 94.7601 64.9508 95.6252C65.2037 96.0018 65.3798 96.6516 65.1683 97.1877C65.0246 97.5528 64.884 97.9204 64.7433 98.2882C64.2233 99.6475 63.6857 101.053 62.9728 102.371C62.3451 103.532 62.304 104.709 62.3155 106.126C62.3204 106.719 62.2121 107.366 61.9846 108.103C61.7213 108.957 61.4262 109.792 61.1138 110.677C61.1027 110.708 61.0917 110.739 61.0806 110.771ZM66.6836 94.2513L65.8425 92.211C65.6069 91.6393 65.3843 91.0882 65.168 90.5522C64.6948 89.3803 64.248 88.2736 63.7617 87.1977L63.6713 86.9975C63.1349 85.8098 62.5804 84.5814 61.8617 83.5248C60.8738 82.0718 61.122 80.7403 61.5372 79.5181C62.1136 77.8205 63.1606 76.4681 64.1732 75.1602C64.4496 74.8031 64.7353 74.4341 65.0026 74.0684C65.5767 73.2829 67.2717 72.9901 68.2052 72.9901C68.9186 72.9901 69.4228 73.1372 69.7465 73.44C70.2485 73.9097 70.5669 74.7345 70.5208 75.4459C70.5006 75.7577 70.4816 76.0703 70.4627 76.383C70.3517 78.2059 70.237 80.0906 69.8842 81.9273C69.4543 84.1641 68.891 86.4043 68.3461 88.5706C68.1238 89.4542 67.894 90.3678 67.6772 91.2661C67.6382 91.4282 67.5877 91.5717 67.5179 91.7704C67.481 91.8755 67.4366 92.0015 67.3831 92.1614L66.6836 94.2513ZM66.3253 75.0047C66.0496 75.3811 65.7623 75.7523 65.4843 76.1113C64.5081 77.3723 63.5861 78.5632 63.0938 80.0134C62.7273 81.0919 62.6479 81.7961 63.2303 82.6528C64.0258 83.8223 64.6088 85.1135 65.1726 86.3623L65.2627 86.5619C65.6786 87.4819 66.0621 88.4133 66.4555 89.3846C66.5553 88.9848 66.6553 88.5872 66.7538 88.1955C67.2934 86.05 67.8513 83.8314 68.273 81.6375C68.6071 79.8985 68.7188 78.064 68.8267 76.29C68.8459 75.9753 68.865 75.6608 68.8852 75.3468C68.9004 75.1116 68.7719 74.7745 68.6436 74.6192C68.5886 74.6038 68.4555 74.5763 68.2051 74.5763C67.36 74.5763 66.5104 74.8532 66.3253 75.0047Z" fill="#05A099"/>
<path d="M64.5447 70.0283C62.6523 70.0283 59.9564 69.0134 59.2197 68.0335C58.0446 66.466 59.9496 63.7857 60.8231 62.706C62.2217 60.9774 62.6135 58.4392 62.8287 55.9537L62.8425 55.7948C62.983 54.1744 62.983 54.1744 62.7442 52.6776C62.6277 51.9477 62.4517 50.8447 62.212 49.0744C62.196 48.9565 62.1056 48.6152 62.0099 48.2538C61.3894 45.9114 59.9365 40.4257 62.5047 37.6214L63.7308 38.6734C61.7398 40.8476 63.0891 45.9421 63.5972 47.8599C63.7241 48.339 63.8079 48.6554 63.8367 48.8681C64.074 50.6203 64.2483 51.7126 64.3637 52.4353C64.6273 54.0873 64.6294 54.1526 64.4755 55.9274L64.4617 56.086C64.2254 58.8168 63.7773 61.6273 62.1133 63.684C60.8502 65.2453 60.2732 66.738 60.5454 67.1012C60.7922 67.4295 62.4129 68.2074 63.9797 68.4063C64.6614 68.4931 65.0089 68.4172 65.1222 68.3664C65.0914 67.907 64.287 67.0738 63.9603 67.0011L62.3388 66.743L63.5312 65.6454C65.1132 64.1844 67.8987 57.4782 67.9062 54.4478L67.8896 53.9525C67.7675 50.3385 67.6293 46.2423 68.9872 43.1433C70.2047 40.3651 74.9502 37.4234 75.4411 37.248L76.0085 38.736C76.0178 38.7327 76.0301 38.7284 76.0448 38.7216C75.5382 38.9578 71.4317 41.6267 70.4958 43.7627C69.2788 46.5398 69.4108 50.4504 69.5273 53.9007L69.5448 54.4354C69.5448 57.4954 67.1821 63.4563 65.3523 65.9857C66.0951 66.5737 66.7168 67.5142 66.759 68.2903C66.7973 69.0292 66.374 69.6217 65.6272 69.877C65.3218 69.9812 64.9518 70.0282 64.5447 70.0283Z" fill="#05A099"/>
<path d="M77.863 38.7677C77.2053 38.7677 76.3494 38.6841 75.1575 38.5192C71.9441 38.0748 64.1744 35.2452 63.8452 35.1249L64.4237 33.6409C64.5027 33.6698 72.3534 36.5293 75.3892 36.9491C78.4099 37.3667 78.6542 37.1771 79.189 36.7617C79.7564 36.3211 79.8975 35.9836 79.8847 35.9105C79.8846 35.9105 79.8447 35.8293 79.62 35.7205C78.8338 35.34 76.0678 34.7878 73.8453 34.3441C72.9472 34.1647 72.0988 33.9953 71.3688 33.8373C69.9672 33.5339 66.6142 32.7155 65.7525 31.6728C65.5077 31.3766 65.1724 30.9709 65.5758 26.2851C65.7631 24.1097 66.028 21.9962 66.0305 21.975L67.6571 22.1668C67.2136 25.6937 66.8777 29.89 67.0834 30.7323C67.4713 31.0596 69.1959 31.7417 71.7264 32.2895C72.443 32.4446 73.2849 32.6127 74.1762 32.7907C76.7319 33.3009 79.3747 33.8286 80.3527 34.3019C81.228 34.7255 81.4674 35.3193 81.514 35.7428C81.5968 36.4941 81.1473 37.2743 80.2144 37.9988C79.5489 38.5157 79.0045 38.7677 77.863 38.7677Z" fill="#05A099"/>
</svg>
